<svg width="240" height="401" viewBox="0 0 240 401" fill="none" xmlns="http://www.w3.org/2000/svg">
<mask id="mask0" mask-type="alpha" maskUnits="userSpaceOnUse" x="0" y="0" width="240" height="401">
<path d="M0 0H240V396C240 397.326 239.473 398.598 238.536 399.536C237.598 400.473 236.326 401 235 401H5C3.67392 401 2.40215 400.473 1.46447 399.536C0.526784 398.598 0 397.326 0 396L0 0Z" fill="white"/>
</mask>
<g mask="url(#mask0)">
<g filter="url(#filter0_d)">
<path d="M0 0H240V396C240 397.326 239.473 398.598 238.536 399.536C237.598 400.473 236.326 401 235 401H5C3.67392 401 2.40215 400.473 1.46447 399.536C0.526784 398.598 0 397.326 0 396L0 0Z" fill="black"/>
</g>
<path fill-rule="evenodd" clip-rule="evenodd" d="M1 1V396C1 397.061 1.42143 398.078 2.17157 398.828C2.92172 399.579 3.93913 400 5 400H235C236.061 400 237.078 399.579 237.828 398.828C238.579 398.078 239 397.061 239 396V1H1Z" fill="white" stroke="#DB167A" stroke-width="2"/>
<path opacity="0.055" fill-rule="evenodd" clip-rule="evenodd" d="M3 98H237V194H3V98Z" fill="#530A7E"/>
<path fill-rule="evenodd" clip-rule="evenodd" d="M51.383 149.253C51.241 148.725 50.9629 148.244 50.5767 147.858C50.1904 147.472 49.7095 147.193 49.182 147.051C47.239 146.531 39.452 146.531 39.452 146.531C39.452 146.531 31.664 146.531 29.722 147.051C29.1944 147.193 28.7135 147.471 28.3272 147.858C27.9409 148.244 27.6629 148.725 27.521 149.253C27 151.195 27 155.248 27 155.248C27 155.248 27 159.299 27.52 161.241C27.6617 161.769 27.9397 162.25 28.3262 162.637C28.7127 163.023 29.1941 163.301 29.722 163.443C31.664 163.963 39.452 163.963 39.452 163.963C39.452 163.963 47.239 163.963 49.182 163.443C49.7096 163.301 50.1907 163.023 50.577 162.636C50.9633 162.25 51.2412 161.769 51.383 161.241C51.903 159.299 51.903 155.248 51.903 155.248C51.903 155.248 51.903 151.195 51.383 149.253Z" fill="#E90000"/>
<path fill-rule="evenodd" clip-rule="evenodd" d="M36.962 158.983L43.432 155.247L36.962 151.512V158.983Z" fill="white"/>
<path fill-rule="evenodd" clip-rule="evenodd" d="M65.908 160.68C66.044 160.324 66.113 159.743 66.113 158.935V155.534C66.113 154.75 66.044 154.176 65.908 153.815C65.772 153.453 65.531 153.272 65.186 153.272C64.854 153.272 64.62 153.453 64.484 153.815C64.347 154.176 64.278 154.75 64.278 155.534V158.935C64.278 159.743 64.344 160.325 64.475 160.681C64.605 161.037 64.842 161.215 65.186 161.215C65.531 161.215 65.772 161.037 65.908 160.681V160.68ZM63.148 162.39C62.655 162.058 62.305 161.541 62.098 160.841C61.889 160.141 61.786 159.209 61.786 158.045V156.459C61.786 155.284 61.904 154.341 62.141 153.628C62.379 152.916 62.75 152.397 63.255 152.07C63.759 151.743 64.421 151.58 65.24 151.58C66.048 151.58 66.694 151.746 67.182 152.078C67.668 152.411 68.025 152.931 68.25 153.638C68.476 154.343 68.589 155.284 68.589 156.459V158.045C68.589 159.209 68.479 160.144 68.259 160.849C68.039 161.555 67.683 162.073 67.19 162.399C66.698 162.725 66.03 162.889 65.186 162.889C64.32 162.889 63.64 162.722 63.147 162.389L63.148 162.39ZM101.285 153.476C101.161 153.63 101.077 153.883 101.035 154.233C100.993 154.583 100.974 155.114 100.974 155.826V156.61H102.772V155.826C102.772 155.126 102.748 154.594 102.701 154.233C102.653 153.871 102.567 153.615 102.443 153.467C102.318 153.319 102.125 153.244 101.864 153.244C101.602 153.244 101.41 153.321 101.285 153.476ZM100.974 158.07V158.623C100.974 159.323 100.994 159.849 101.035 160.199C101.077 160.549 101.163 160.804 101.295 160.964C101.425 161.124 101.625 161.204 101.9 161.204C102.267 161.204 102.52 161.062 102.656 160.778C102.793 160.492 102.866 160.018 102.879 159.353L104.999 159.477C105.01 159.573 105.016 159.703 105.016 159.869C105.016 160.879 104.74 161.632 104.188 162.131C103.636 162.631 102.855 162.879 101.846 162.879C100.636 162.879 99.786 162.499 99.299 161.739C98.812 160.979 98.569 159.804 98.569 158.213V156.307C98.569 154.669 98.822 153.473 99.326 152.72C99.831 151.965 100.694 151.588 101.917 151.588C102.76 151.588 103.407 151.742 103.859 152.051C104.309 152.36 104.627 152.841 104.811 153.494C104.995 154.146 105.088 155.049 105.088 156.2V158.07H100.974ZM57.163 157.866L54.367 147.768H56.807L57.787 152.345C58.036 153.473 58.22 154.435 58.339 155.23H58.409C58.493 154.66 58.676 153.704 58.962 152.363L59.977 147.768H62.417L59.585 157.866V162.711H57.163V157.866ZM76.524 151.794V162.711H74.6L74.387 161.375H74.333C73.811 162.385 73.027 162.889 71.983 162.889C71.258 162.889 70.723 162.652 70.379 162.177C70.035 161.702 69.863 160.959 69.863 159.95V151.794H72.321V159.808C72.321 160.295 72.374 160.641 72.481 160.849C72.587 161.057 72.766 161.161 73.015 161.161C73.229 161.161 73.434 161.097 73.63 160.965C73.826 160.835 73.97 160.669 74.066 160.465V151.794H76.524ZM89.13 151.794V162.711H87.206L86.993 161.375H86.939C86.417 162.385 85.633 162.889 84.589 162.889C83.865 162.889 83.329 162.652 82.986 162.177C82.641 161.702 82.469 160.959 82.469 159.95V151.794H84.927V159.808C84.927 160.295 84.98 160.641 85.087 160.849C85.194 161.057 85.372 161.161 85.621 161.161C85.835 161.161 86.041 161.097 86.236 160.965C86.432 160.835 86.577 160.669 86.672 160.465V151.794H89.13Z" fill="black"/>
<path fill-rule="evenodd" clip-rule="evenodd" d="M83.202 149.746H80.762V162.71H78.358V149.746H75.918V147.769H83.202V149.746ZM95.011 157.991C95.011 158.787 94.979 159.411 94.913 159.861C94.848 160.313 94.738 160.634 94.583 160.823C94.5086 160.916 94.4135 160.99 94.3053 161.039C94.1972 161.089 94.0789 161.112 93.96 161.108C93.7639 161.11 93.5707 161.061 93.399 160.966C93.222 160.866 93.0771 160.717 92.981 160.538V154.34C93.064 154.044 93.206 153.8 93.408 153.61C93.61 153.42 93.829 153.325 94.067 153.325C94.317 153.325 94.509 153.424 94.646 153.62C94.782 153.815 94.878 154.145 94.931 154.608C94.984 155.071 95.011 155.73 95.011 156.584V157.991ZM97.264 153.538C97.114 152.85 96.875 152.351 96.542 152.043C96.21 151.733 95.753 151.58 95.172 151.58C94.72 151.58 94.299 151.708 93.907 151.962C93.5208 152.212 93.2076 152.559 92.999 152.969H92.981V147.216H90.611V162.71H92.642L92.892 161.678H92.945C93.135 162.045 93.42 162.336 93.8 162.55C94.18 162.763 94.602 162.87 95.065 162.87C95.895 162.87 96.508 162.488 96.899 161.722C97.291 160.956 97.486 159.76 97.486 158.133V156.406C97.486 155.183 97.412 154.227 97.264 153.538Z" fill="black"/>
<mask id="mask1" mask-type="alpha" maskUnits="userSpaceOnUse" x="139" y="145" width="74" height="21">
<path d="M139.226 145.688H212.564V165.391H139.226V145.688Z" fill="white"/>
</mask>
<g mask="url(#mask1)">
<path fill-rule="evenodd" clip-rule="evenodd" d="M188.022 145.688H184.934V162.959C187.74 163.056 190.535 163.197 193.318 163.383V160.34C191.558 160.222 189.792 160.123 188.022 160.04V145.688ZM212.564 145.69H209.173L206.936 150.873L204.926 145.69H201.586L205.176 154.952L201.256 164.037C202.341 164.142 203.422 164.255 204.503 164.375L206.783 159.092L209.04 164.916C210.216 165.067 211.39 165.224 212.56 165.391L212.564 165.389L208.541 155.013L212.564 145.69ZM174.333 162.81L177.421 162.808V155.782H181.608V152.739H177.421V148.759H182.954V145.69H174.333V162.81ZM162.8 148.759H166.032V162.989C167.06 162.95 168.09 162.917 169.121 162.891V148.76H172.353V145.69H162.8V148.76V148.759ZM152.242 163.874C155.089 163.615 157.948 163.402 160.821 163.237V160.193C158.985 160.299 157.155 160.425 155.331 160.569V155.961C156.528 155.95 158.104 155.913 159.501 155.931V152.886C158.385 152.883 156.591 152.902 155.331 152.919V148.759H160.821V145.69H152.242V163.874ZM146.184 156.839L142.162 145.689H139.226V165.391C140.254 165.245 141.284 165.106 142.316 164.971V154.258L145.891 164.531C147.016 164.401 148.143 164.277 149.272 164.161V145.69H146.184V156.839ZM195.864 163.566C196.895 163.646 197.924 163.73 198.953 163.821V145.69H195.865V163.566H195.864Z" fill="#E90000"/>
</g>
<path fill-rule="evenodd" clip-rule="evenodd" d="M123.153 156.347V160.427H120.196V156.347H116.252V153.732H120.196V149.697H123.153V153.732H127.05V156.347H123.153Z" fill="#DB167A"/>
<path d="M62.362 185V182.204H63.718C64.55 182.204 65.234 181.964 65.77 181.484C66.306 181.004 66.574 180.388 66.574 179.636C66.574 178.876 66.306 178.26 65.77 177.788C65.234 177.316 64.55 177.08 63.718 177.08H60.742V185H62.362ZM63.718 180.788H62.362V178.508H63.718C64.078 178.508 64.368 178.612 64.588 178.82C64.808 179.028 64.918 179.3 64.918 179.636C64.918 179.98 64.812 180.258 64.6 180.47C64.388 180.682 64.094 180.788 63.718 180.788ZM71.614 185.144C72.758 185.168 73.752 184.772 74.596 183.956C75.44 183.14 75.854 182.168 75.838 181.04C75.854 179.912 75.44 178.94 74.596 178.124C73.752 177.308 72.758 176.912 71.614 176.936C70.47 176.912 69.48 177.308 68.644 178.124C67.808 178.94 67.398 179.912 67.414 181.04C67.398 182.168 67.808 183.14 68.644 183.956C69.48 184.772 70.47 185.168 71.614 185.144ZM71.626 183.644C70.89 183.644 70.282 183.4 69.802 182.912C69.322 182.424 69.082 181.8 69.082 181.04C69.082 180.28 69.322 179.656 69.802 179.168C70.282 178.68 70.89 178.436 71.626 178.436C72.354 178.436 72.96 178.682 73.444 179.174C73.928 179.666 74.17 180.288 74.17 181.04C74.17 181.8 73.928 182.424 73.444 182.912C72.96 183.4 72.354 183.644 71.626 183.644ZM78.826 185V182.204H80.014L82.066 185H83.89L81.646 181.892C82.0712 181.691 82.4289 181.37 82.6759 180.97C82.9229 180.57 83.0487 180.106 83.038 179.636C83.038 178.876 82.77 178.26 82.234 177.788C81.698 177.316 81.014 177.08 80.182 177.08H77.206V185H78.826ZM80.182 180.776H78.826V178.508H80.182C80.542 178.508 80.832 178.612 81.052 178.82C81.272 179.028 81.382 179.3 81.382 179.636C81.382 179.98 81.276 180.256 81.064 180.464C80.852 180.672 80.558 180.776 80.182 180.776ZM91.054 185V177.08H90.514L87.55 178.052L87.934 179.48L89.434 179V185H91.054ZM97.402 185L97.846 183.968H101.086L101.53 185H103.27L99.742 176.936H99.202L95.662 185H97.402ZM100.522 182.636H98.41L99.466 179.96L100.522 182.636ZM108.73 176.3C109.122 176.3 109.45 176.15 109.714 175.85C109.978 175.55 110.11 175.16 110.11 174.68C110.11 174.656 110.102 174.524 110.086 174.284H108.85V174.428C108.85 174.7 108.738 174.836 108.514 174.836C108.362 174.836 108.182 174.768 107.974 174.632L107.614 174.416C107.302 174.248 107.006 174.164 106.726 174.164C106.326 174.164 105.994 174.314 105.73 174.614C105.466 174.914 105.334 175.3 105.334 175.772C105.334 175.804 105.342 175.94 105.358 176.18H106.594V176.036C106.594 175.772 106.706 175.64 106.93 175.64C107.05 175.64 107.226 175.708 107.458 175.844L107.818 176.036C108.138 176.212 108.442 176.3 108.73 176.3ZM111.094 185.144V177.08H109.474V181.808L104.878 176.936H104.35V185H105.97V180.248L110.554 185.144H111.094ZM116.65 185.144C117.794 185.168 118.788 184.772 119.632 183.956C120.476 183.14 120.89 182.168 120.874 181.04C120.89 179.912 120.476 178.94 119.632 178.124C118.788 177.308 117.794 176.912 116.65 176.936C115.506 176.912 114.516 177.308 113.68 178.124C112.844 178.94 112.434 179.912 112.45 181.04C112.434 182.168 112.844 183.14 113.68 183.956C114.516 184.772 115.506 185.168 116.65 185.144ZM116.662 183.644C115.926 183.644 115.318 183.4 114.838 182.912C114.358 182.424 114.118 181.8 114.118 181.04C114.118 180.28 114.358 179.656 114.838 179.168C115.318 178.68 115.926 178.436 116.662 178.436C117.39 178.436 117.996 178.682 118.48 179.174C118.964 179.666 119.206 180.288 119.206 181.04C119.206 181.8 118.964 182.424 118.48 182.912C117.996 183.4 117.39 183.644 116.662 183.644ZM131.038 185V183.86H126.958V181.352H129.922V180.248H126.958V178.22H130.894V177.08H125.686V185H131.038ZM139.042 185.132V177.08H137.77V182.42L132.958 176.948H132.514V185H133.786V179.636L138.61 185.132H139.042ZM145.678 185V181.94H147.13L149.386 185H150.838L148.462 181.736C148.942 181.552 149.316 181.264 149.584 180.872C149.852 180.48 149.986 180.024 149.986 179.504C149.986 178.792 149.738 178.21 149.242 177.758C148.746 177.306 148.098 177.08 147.298 177.08H144.406V185H145.678ZM147.274 180.812H145.678V178.208H147.274C147.706 178.208 148.048 178.328 148.3 178.568C148.552 178.808 148.678 179.124 148.678 179.516C148.678 179.908 148.552 180.222 148.3 180.458C148.048 180.694 147.706 180.812 147.274 180.812ZM157.33 185V183.86H153.25V181.352H156.214V180.248H153.25V178.22H157.186V177.08H151.978V185H157.33ZM161.29 185C162.57 185 163.608 184.628 164.404 183.884C165.2 183.14 165.598 182.188 165.598 181.028C165.598 179.852 165.202 178.9 164.41 178.172C163.618 177.444 162.578 177.08 161.29 177.08H158.806V185H161.29ZM161.278 183.86H160.078V178.232H161.278C162.198 178.232 162.93 178.486 163.474 178.994C164.018 179.502 164.29 180.18 164.29 181.028C164.29 181.868 164.016 182.55 163.468 183.074C162.92 183.598 162.19 183.86 161.278 183.86ZM174.922 185V183.62H176.002V182.528H174.922V180.092H173.65V182.528H171.286L173.53 177.08H172.222L169.69 183.272V183.62H173.65V185H174.922ZM180.91 185.132C181.671 185.14 182.421 184.945 183.082 184.568C183.72 184.21 184.248 183.682 184.606 183.044V180.812H180.898V181.94H183.334V182.792C182.814 183.592 182.026 183.992 180.97 183.992C180.122 183.992 179.424 183.71 178.876 183.146C178.328 182.582 178.054 181.876 178.054 181.028C178.054 180.188 178.32 179.492 178.852 178.94C179.384 178.388 180.066 178.112 180.898 178.112C181.882 178.112 182.67 178.528 183.262 179.36L184.186 178.604C183.394 177.5 182.302 176.948 180.91 176.948C179.758 176.932 178.768 177.328 177.94 178.136C177.112 178.944 176.71 179.912 176.734 181.04C176.718 182.176 177.12 183.146 177.94 183.95C178.76 184.754 179.75 185.148 180.91 185.132Z" fill="#4F008C"/>
<path d="M35.808 137.384L45.408 115.88H39.168L34.944 126.248L30.688 115.88H24.448L34.048 137.384H35.808ZM53.088 137V115.88H47.584V137H53.088ZM64.672 137C71.2 137 76.192 132.744 76.192 126.376C76.192 119.88 71.2 115.88 64.672 115.88H57.312V137H64.672ZM64.64 132.04H62.816V120.872H64.64C67.968 120.872 70.56 122.632 70.56 126.376C70.56 129.992 67.968 132.04 64.64 132.04ZM94.368 137V132.04H84.832V128.36H91.36V123.752H84.832V120.84H93.984V115.88H79.328V137H94.368ZM108.064 137.384C114.368 137.384 119.488 132.68 119.488 126.44C119.488 120.232 114.368 115.496 108.064 115.496C101.76 115.496 96.704 120.232 96.704 126.44C96.704 132.68 101.76 137.384 108.064 137.384ZM108.096 132.328C104.704 132.328 102.336 130.024 102.336 126.44C102.336 122.92 104.704 120.552 108.096 120.552C111.36 120.552 113.856 122.92 113.856 126.44C113.856 130.024 111.36 132.328 108.096 132.328ZM145.824 137V132.04H137.088V115.88H131.584V137H145.824ZM154.208 137V115.88H148.704V137H154.208ZM168.288 137C172.352 137 175.424 134.44 175.424 130.728C175.424 128.232 174.048 126.536 171.904 125.672C172.704 124.776 173.184 123.56 173.184 122.12C173.184 118.376 170.08 115.88 166.048 115.88H158.432V137H168.288ZM165.696 124.232H163.712V120.52H165.696C167.008 120.52 167.808 121.256 167.808 122.376C167.808 123.496 167.008 124.232 165.696 124.232ZM167.936 132.36H163.712V128.648H167.936C169.216 128.648 170.048 129.256 170.048 130.504C170.048 131.752 169.216 132.36 167.936 132.36ZM183.904 137V130.44H186.176L190.944 137H197.088L191.52 129.16C193.568 127.912 194.848 125.8 194.848 123.144C194.848 118.664 191.328 115.88 186.688 115.88H178.4V137H183.904ZM186.72 125.64H183.904V120.68H186.72C188.256 120.68 189.248 121.672 189.248 123.144C189.248 124.648 188.256 125.64 186.72 125.64ZM214.304 137V132.04H204.768V128.36H211.296V123.752H204.768V120.84H213.92V115.88H199.264V137H214.304Z" fill="#DB167A"/>
<path fill-rule="evenodd" clip-rule="evenodd" d="M79.08 339.993L80.697 334.129C79.645 332.309 79.079 330.287 79.079 328.184C79.079 321.794 84.336 316.538 90.766 316.538C97.196 316.538 102.534 321.795 102.534 328.184C102.534 334.574 97.195 339.993 90.766 339.993C88.744 339.993 86.803 339.346 85.064 338.375L79.079 339.993H79.08Z" fill="#FEFEFE"/>
<path fill-rule="evenodd" clip-rule="evenodd" d="M85.388 336.272L85.752 336.474C87.248 337.404 88.987 337.97 90.807 337.97C96.104 337.97 100.512 333.563 100.512 328.184C100.512 322.806 96.104 318.56 90.766 318.56C85.428 318.56 81.101 322.846 81.101 328.184C81.101 330.044 81.627 331.864 82.597 333.401L82.84 333.765L81.91 337.162L85.388 336.272Z" fill="#129F5C"/>
<path fill-rule="evenodd" clip-rule="evenodd" d="M87.652 322.766L86.884 322.725C86.6449 322.719 86.4127 322.806 86.237 322.968C85.873 323.291 85.267 323.898 85.104 324.707C84.821 325.92 85.266 327.376 86.318 328.831C87.369 330.287 89.391 332.633 92.949 333.644C94.082 333.967 94.972 333.764 95.699 333.32C96.266 332.957 96.629 332.39 96.751 331.783L96.873 331.217C96.8917 331.131 96.8821 331.041 96.8455 330.961C96.8089 330.881 96.7473 330.815 96.67 330.773L94.123 329.6C94.0408 329.559 93.9468 329.549 93.8577 329.571C93.7686 329.593 93.6904 329.646 93.637 329.721L92.627 331.015C92.545 331.095 92.424 331.136 92.303 331.095C91.616 330.853 89.31 329.883 88.056 327.457C88.016 327.335 88.016 327.214 88.097 327.133L89.067 326.041C89.149 325.92 89.189 325.758 89.149 325.637L87.975 323.008C87.9525 322.939 87.9094 322.879 87.8516 322.836C87.7939 322.793 87.7242 322.768 87.652 322.766Z" fill="#FEFEFE"/>
<path d="M112 328V326.536H108.532V320.08H106.912V328H112ZM114.496 328V320.08H112.876V328H114.496ZM119.512 328C121.048 328 122.116 327.04 122.116 325.672C122.116 324.712 121.588 324.028 120.712 323.716C121.084 323.356 121.3 322.876 121.3 322.288C121.3 320.98 120.256 320.08 118.792 320.08H115.984V328H119.512ZM118.66 323.284H117.544V321.472H118.66C119.332 321.472 119.692 321.82 119.692 322.372C119.692 322.912 119.332 323.284 118.66 323.284ZM119.392 326.608H117.544V324.616H119.392C120.1 324.616 120.52 325 120.52 325.612C120.52 326.236 120.1 326.608 119.392 326.608ZM124.732 328V325.204H125.92L127.972 328H129.796L127.552 324.88C128.404 324.46 128.944 323.656 128.944 322.636C128.944 321.088 127.756 320.08 126.088 320.08H123.112V328H124.732ZM126.088 323.776H124.732V321.508H126.088C126.844 321.508 127.288 321.976 127.288 322.636C127.288 323.32 126.844 323.776 126.088 323.776ZM135.94 328V326.536H132.088V324.532H134.812V323.152H132.088V321.544H135.796V320.08H130.468V328H135.94ZM145.528 328V326.536H141.676V324.532H144.4V323.152H141.676V321.544H145.384V320.08H140.056V328H145.528ZM153.352 328.144V320.08H151.732V324.796L147.136 319.936H146.608V328H148.228V323.248L152.812 328.144H153.352ZM159.496 328V325.204H160.684L162.736 328H164.56L162.316 324.88C163.168 324.46 163.708 323.656 163.708 322.636C163.708 321.088 162.52 320.08 160.852 320.08H157.876V328H159.496ZM160.852 323.776H159.496V321.508H160.852C161.608 321.508 162.052 321.976 162.052 322.636C162.052 323.32 161.608 323.776 160.852 323.776ZM168.796 328.144C171.124 328.144 173.02 326.368 173.02 324.04C173.02 321.712 171.124 319.936 168.796 319.936C166.468 319.936 164.596 321.712 164.596 324.04C164.596 326.368 166.468 328.144 168.796 328.144ZM168.808 326.644C167.332 326.644 166.264 325.576 166.264 324.04C166.264 322.516 167.332 321.436 168.808 321.436C170.26 321.436 171.352 322.516 171.352 324.04C171.352 325.576 170.26 326.644 168.808 326.644ZM174.856 328L175.3 326.968H178.54L178.984 328H180.724L177.196 319.936H176.656L173.116 328H174.856ZM177.964 325.636H175.876L176.92 322.972L177.964 325.636ZM183.1 328V323.764L185.092 326.272H185.62L187.612 323.764V328H189.232V319.936H188.704L185.356 324.232L182.008 319.936H181.48V328H183.1ZM192.351 328V320.08H190.731V328H192.351ZM200.583 328.144V320.08H198.963V324.796L194.367 319.936H193.839V328H195.459V323.248L200.043 328.144H200.583ZM205.851 328.144C207.543 328.144 208.935 327.244 209.631 325.996V323.656H205.827V325.06H208.011V325.708C207.579 326.308 206.847 326.692 205.923 326.692C204.327 326.692 203.283 325.576 203.283 324.04C203.283 322.528 204.291 321.436 205.827 321.436C206.799 321.436 207.507 321.868 208.035 322.6L209.187 321.652C208.431 320.572 207.267 319.936 205.851 319.936C203.463 319.936 201.615 321.712 201.615 324.04C201.615 326.368 203.475 328.144 205.851 328.144ZM110.734 338V337.37H107.521V335.138H109.897V334.508H107.521V332.69H110.626V332.06H106.819V338H110.734ZM117.508 338.099V332.06H116.806V336.524L113.026 331.961H112.774V338H113.476V333.545L117.256 338.099H117.508ZM124.088 338V333.725L125.997 336.317H126.249L128.148 333.743V338H128.85V331.961H128.607L126.114 335.39L123.639 331.961H123.387V338H124.089H124.088ZM133.788 331.484L134.868 329.936V329.81H134.021L133.256 331.484H133.787H133.788ZM131.545 338L132.049 336.794H134.965L135.469 338H136.216L133.642 331.961H133.382L130.807 338H131.545ZM134.695 336.164H132.319L133.507 333.239L134.695 336.164ZM139.867 338.099C140.425 338.099 140.884 337.945 141.244 337.636C141.418 337.491 141.558 337.308 141.651 337.102C141.745 336.895 141.79 336.67 141.784 336.443C141.784 336.071 141.674 335.762 141.455 335.516C141.236 335.27 140.884 335.027 140.398 334.787L139.741 334.472C139.55 334.382 139.364 334.283 139.183 334.175C139.072 334.106 138.976 334.014 138.903 333.905C138.821 333.776 138.781 333.625 138.787 333.473C138.787 333.209 138.887 332.999 139.088 332.843C139.289 332.687 139.54 332.609 139.84 332.609C140.41 332.609 140.863 332.858 141.199 333.356L141.712 332.969C141.511 332.658 141.235 332.403 140.91 332.226C140.584 332.05 140.219 331.959 139.849 331.961C139.351 331.961 138.928 332.105 138.579 332.393C138.232 332.681 138.058 333.053 138.058 333.509C138.058 333.881 138.168 334.187 138.391 334.427C138.613 334.667 138.949 334.892 139.399 335.102L140.065 335.417C140.443 335.603 140.702 335.761 140.843 335.89C140.984 336.019 141.055 336.209 141.055 336.461C141.055 336.761 140.945 337.001 140.726 337.181C140.507 337.361 140.218 337.451 139.858 337.451C139.198 337.451 138.646 337.112 138.202 336.434L137.68 336.821C137.914 337.223 138.223 337.537 138.607 337.761C138.991 337.987 139.411 338.099 139.867 338.099ZM149.157 338C150.135 338 150.918 337.721 151.507 337.163C152.094 336.605 152.388 335.891 152.388 335.021C152.388 334.145 152.096 333.433 151.511 332.884C150.926 332.334 150.141 332.06 149.157 332.06H147.393V338H149.157ZM149.148 337.37H148.095V332.69H149.148C149.922 332.69 150.534 332.904 150.984 333.333C151.434 333.763 151.659 334.325 151.659 335.021C151.659 335.711 151.433 336.275 150.979 336.713C150.527 337.151 149.916 337.37 149.149 337.37H149.148ZM158.415 338V337.37H155.202V335.138H157.578V334.508H155.202V332.69H158.307V332.06H154.5V338H158.415ZM165.419 338.099C165.995 338.099 166.489 337.915 166.904 337.546C167.318 337.176 167.524 336.701 167.524 336.119C167.524 335.531 167.331 335.078 166.944 334.76C166.557 334.442 166.073 334.283 165.491 334.283C165.227 334.283 164.945 334.307 164.645 334.355V332.69H167.192V332.06H163.942V334.895H165.284C165.77 334.895 166.144 335.003 166.404 335.219C166.665 335.435 166.796 335.738 166.796 336.128C166.796 336.518 166.666 336.836 166.404 337.082C166.144 337.328 165.812 337.451 165.41 337.451C164.78 337.451 164.26 337.139 163.853 336.515L163.367 336.875C163.577 337.253 163.857 337.552 164.208 337.771C164.559 337.99 164.963 338.099 165.418 338.099H165.419ZM171.643 338.099C172.369 338.099 172.913 337.808 173.273 337.226C173.633 336.638 173.813 335.888 173.813 334.976C173.813 334.064 173.629 333.335 173.263 332.789C172.903 332.237 172.363 331.961 171.643 331.961C170.929 331.961 170.386 332.237 170.014 332.789C169.648 333.335 169.465 334.064 169.465 334.976C169.465 335.888 169.645 336.638 170.005 337.226C170.371 337.808 170.917 338.099 171.643 338.099ZM171.643 337.451C171.157 337.451 170.794 337.235 170.554 336.803C170.314 336.371 170.194 335.765 170.194 334.985C170.194 333.401 170.677 332.609 171.644 332.609C172.604 332.609 173.084 333.401 173.084 334.985C173.084 335.765 172.964 336.371 172.728 336.803C172.491 337.235 172.129 337.451 171.643 337.451ZM180.169 338V335.516H181.555C182.125 335.516 182.584 335.354 182.932 335.03C183.28 334.706 183.454 334.289 183.454 333.779C183.454 333.275 183.28 332.863 182.932 332.541C182.584 332.221 182.125 332.06 181.555 332.06H179.467V338H180.169ZM181.537 334.886H180.169V332.69H181.537C181.909 332.69 182.2 332.79 182.41 332.991C182.62 333.192 182.725 333.458 182.725 333.788C182.725 334.124 182.62 334.391 182.41 334.589C182.2 334.787 181.909 334.886 181.537 334.886ZM184.962 338L185.466 336.794H188.382L188.886 338H189.633L187.059 331.961H186.799L184.224 338H184.962ZM188.112 336.164H185.736L186.924 333.239L188.112 336.164ZM192.212 331.484L193.292 329.936V329.81H192.447L191.682 331.484H192.212ZM192.294 338V332.06H191.592V338H192.294ZM196.52 338.099C197.078 338.099 197.537 337.944 197.897 337.635C198.071 337.49 198.21 337.307 198.304 337.101C198.397 336.895 198.443 336.67 198.437 336.443C198.437 336.071 198.327 335.762 198.109 335.516C197.889 335.27 197.537 335.027 197.051 334.787L196.394 334.472C196.203 334.382 196.017 334.283 195.836 334.175C195.725 334.106 195.63 334.014 195.557 333.905C195.475 333.776 195.434 333.626 195.44 333.473C195.44 333.209 195.54 332.999 195.742 332.843C195.942 332.687 196.193 332.609 196.493 332.609C197.063 332.609 197.516 332.858 197.853 333.356L198.365 332.969C198.164 332.658 197.888 332.403 197.563 332.226C197.237 332.05 196.872 331.959 196.502 331.961C196.004 331.961 195.582 332.105 195.233 332.393C194.885 332.681 194.711 333.053 194.711 333.509C194.711 333.881 194.822 334.187 195.044 334.427C195.266 334.667 195.602 334.892 196.052 335.102L196.718 335.417C197.096 335.603 197.356 335.76 197.497 335.89C197.637 336.019 197.708 336.209 197.708 336.461C197.708 336.761 197.598 337.001 197.38 337.181C197.16 337.361 196.871 337.451 196.511 337.451C195.851 337.451 195.299 337.112 194.855 336.434L194.333 336.821C194.567 337.223 194.876 337.536 195.26 337.761C195.644 337.986 196.064 338.099 196.52 338.099ZM204.58 338V337.37H201.368V335.138H203.744V334.508H201.368V332.69H204.473V332.06H200.666V338H204.581H204.58ZM208.357 338.099C208.915 338.099 209.374 337.944 209.734 337.635C209.908 337.49 210.047 337.307 210.141 337.101C210.234 336.895 210.28 336.67 210.274 336.443C210.274 336.071 210.165 335.762 209.946 335.516C209.727 335.27 209.374 335.027 208.888 334.787L208.231 334.472C208.04 334.382 207.854 334.283 207.673 334.175C207.562 334.106 207.467 334.014 207.394 333.905C207.312 333.776 207.271 333.626 207.277 333.473C207.277 333.209 207.378 332.999 207.579 332.843C207.78 332.687 208.03 332.609 208.33 332.609C208.9 332.609 209.353 332.858 209.69 333.356L210.202 332.969C210.001 332.658 209.725 332.403 209.4 332.226C209.074 332.05 208.709 331.959 208.339 331.961C207.841 331.961 207.419 332.105 207.07 332.393C206.722 332.681 206.548 333.053 206.548 333.509C206.548 333.881 206.659 334.187 206.881 334.427C207.103 334.667 207.439 334.892 207.889 335.102L208.555 335.417C208.933 335.603 209.193 335.76 209.334 335.89C209.475 336.019 209.545 336.209 209.545 336.461C209.545 336.761 209.436 337.001 209.217 337.181C208.998 337.361 208.708 337.451 208.348 337.451C207.688 337.451 207.136 337.112 206.692 336.434L206.17 336.821C206.404 337.223 206.713 337.536 207.097 337.761C207.481 337.986 207.901 338.099 208.357 338.099Z" fill="#4F008C"/>
<path d="M33.503 322.158H33.925V328.604H32.63V325.228L31.038 327.223H30.616L29.024 325.228V328.604H27.729V322.158H28.151L30.827 325.583L33.503 322.158ZM35.383 328.604V322.274H36.678V328.604H35.383ZM42.222 322.274H43.516V328.719H43.085L39.421 324.806V328.604H38.126V322.158H38.548L42.222 326.053V322.273V322.274ZM44.907 325.985V322.274H46.202V326.081C46.202 326.535 46.33 326.889 46.586 327.141C46.841 327.394 47.177 327.521 47.593 327.521C48.015 327.521 48.352 327.394 48.605 327.141C48.857 326.889 48.983 326.535 48.983 326.081V322.274H50.278V325.985C50.278 326.81 50.026 327.472 49.521 327.971C49.015 328.47 48.373 328.719 47.593 328.719C46.806 328.719 46.162 328.469 45.66 327.971C45.158 327.472 44.907 326.811 44.907 325.985ZM53.107 328.604V323.444H51.084V322.274H56.436V323.444H54.403V328.604H53.108H53.107ZM56.925 325.439C56.912 324.537 57.24 323.76 57.908 323.108C58.576 322.456 59.368 322.139 60.282 322.158C61.197 322.139 61.991 322.456 62.666 323.108C63.34 323.76 63.671 324.538 63.658 325.438C63.671 326.34 63.34 327.118 62.666 327.769C61.991 328.422 61.196 328.739 60.282 328.719C59.368 328.739 58.576 328.422 57.908 327.769C57.24 327.117 56.912 326.34 56.925 325.439ZM62.325 325.439C62.325 324.838 62.132 324.341 61.745 323.947C61.358 323.554 60.874 323.357 60.292 323.357C59.703 323.357 59.218 323.552 58.834 323.942C58.45 324.332 58.258 324.832 58.258 325.439C58.258 326.046 58.45 326.545 58.834 326.935C59.218 327.325 59.704 327.52 60.292 327.52C60.874 327.52 61.358 327.325 61.745 326.935C62.132 326.545 62.325 326.046 62.325 325.439ZM64.311 327.319L65.203 326.647C65.65 327.261 66.168 327.568 66.756 327.568C67.038 327.568 67.258 327.506 67.418 327.381C67.4962 327.321 67.5588 327.243 67.6006 327.154C67.6423 327.064 67.662 326.966 67.658 326.868C67.658 326.688 67.604 326.55 67.495 326.451C67.386 326.351 67.172 326.228 66.852 326.081L66.172 325.774C65.148 325.32 64.637 324.713 64.637 323.952C64.637 323.415 64.835 322.982 65.231 322.652C65.628 322.323 66.13 322.158 66.737 322.158C67.21 322.158 67.626 322.266 67.984 322.48C68.342 322.694 68.624 322.987 68.828 323.357L67.946 324.038C67.62 323.552 67.216 323.309 66.737 323.309C66.5356 323.3 66.3369 323.358 66.171 323.472C66.0999 323.523 66.0426 323.591 66.0042 323.67C65.9659 323.748 65.9476 323.836 65.951 323.923C65.951 324.083 66.003 324.213 66.109 324.312C66.214 324.411 66.408 324.524 66.689 324.652L67.409 324.969C67.952 325.212 68.349 325.475 68.598 325.76C68.848 326.045 68.972 326.398 68.972 326.82C68.972 327.389 68.764 327.848 68.349 328.196C67.933 328.545 67.402 328.719 66.756 328.719C66.226 328.719 65.748 328.594 65.322 328.345C64.9001 328.099 64.5512 327.744 64.311 327.319ZM27.729 336.825V330.495H29.024V335.655H31.796V336.825H27.729ZM32.755 336.825V330.495H34.05V336.825H32.755ZM40.399 334.965C40.399 335.508 40.204 335.954 39.814 336.302C39.424 336.651 38.925 336.825 38.318 336.825H35.498V330.495H37.742C38.331 330.495 38.812 330.659 39.186 330.989C39.56 331.318 39.747 331.742 39.747 332.259C39.747 332.726 39.59 333.107 39.277 333.401C40.025 333.676 40.399 334.197 40.399 334.964V334.965ZM37.637 331.607H36.745V333.056H37.637C37.899 333.056 38.102 332.992 38.246 332.864C38.39 332.736 38.462 332.557 38.462 332.327C38.462 332.103 38.39 331.927 38.246 331.799C38.102 331.671 37.899 331.607 37.636 331.607H37.637ZM39.124 334.917C39.1288 334.809 39.1098 334.701 39.0684 334.6C39.0269 334.5 38.964 334.41 38.884 334.337C38.724 334.192 38.504 334.12 38.222 334.12H36.745V335.712H38.222C38.503 335.712 38.724 335.642 38.884 335.502C39.044 335.361 39.124 335.166 39.124 334.916V334.917ZM46.797 336.825H45.339L43.699 334.59H42.749V336.825H41.454V330.495H43.833C44.498 330.495 45.045 330.683 45.473 331.061C45.901 331.438 46.116 331.931 46.116 332.538C46.1245 332.914 46.0239 333.284 45.8264 333.604C45.6289 333.924 45.3429 334.18 45.003 334.341L46.797 336.825ZM42.749 331.636V333.449H43.833C44.133 333.449 44.368 333.366 44.538 333.199C44.708 333.033 44.792 332.813 44.792 332.538C44.7967 332.417 44.7756 332.296 44.7301 332.184C44.6846 332.071 44.6157 331.97 44.528 331.886C44.352 331.719 44.121 331.636 43.833 331.636H42.749ZM47.593 336.826V330.495H51.851V331.665H48.888V332.95H51.065V334.053H48.888V335.655H51.966V336.825H47.593V336.826ZM52.647 335.54L53.539 334.868C53.987 335.482 54.505 335.789 55.093 335.789C55.375 335.789 55.595 335.727 55.755 335.602C55.8332 335.542 55.8958 335.464 55.9376 335.375C55.9793 335.286 55.999 335.187 55.995 335.089C55.995 334.91 55.94 334.771 55.832 334.672C55.723 334.572 55.509 334.45 55.189 334.302L54.509 333.996C53.485 333.542 52.974 332.934 52.974 332.173C52.974 331.636 53.172 331.203 53.568 330.873C53.965 330.544 54.467 330.38 55.074 330.38C55.547 330.38 55.963 330.487 56.321 330.701C56.679 330.915 56.961 331.208 57.165 331.579L56.283 332.259C55.956 331.774 55.553 331.531 55.074 331.531C54.8726 331.522 54.6739 331.58 54.508 331.694C54.4371 331.745 54.3799 331.813 54.3415 331.891C54.3031 331.97 54.2847 332.057 54.288 332.144C54.288 332.304 54.34 332.434 54.446 332.533C54.551 332.632 54.745 332.746 55.026 332.873L55.746 333.19C56.289 333.433 56.686 333.697 56.935 333.981C57.185 334.266 57.309 334.619 57.309 335.041C57.309 335.611 57.101 336.069 56.685 336.417C56.27 336.766 55.739 336.94 55.093 336.94C54.563 336.94 54.085 336.815 53.659 336.566C53.2367 336.32 52.8875 335.966 52.647 335.54Z" fill="#4F008C"/>
<path d="M74.307 320.246V337.511" stroke="#4F008C" stroke-linecap="square"/>
<path d="M11.5 347.5H229.5" stroke="#E8E8E8" stroke-linecap="square"/>
<mask id="mask2" mask-type="alpha" maskUnits="userSpaceOnUse" x="100" y="358" width="22" height="22">
<path d="M100.327 358.588H121.107V379.762H100.327V358.588Z" fill="white"/>
</mask>
<g mask="url(#mask2)">
<path fill-rule="evenodd" clip-rule="evenodd" d="M121.107 369.175C121.107 375.021 116.455 379.762 110.717 379.762C104.977 379.762 100.327 375.022 100.327 369.174C100.327 363.328 104.978 358.587 110.717 358.587C116.455 358.587 121.107 363.328 121.107 369.175Z" fill="#0F5CA5"/>
</g>
<path fill-rule="evenodd" clip-rule="evenodd" d="M113.012 365.178L114.359 365.175V362.948C113.708 362.879 113.053 362.845 112.398 362.847C110.455 362.844 109.127 364.005 109.127 366.14V367.98L106.93 367.976V370.473L109.127 370.475V376.875L111.753 376.879V370.475L113.943 370.478L114.271 367.985L111.753 367.982V366.392C111.753 365.667 111.956 365.177 113.012 365.178Z" fill="#FEFEFE"/>
<mask id="mask3" mask-type="alpha" maskUnits="userSpaceOnUse" x="124" y="358" width="22" height="22">
<path d="M124.471 358.592H145.251V379.887H124.471V358.592Z" fill="white"/>
</mask>
<g mask="url(#mask3)">
<path fill-rule="evenodd" clip-rule="evenodd" d="M145.251 369.24C145.251 375.12 140.599 379.887 134.862 379.887C129.124 379.887 124.472 375.12 124.472 369.24C124.472 363.36 129.123 358.591 134.861 358.591C140.598 358.591 145.251 363.359 145.251 369.241" fill="#0098D3"/>
</g>
<path fill-rule="evenodd" clip-rule="evenodd" d="M139.914 367.38C139.819 370.944 137.014 373.419 132.76 373.569C131.017 373.647 129.76 373.181 128.598 372.639C129.854 372.795 131.504 372.407 132.372 371.787C131.116 371.71 130.342 371.169 129.953 370.313C130.342 370.393 130.728 370.315 131.017 370.315C129.854 370.005 129.085 369.462 128.986 368.221C129.28 368.376 129.66 368.456 130.048 368.456C129.179 368.066 128.598 366.593 129.28 365.664C130.535 366.751 132.079 367.683 134.596 367.84C133.921 365.668 137.596 364.51 139.046 365.982C139.721 365.907 140.207 365.674 140.688 365.524C140.495 366.063 140.108 366.374 139.626 366.683C140.108 366.604 140.594 366.53 140.98 366.374C140.88 366.76 140.4 367.07 139.914 367.38Z" fill="#FEFEFE"/>
<path d="M62.322 379.356C68.0017 379.356 72.606 374.752 72.606 369.072C72.606 363.392 68.0017 358.788 62.322 358.788C56.6423 358.788 52.038 363.392 52.038 369.072C52.038 374.752 56.6423 379.356 62.322 379.356Z" fill="url(#paint0_linear)"/>
<path d="M65.087 362.901H59.557C59.112 362.898 58.6708 362.984 58.2592 363.153C57.8475 363.322 57.4736 363.571 57.159 363.886C56.5189 364.526 56.1567 365.393 56.151 366.298V371.833C56.165 373.724 57.688 375.249 59.557 375.242H65.087C65.533 375.245 65.975 375.159 66.3874 374.989C66.7998 374.819 67.1743 374.569 67.489 374.253C68.128 373.613 68.489 372.743 68.492 371.833V366.311C68.478 364.419 66.956 362.895 65.087 362.901ZM67.398 371.845C67.3955 372.461 67.1504 373.051 66.716 373.487C66.5024 373.702 66.2484 373.872 65.9685 373.987C65.6887 374.103 65.3887 374.161 65.086 374.16H59.556C59.2534 374.161 58.9536 374.102 58.674 373.987C58.3944 373.871 58.1404 373.701 57.927 373.487C57.4926 373.051 57.2475 372.461 57.245 371.845V366.298C57.2475 365.682 57.4926 365.092 57.927 364.656C58.1406 364.441 58.3946 364.271 58.6745 364.156C58.9543 364.04 59.2543 363.982 59.557 363.983H65.087C65.699 363.98 66.287 364.223 66.72 364.661C67.154 365.097 67.398 365.691 67.398 366.311V371.845Z" fill="white"/>
<path d="M62.288 366.192C61.7198 366.199 61.1663 366.373 60.6971 366.693C60.2278 367.014 59.8638 367.466 59.6509 367.993C59.4379 368.519 59.3856 369.097 59.5004 369.654C59.6152 370.21 59.8921 370.72 60.2962 371.12C60.7002 371.519 61.2134 371.79 61.7712 371.899C62.3289 372.007 62.9063 371.948 63.4306 371.729C63.9549 371.511 64.4028 371.141 64.7178 370.669C65.0329 370.196 65.201 369.64 65.201 369.072C65.1997 368.691 65.1232 368.315 64.976 367.964C64.8287 367.613 64.6136 367.294 64.3429 367.027C64.0722 366.759 63.7513 366.548 63.3987 366.404C63.0461 366.261 62.6686 366.189 62.288 366.192ZM62.288 370.962C61.9152 370.958 61.5519 370.843 61.244 370.633C60.9361 370.423 60.6973 370.126 60.5576 369.78C60.418 369.434 60.3836 369.055 60.459 368.69C60.5344 368.325 60.7161 367.99 60.9813 367.728C61.2465 367.466 61.5833 367.288 61.9493 367.217C62.3153 367.146 62.6942 367.184 63.0383 367.328C63.3823 367.472 63.6762 367.714 63.8829 368.024C64.0897 368.335 64.2 368.699 64.2 369.072C64.1987 369.322 64.1482 369.569 64.0514 369.799C63.9545 370.029 63.8133 370.238 63.6357 370.413C63.4582 370.589 63.2477 370.728 63.0165 370.822C62.7852 370.916 62.5377 370.964 62.288 370.962Z" fill="white"/>
<path fill-rule="evenodd" clip-rule="evenodd" d="M66.03 364.547C65.9208 364.547 65.8127 364.569 65.712 364.611C65.6112 364.653 65.5198 364.714 65.443 364.792C65.3663 364.868 65.3055 364.958 65.2639 365.058C65.2224 365.157 65.201 365.264 65.201 365.372C65.201 365.48 65.2224 365.587 65.2639 365.686C65.3055 365.786 65.3663 365.876 65.443 365.952C65.5584 366.065 65.7047 366.142 65.8635 366.173C66.0223 366.204 66.1867 366.188 66.3362 366.126C66.4858 366.064 66.6138 365.96 66.7044 365.826C66.7951 365.692 66.8443 365.534 66.846 365.372C66.8461 365.264 66.8249 365.157 66.7835 365.058C66.7422 364.958 66.6815 364.868 66.605 364.792C66.5281 364.714 66.4365 364.653 66.3356 364.611C66.2346 364.568 66.1264 364.547 66.017 364.547" fill="white"/>
<mask id="mask4" mask-type="alpha" maskUnits="userSpaceOnUse" x="76" y="359" width="21" height="22">
<path d="M76.183 359.467H96.963V380.217H76.183V359.467Z" fill="white"/>
</mask>
<g mask="url(#mask4)">
<path fill-rule="evenodd" clip-rule="evenodd" d="M96.964 369.842C96.964 375.572 92.312 380.218 86.574 380.218C80.836 380.218 76.184 375.572 76.184 369.842C76.183 364.112 80.835 359.468 86.573 359.468C92.311 359.468 96.963 364.113 96.963 369.843" fill="#FFE91B"/>
</g>
<path fill-rule="evenodd" clip-rule="evenodd" d="M81.345 372.284C81.707 372.226 82.041 372.078 82.332 371.873C82.584 371.711 82.82 371.489 83.028 371.224C83.391 370.784 83.571 370.354 83.6 370.281V370.267C83.697 370.075 83.71 369.897 83.654 369.765C83.544 369.499 83.209 369.382 82.974 369.307L82.932 369.292C82.8937 369.28 82.8563 369.265 82.82 369.248C82.6869 369.197 82.5642 369.121 82.458 369.026C82.347 368.924 82.332 368.82 82.347 368.761C82.3582 368.715 82.3787 368.671 82.4073 368.633C82.4358 368.595 82.4718 368.564 82.513 368.54C82.639 368.467 82.806 368.437 82.903 368.496C83.223 368.659 83.488 368.703 83.683 368.6C83.7088 368.585 83.7301 368.564 83.7447 368.538C83.7593 368.512 83.7667 368.483 83.766 368.453C83.766 368.363 83.752 368.276 83.752 368.188V368.173C83.711 367.406 83.654 366.447 83.877 365.903C84.0273 365.541 84.2448 365.21 84.518 364.929C85.0429 364.419 85.7469 364.134 86.479 364.137H86.688C86.924 364.137 87.384 364.167 87.885 364.403C88.177 364.537 88.427 364.713 88.65 364.934C88.914 365.2 89.137 365.524 89.29 365.909C89.527 366.455 89.458 367.413 89.416 368.166V368.209C89.416 368.269 89.402 368.312 89.402 368.371V368.444C89.402 368.504 89.43 368.564 89.485 368.593C89.5455 368.622 89.6119 368.637 89.679 368.636H89.707C89.861 368.623 90.027 368.578 90.209 368.49C90.279 368.46 90.349 368.46 90.375 368.46C90.445 368.46 90.501 368.475 90.57 368.506C90.723 368.564 90.836 368.683 90.836 368.801C90.836 368.844 90.821 368.919 90.736 369.006C90.654 369.096 90.528 369.17 90.349 369.256C90.3188 369.274 90.285 369.285 90.25 369.288L90.209 369.301C89.986 369.374 89.638 369.491 89.527 369.758C89.471 369.891 89.485 370.068 89.584 370.273C89.584 370.288 89.584 370.288 89.596 370.304C89.722 370.599 90.418 372.044 91.851 372.298C91.906 372.311 91.948 372.357 91.948 372.43C91.948 372.458 91.934 372.49 91.934 372.503C91.894 372.593 91.795 372.68 91.628 372.768C91.406 372.886 91.058 372.975 90.598 373.047C90.5527 373.064 90.5141 373.095 90.488 373.136C90.459 373.18 90.446 373.283 90.418 373.416L90.404 373.49C90.389 373.55 90.375 373.622 90.362 373.682C90.334 373.755 90.293 373.799 90.209 373.799C90.167 373.799 90.098 373.799 89.986 373.769C89.832 373.74 89.638 373.695 89.388 373.694C89.236 373.694 89.096 373.709 88.958 373.739C88.664 373.797 88.4 373.974 88.122 374.181C87.745 374.459 87.328 374.784 86.688 374.783H86.562C85.924 374.781 85.505 374.457 85.115 374.176C84.852 373.986 84.6 373.792 84.295 373.733C84.1529 373.703 84.0082 373.688 83.863 373.688C83.613 373.688 83.418 373.731 83.278 373.761H83.266C83.196 373.776 83.112 373.791 83.043 373.791C82.96 373.791 82.903 373.761 82.875 373.671C82.83 373.593 82.7973 373.509 82.778 373.421L82.764 373.376C82.736 373.258 82.723 373.156 82.68 373.096C82.6736 373.075 82.6609 373.057 82.6437 373.044C82.6265 373.031 82.6056 373.024 82.584 373.023C82.2257 372.972 81.875 372.878 81.54 372.741C81.387 372.668 81.275 372.579 81.233 372.489C81.219 372.461 81.219 372.431 81.219 372.416V372.388C81.275 372.328 81.303 372.298 81.345 372.284Z" fill="#FEFEFE"/>
<path d="M81.345 372.284C81.707 372.226 82.041 372.078 82.332 371.873C82.584 371.711 82.82 371.489 83.028 371.224C83.391 370.784 83.571 370.354 83.6 370.281V370.267C83.697 370.075 83.71 369.897 83.654 369.765C83.544 369.499 83.209 369.382 82.974 369.307L82.932 369.292C82.8937 369.28 82.8563 369.265 82.82 369.248C82.6869 369.197 82.5642 369.121 82.458 369.026C82.347 368.924 82.332 368.82 82.347 368.761C82.3582 368.715 82.3787 368.671 82.4073 368.633C82.4358 368.595 82.4718 368.564 82.513 368.54C82.639 368.467 82.806 368.437 82.903 368.496C83.223 368.659 83.488 368.703 83.683 368.6C83.7088 368.585 83.7301 368.564 83.7447 368.538C83.7593 368.512 83.7667 368.483 83.766 368.453C83.766 368.363 83.752 368.276 83.752 368.188V368.173C83.711 367.406 83.654 366.447 83.877 365.903C84.0273 365.541 84.2448 365.21 84.518 364.929C85.0429 364.419 85.7469 364.134 86.479 364.137H86.688C86.924 364.137 87.384 364.167 87.885 364.403C88.177 364.537 88.427 364.713 88.65 364.934C88.914 365.2 89.137 365.524 89.29 365.909C89.527 366.455 89.458 367.413 89.416 368.166V368.209C89.416 368.269 89.402 368.312 89.402 368.371V368.444C89.402 368.504 89.43 368.564 89.485 368.593C89.5455 368.622 89.6119 368.637 89.679 368.636H89.707C89.861 368.623 90.027 368.578 90.209 368.49C90.279 368.46 90.349 368.46 90.375 368.46C90.445 368.46 90.501 368.475 90.57 368.506C90.723 368.564 90.836 368.683 90.836 368.801C90.836 368.844 90.821 368.919 90.736 369.006C90.654 369.096 90.528 369.17 90.349 369.256C90.3188 369.274 90.285 369.285 90.25 369.288L90.209 369.301C89.986 369.374 89.638 369.491 89.527 369.758C89.471 369.891 89.485 370.068 89.584 370.273C89.584 370.288 89.584 370.288 89.596 370.304C89.722 370.599 90.418 372.044 91.851 372.298C91.906 372.311 91.948 372.357 91.948 372.43C91.948 372.458 91.934 372.49 91.934 372.503C91.894 372.593 91.795 372.68 91.628 372.768C91.406 372.886 91.058 372.975 90.598 373.047C90.5527 373.064 90.5141 373.095 90.488 373.136C90.459 373.18 90.446 373.283 90.418 373.416L90.404 373.49C90.389 373.55 90.375 373.622 90.362 373.682C90.334 373.755 90.293 373.799 90.209 373.799C90.167 373.799 90.098 373.799 89.986 373.769C89.832 373.74 89.638 373.695 89.388 373.694C89.236 373.694 89.096 373.709 88.958 373.739C88.664 373.797 88.4 373.974 88.122 374.181C87.745 374.459 87.328 374.784 86.688 374.783H86.562C85.924 374.781 85.505 374.457 85.115 374.176C84.852 373.986 84.6 373.792 84.295 373.733C84.1529 373.703 84.0082 373.688 83.863 373.688C83.613 373.688 83.418 373.731 83.278 373.761H83.266C83.196 373.776 83.112 373.791 83.043 373.791C82.96 373.791 82.903 373.761 82.875 373.671C82.83 373.593 82.7973 373.509 82.778 373.421L82.764 373.376C82.736 373.258 82.723 373.156 82.68 373.096C82.6736 373.075 82.6609 373.057 82.6437 373.044C82.6265 373.031 82.6056 373.024 82.584 373.023C82.2257 372.972 81.875 372.878 81.54 372.741C81.387 372.668 81.275 372.579 81.233 372.489C81.219 372.461 81.219 372.431 81.219 372.416V372.388C81.275 372.328 81.303 372.298 81.345 372.284" stroke="#1F140F" stroke-width="0.603"/>
<path fill-rule="evenodd" clip-rule="evenodd" d="M27.096 380.183L28.598 374.736C27.621 373.045 27.096 371.167 27.096 369.213C27.096 363.278 31.979 358.393 37.952 358.393C43.925 358.393 48.885 363.278 48.885 369.213C48.885 375.149 43.925 380.183 37.952 380.183C36.074 380.183 34.272 379.583 32.655 378.681L27.095 380.183H27.096Z" fill="#FEFEFE"/>
<path fill-rule="evenodd" clip-rule="evenodd" d="M32.956 376.727L33.294 376.914C34.684 377.779 36.3 378.304 37.99 378.304C42.911 378.304 47.006 374.21 47.006 369.214C47.006 364.217 42.911 360.272 37.952 360.272C32.993 360.272 28.974 364.254 28.974 369.213C28.974 370.941 29.463 372.633 30.364 374.06L30.589 374.398L29.725 377.553L32.956 376.727Z" fill="#129F5C"/>
<path fill-rule="evenodd" clip-rule="evenodd" d="M35.06 364.18L34.346 364.142C34.124 364.136 33.9084 364.217 33.745 364.367C33.407 364.667 32.843 365.232 32.693 365.983C32.43 367.109 32.843 368.463 33.82 369.814C34.797 371.167 36.675 373.346 39.98 374.284C41.033 374.586 41.86 374.397 42.536 373.984C43.062 373.647 43.4 373.12 43.512 372.557L43.626 372.031C43.6435 371.951 43.6345 371.867 43.6004 371.793C43.5664 371.718 43.509 371.657 43.437 371.618L41.071 370.528C40.9946 370.49 40.9074 370.481 40.8247 370.502C40.7421 370.522 40.6696 370.572 40.62 370.641L39.68 371.843C39.642 371.882 39.5937 371.91 39.5407 371.923C39.4877 371.937 39.432 371.935 39.38 371.918C38.742 371.693 36.6 370.791 35.435 368.538C35.398 368.424 35.398 368.312 35.473 368.237L36.375 367.223C36.45 367.109 36.487 366.96 36.45 366.847L35.36 364.405C35.3393 364.341 35.2994 364.285 35.2457 364.245C35.192 364.204 35.1272 364.181 35.06 364.179" fill="#FEFEFE"/>
<path d="M164.471 370.413V367.503H159.344V358.019H156.114V370.413H164.471ZM168.757 370.413V358.02H165.527V370.414H168.757V370.413ZM176.386 370.413C178.771 370.413 180.574 368.911 180.574 366.733C180.574 365.268 179.766 364.273 178.508 363.766C178.978 363.24 179.259 362.526 179.259 361.681C179.259 359.484 177.438 358.019 175.071 358.019H170.602V370.413H176.386ZM174.865 362.921H173.7V360.742H174.864C175.634 360.742 176.104 361.174 176.104 361.832C176.104 362.489 175.634 362.921 174.864 362.921H174.865ZM176.179 367.691H173.701V365.512H176.179C176.931 365.512 177.419 365.869 177.419 366.602C177.419 367.334 176.931 367.691 176.179 367.691ZM184.916 370.413V366.563H186.25L189.048 370.413H192.653L189.386 365.813C190.587 365.08 191.339 363.841 191.339 362.283C191.339 359.653 189.273 358.019 186.55 358.019H181.686V370.413H184.916ZM186.569 363.747H184.916V360.837H186.569C187.47 360.837 188.052 361.418 188.052 362.282C188.052 363.165 187.47 363.747 186.569 363.747ZM202.122 370.413V367.503H196.526V365.343H200.357V362.639H196.527V360.93H201.897V358.02H193.297V370.413H202.122ZM207.629 370.639C210.183 370.639 212.174 369.212 212.174 366.77C212.174 364.949 211.066 363.897 209 363.033L207.573 362.433C206.803 362.113 206.503 361.888 206.503 361.418C206.503 360.855 206.972 360.63 207.61 360.63C208.55 360.63 209.094 361.118 209.657 361.944L211.817 360.292C211.103 358.864 209.732 357.794 207.573 357.794C205.056 357.794 203.235 359.24 203.235 361.456C203.235 363.202 204.399 364.329 206.371 365.193L207.648 365.756C208.512 366.132 208.906 366.32 208.906 366.902C208.906 367.502 208.493 367.803 207.629 367.803C206.239 367.803 205.469 367.014 204.869 366.207L202.69 367.86C203.573 369.53 205.357 370.639 207.63 370.639H207.629Z" fill="#D2227A"/>
<path d="M160.552 379.356V378.336H156.903V376.094H159.553V375.106H156.903V373.293H160.423V372.273H155.766V379.356H160.552ZM167.709 379.474V372.274H166.572V377.049L162.269 372.155H161.871V379.355H163.009V374.559L167.323 379.474H167.709ZM173.643 379.356V376.619H174.942L176.959 379.356H178.257L176.133 376.437C176.54 376.29 176.89 376.02 177.136 375.664C177.376 375.314 177.496 374.906 177.496 374.441C177.496 373.804 177.274 373.284 176.83 372.88C176.387 372.476 175.807 372.273 175.092 372.273H172.506V379.356H173.643ZM175.07 375.611H173.643V373.282H175.07C175.457 373.282 175.762 373.389 175.988 373.604C176.213 373.819 176.326 374.101 176.326 374.452C176.326 374.802 176.213 375.083 175.988 375.294C175.762 375.505 175.457 375.611 175.07 375.611ZM184.063 379.356V378.336H180.414V376.094H183.064V375.106H180.414V373.293H183.934V372.273H179.277V379.356H184.063ZM187.603 379.356C188.748 379.356 189.677 379.023 190.388 378.358C191.1 377.692 191.456 376.841 191.456 375.804C191.456 374.752 191.102 373.901 190.394 373.25C189.686 372.599 188.756 372.273 187.604 372.273H185.383V379.356H187.603ZM187.593 378.336H186.52V373.304H187.593C188.416 373.304 189.07 373.531 189.557 373.985C190.043 374.439 190.287 375.045 190.287 375.804C190.287 376.555 190.042 377.164 189.551 377.634C189.061 378.102 188.409 378.336 187.593 378.336ZM199.794 379.356V378.122H200.76V377.145H199.794V374.967H198.657V377.145H196.543L198.549 372.273H197.379L195.115 377.811V378.121H198.657V379.356H199.794ZM205.149 379.474C205.857 379.474 206.504 379.306 207.091 378.969C207.662 378.649 208.133 378.178 208.454 377.607V375.611H205.138V376.619H207.316V377.381C206.851 378.097 206.146 378.454 205.202 378.454C204.444 378.454 203.82 378.202 203.33 377.698C202.84 377.194 202.595 376.562 202.595 375.804C202.595 375.053 202.833 374.43 203.308 373.937C203.784 373.443 204.394 373.197 205.138 373.197C206.018 373.197 206.723 373.568 207.252 374.312L208.078 373.636C207.37 372.649 206.393 372.156 205.148 372.156C204.118 372.141 203.233 372.496 202.493 373.218C201.753 373.94 201.393 374.806 201.414 375.815C201.4 376.83 201.76 377.698 202.493 378.417C203.226 379.136 204.111 379.488 205.149 379.474Z" fill="#4F008C"/>
<path d="M99.079 307V299.74H97.913V307H99.079ZM106.889 307.121V299.74H105.723V304.635L101.312 299.619H100.905V307H102.071V302.083L106.493 307.121H106.889ZM112.103 307.121C112.77 307.121 113.377 306.972 113.923 306.675C114.457 306.39 114.903 305.967 115.216 305.449L114.336 304.8C113.801 305.636 113.06 306.054 112.114 306.054C111.366 306.054 110.743 305.799 110.244 305.29C109.745 304.78 109.496 304.14 109.496 303.37C109.496 302.6 109.746 301.96 110.244 301.45C110.743 300.94 111.366 300.686 112.114 300.686C113.06 300.686 113.801 301.104 114.336 301.94L115.216 301.291C114.899 300.776 114.451 300.355 113.918 300.07C113.361 299.768 112.737 299.612 112.103 299.619C111.062 299.604 110.16 299.967 109.397 300.708C108.634 301.448 108.264 302.336 108.286 303.37C108.264 304.404 108.634 305.291 109.397 306.032C110.16 306.772 111.062 307.136 112.103 307.121ZM121.101 307V305.955H117.779V299.74H116.613V307H121.101ZM125.193 307.121C126.066 307.121 126.779 306.846 127.333 306.296C127.886 305.746 128.163 305.002 128.163 304.063V299.74H126.997V304.14C126.997 304.741 126.832 305.21 126.502 305.548C126.172 305.885 125.736 306.054 125.193 306.054C124.643 306.054 124.201 305.885 123.868 305.548C123.534 305.211 123.367 304.741 123.367 304.14V299.74H122.201V304.063C122.201 305.002 122.478 305.746 123.031 306.296C123.585 306.846 124.306 307.121 125.193 307.121ZM132.992 307V304.074L135.5 299.74H134.213L132.409 302.897L130.616 299.74H129.318L131.826 304.074V307H132.992ZM141.638 307V305.955H137.898V303.656H140.615V302.644H137.898V300.785H141.506V299.74H136.732V307H141.638Z" fill="#4F008C"/>
<path d="M27.835 78.78C32.558 78.78 36.535 77.34 39.762 74.458C42.991 71.576 44.605 67.99 44.605 63.7C44.605 60.667 43.76 58.002 42.07 55.705C40.38 53.408 38.17 51.74 35.44 50.7L43.955 38.025V35.1H15.03V45.175H27.25L19.645 56.485V59.345H25.755C30.695 59.345 33.165 60.818 33.165 63.765C33.165 65.238 32.635 66.398 31.573 67.243C30.511 68.088 29.113 68.51 27.38 68.51C25.733 68.51 24.293 68.088 23.058 67.243C21.823 66.398 20.555 65 19.255 63.05L11.52 68.51C12.993 71.717 15.16 74.23 18.02 76.05C20.88 77.87 24.152 78.78 27.835 78.78ZM62.517 78.78C67.37 78.78 71.443 77.34 74.737 74.458C78.03 71.576 79.677 67.947 79.677 63.57C79.763 59.54 78.323 56.203 75.354 53.56C72.386 50.917 69.038 49.638 65.312 49.725C64.098 49.725 62.733 49.877 61.217 50.18V45.175H77.207V35.1H50.622V59.345H60.827C65.767 59.345 68.237 60.797 68.237 63.7C68.237 65.217 67.673 66.397 66.547 67.242C65.42 68.088 63.925 68.51 62.062 68.51C60.285 68.51 58.758 68.088 57.479 67.243C56.201 66.398 54.912 65 53.612 63.05L45.877 68.51C47.35 71.717 49.549 74.23 52.474 76.05C55.399 77.87 58.747 78.78 62.517 78.78Z" fill="#4F008C"/>
<path d="M102.086 78.601L102.55 78.6C106.083 78.6 109.283 77.767 112.15 76.1C115.017 74.4 117.217 72.183 118.75 69.45V59.05H102.45V66.45H110.15V68C108.45 69.967 106.033 70.95 102.9 70.95C100 70.95 97.692 70.083 95.975 68.35C94.258 66.617 93.4 64.333 93.4 61.5C93.4 58.7 94.208 56.467 95.825 54.8C97.442 53.133 99.633 52.3 102.4 52.3C105.8 52.3 108.583 53.817 110.75 56.85L116.75 51.75C113.45 46.85 108.717 44.4 102.55 44.4C97.583 44.333 93.333 45.983 89.8 49.35C86.267 52.717 84.533 56.767 84.6 61.5C84.533 66.267 86.267 70.325 89.8 73.675C93.333 77.025 97.583 78.667 102.55 78.6L102.086 78.601ZM131.25 78V45H122.65V78H131.25ZM152.636 78.601L153.1 78.6C156.633 78.6 159.833 77.767 162.7 76.1C165.567 74.4 167.767 72.183 169.3 69.45V59.05H153V66.45H160.7V68C159 69.967 156.583 70.95 153.45 70.95C150.55 70.95 148.242 70.083 146.525 68.35C144.808 66.617 143.95 64.333 143.95 61.5C143.95 58.7 144.758 56.467 146.375 54.8C147.992 53.133 150.183 52.3 152.95 52.3C156.35 52.3 159.133 53.817 161.3 56.85L167.3 51.75C164 46.85 159.267 44.4 153.1 44.4C148.133 44.333 143.883 45.983 140.35 49.35C136.817 52.717 135.083 56.767 135.15 61.5C135.083 66.267 136.817 70.325 140.35 73.675C143.883 77.025 148.133 78.667 153.1 78.6L152.636 78.601ZM178.75 78L179.95 75.25H191.8L193 78H202.25L187.25 44.4H184.5L169.5 78H178.75ZM188.75 68.35H183L185.9 60.7L188.75 68.35ZM215.4 78.6C218.9 78.6 221.792 77.667 224.075 75.8C226.358 73.933 227.5 71.433 227.5 68.3C227.5 66 226.825 64.075 225.475 62.525C224.125 60.975 221.983 59.583 219.05 58.35L215.25 56.75C214.183 56.317 213.442 55.908 213.025 55.525C212.608 55.142 212.4 54.65 212.4 54.05C212.4 52.65 213.383 51.95 215.35 51.95C216.483 51.95 217.467 52.225 218.3 52.775C219.133 53.325 219.967 54.217 220.8 55.45L226.55 51.05C224.35 46.617 220.583 44.4 215.25 44.4C211.85 44.4 209.075 45.3 206.925 47.1C204.775 48.9 203.7 51.25 203.7 54.15C203.7 58.317 206.483 61.633 212.05 64.1L215.45 65.6C216.817 66.2 217.717 66.683 218.15 67.05C218.583 67.417 218.8 67.95 218.8 68.65C218.8 70.25 217.667 71.05 215.4 71.05C213.833 71.05 212.483 70.692 211.35 69.975C210.217 69.258 209.117 68.2 208.05 66.8L202.25 71.2C203.45 73.5 205.208 75.308 207.525 76.625C209.842 77.942 212.467 78.6 215.4 78.6Z" fill="#DB167A"/>
<path d="M14.376 31V27.272H16.184C17.294 27.272 18.205 26.952 18.92 26.312C19.635 25.672 19.992 24.851 19.992 23.848C19.992 22.835 19.635 22.013 18.92 21.384C18.205 20.754 17.293 20.44 16.184 20.44H12.216V31H14.376ZM16.184 25.384H14.376V22.344H16.184C16.664 22.344 17.051 22.483 17.344 22.76C17.637 23.037 17.784 23.4 17.784 23.848C17.784 24.307 17.643 24.678 17.36 24.96C17.077 25.243 16.685 25.384 16.184 25.384ZM28.504 31V29.048H23.88V20.44H21.72V31H28.504ZM31.416 31L32.008 29.624H36.328L36.92 31H39.24L34.536 20.248H33.816L29.096 31H31.416ZM35.576 27.848H32.76L34.168 24.28L35.576 27.848ZM49.672 31.192V20.44H47.512V26.744L41.384 20.248H40.68V31H42.84V24.664L48.952 31.192H49.672Z" fill="#4F008C"/>
<path d="M66.832 257V214.1H63.257L45.707 219.885L48.372 229.765L55.652 227.36V257H66.832ZM86.096 257.78C90.819 257.78 94.795 256.34 98.023 253.458C101.252 250.576 102.866 246.99 102.866 242.7C102.866 239.667 102.021 237.002 100.331 234.705C98.641 232.408 96.431 230.74 93.701 229.7L102.216 217.025V214.1H73.29V224.175H85.51L77.905 235.485V238.345H84.015C88.955 238.345 91.425 239.818 91.425 242.765C91.425 244.238 90.894 245.398 89.832 246.242C88.771 247.087 87.373 247.51 85.64 247.51C83.993 247.51 82.552 247.088 81.317 246.243C80.082 245.398 78.815 244 77.515 242.05L69.78 247.51C71.253 250.717 73.42 253.23 76.28 255.05C79.14 256.87 82.411 257.78 86.095 257.78H86.096ZM111.924 257.78C114.004 257.78 115.727 257.087 117.092 255.7C118.457 254.313 119.139 252.58 119.139 250.5C119.139 248.42 118.457 246.687 117.092 245.3C115.727 243.913 114.004 243.22 111.924 243.22C109.758 243.22 107.981 243.913 106.594 245.3C105.208 246.687 104.514 248.42 104.514 250.5C104.514 252.58 105.208 254.313 106.594 255.7C107.981 257.087 109.758 257.78 111.924 257.78ZM135.283 257L146.008 242.635C148.045 239.862 149.518 237.543 150.428 235.68C151.381 233.817 151.858 231.693 151.858 229.31C151.858 224.76 150.222 220.958 146.95 217.903C143.679 214.848 139.811 213.32 135.348 213.32C131.015 213.233 127.158 214.75 123.778 217.87C120.398 220.99 118.751 224.76 118.838 229.18C118.838 233.123 120.105 236.47 122.64 239.223C125.175 241.974 128.176 243.588 131.643 244.065L122.088 257H135.283ZM135.348 234.77C133.831 234.77 132.542 234.25 131.48 233.21C130.419 232.17 129.888 230.848 129.888 229.245C129.888 227.642 130.418 226.298 131.48 225.215C132.542 224.132 133.831 223.59 135.348 223.59C136.865 223.59 138.154 224.132 139.215 225.215C140.277 226.298 140.808 227.642 140.808 229.245C140.808 230.805 140.288 232.115 139.248 233.177C138.208 234.239 136.908 234.77 135.348 234.77ZM169.56 257L180.285 242.635C182.322 239.862 183.795 237.543 184.705 235.68C185.659 233.817 186.135 231.693 186.135 229.31C186.135 224.76 184.5 220.958 181.228 217.903C177.956 214.848 174.088 213.32 169.625 213.32C165.292 213.233 161.435 214.75 158.055 217.87C154.675 220.99 153.029 224.76 153.115 229.18C153.115 233.123 154.383 236.47 156.918 239.223C159.453 241.974 162.454 243.588 165.92 244.065L156.366 257H169.561H169.56ZM169.625 234.77C168.109 234.77 166.82 234.25 165.758 233.21C164.696 232.17 164.165 230.848 164.165 229.245C164.165 227.642 164.696 226.298 165.758 225.215C166.82 224.132 168.108 223.59 169.625 223.59C171.142 223.59 172.431 224.132 173.493 225.215C174.555 226.298 175.085 227.642 175.085 229.245C175.085 230.805 174.565 232.115 173.525 233.177C172.485 234.239 171.185 234.77 169.625 234.77ZM206.439 257.78C212.072 257.78 216.449 255.678 219.569 251.475C222.689 247.272 224.249 241.855 224.249 235.225C224.249 228.682 222.699 223.395 219.602 219.365C216.503 215.335 212.116 213.32 206.439 213.32C200.762 213.32 196.375 215.335 193.277 219.365C190.178 223.395 188.629 228.682 188.629 235.225C188.629 241.855 190.189 247.272 193.309 251.475C196.429 255.678 200.806 257.78 206.439 257.78ZM206.439 247.51C202.192 247.51 200.069 243.437 200.069 235.29C200.069 231.26 200.589 228.302 201.629 226.417C202.669 224.532 204.272 223.59 206.439 223.59C208.606 223.59 210.209 224.532 211.249 226.417C212.289 228.302 212.809 231.26 212.809 235.29C212.809 243.437 210.686 247.51 206.439 247.51Z" fill="#4F008C"/>
<path d="M26.772 251.492V247.1C30.228 246.524 32.748 244.256 32.748 240.8C32.748 237.812 30.876 235.796 27.276 234.464L24.576 233.528C23.136 232.952 22.164 232.412 22.164 231.26C22.164 229.892 23.46 229.424 24.756 229.424C26.448 229.424 27.744 230.18 28.896 231.872L32.136 229.424C31.056 227.408 29.328 225.824 26.772 225.32V221.036H22.524V225.392C19.536 226.112 17.412 228.236 17.412 231.224C17.412 234.284 19.572 236.3 22.776 237.488L25.224 238.388C26.844 239.036 27.996 239.612 27.996 240.872C27.996 242.312 26.628 242.996 24.864 242.996C22.56 242.996 20.76 241.808 19.428 239.72L16.152 242.168C17.484 244.688 19.644 246.416 22.524 247.028V251.492H26.772Z" fill="#DB167A"/>
<path d="M98.948 275.132C99.6405 275.141 100.324 274.974 100.934 274.646C101.516 274.335 102.003 273.873 102.344 273.308L101.384 272.6C100.8 273.512 99.992 273.968 98.96 273.968C98.144 273.968 97.464 273.69 96.92 273.134C96.376 272.578 96.104 271.88 96.104 271.04C96.104 270.2 96.376 269.502 96.92 268.946C97.464 268.39 98.144 268.112 98.96 268.112C99.992 268.112 100.8 268.568 101.384 269.48L102.344 268.772C101.998 268.21 101.51 267.751 100.928 267.44C100.321 267.11 99.6391 266.941 98.948 266.948C97.812 266.932 96.828 267.328 95.996 268.136C95.164 268.944 94.76 269.912 94.784 271.04C94.76 272.168 95.164 273.136 95.996 273.944C96.828 274.752 97.812 275.148 98.948 275.132ZM104.492 275L105.056 273.68H108.62L109.184 275H110.552L107.06 266.948H106.628L103.136 275H104.492ZM108.164 272.588H105.512L106.844 269.312L108.164 272.588ZM113.084 275V271.94H114.536L116.792 275H118.244L115.868 271.736C116.348 271.552 116.722 271.264 116.99 270.872C117.258 270.48 117.392 270.024 117.392 269.504C117.392 268.792 117.144 268.21 116.648 267.758C116.152 267.306 115.504 267.08 114.704 267.08H111.812V275H113.084ZM114.68 270.812H113.084V268.208H114.68C115.112 268.208 115.454 268.328 115.706 268.568C115.958 268.808 116.084 269.124 116.084 269.516C116.084 269.908 115.958 270.222 115.706 270.458C115.454 270.694 115.112 270.812 114.68 270.812ZM123.08 275.132C123.841 275.14 124.591 274.945 125.252 274.568C125.89 274.21 126.418 273.682 126.776 273.044V270.812H123.068V271.94H125.504V272.792C124.984 273.592 124.196 273.992 123.14 273.992C122.292 273.992 121.594 273.71 121.046 273.146C120.498 272.582 120.224 271.876 120.224 271.028C120.224 270.188 120.49 269.492 121.022 268.94C121.554 268.388 122.236 268.112 123.068 268.112C124.052 268.112 124.84 268.528 125.432 269.36L126.356 268.604C125.564 267.5 124.472 266.948 123.08 266.948C121.928 266.932 120.938 267.328 120.11 268.136C119.282 268.944 118.88 269.912 118.904 271.04C118.888 272.176 119.29 273.146 120.11 273.95C120.93 274.754 121.92 275.148 123.08 275.132ZM132.008 275.132C133.136 275.148 134.118 274.752 134.954 273.944C135.79 273.136 136.196 272.168 136.172 271.04C136.196 269.912 135.79 268.944 134.954 268.136C134.118 267.328 133.136 266.932 132.008 266.948C130.872 266.932 129.892 267.328 129.068 268.136C128.244 268.944 127.84 269.912 127.856 271.04C127.832 272.168 128.234 273.136 129.062 273.944C129.89 274.752 130.872 275.148 132.008 275.132ZM132.02 273.968C131.196 273.968 130.516 273.69 129.98 273.134C129.444 272.578 129.176 271.876 129.176 271.028C129.176 270.188 129.446 269.492 129.986 268.94C130.526 268.388 131.204 268.112 132.02 268.112C132.828 268.112 133.504 268.39 134.048 268.946C134.592 269.502 134.864 270.196 134.864 271.028C134.864 271.868 134.592 272.568 134.048 273.128C133.504 273.688 132.828 273.968 132.02 273.968ZM142.328 275V271.736H145.472V270.584H142.328V268.22H146.144V267.08H141.056V275H142.328ZM148.676 275V267.08H147.404V275H148.676ZM151.016 275.132C151.728 275.132 152.278 274.954 152.666 274.598C153.054 274.242 153.248 273.72 153.248 273.032V267.08H151.976V272.9C151.976 273.292 151.876 273.568 151.676 273.728C151.476 273.888 151.164 273.968 150.74 273.968C150.596 273.968 150.324 273.948 149.924 273.908V275C150.324 275.088 150.688 275.132 151.016 275.132ZM158.912 275.132C160.04 275.148 161.022 274.752 161.858 273.944C162.694 273.136 163.1 272.168 163.076 271.04C163.1 269.912 162.694 268.944 161.858 268.136C161.022 267.328 160.04 266.932 158.912 266.948C157.776 266.932 156.796 267.328 155.972 268.136C155.148 268.944 154.744 269.912 154.76 271.04C154.736 272.168 155.138 273.136 155.966 273.944C156.794 274.752 157.776 275.148 158.912 275.132ZM158.924 273.968C158.1 273.968 157.42 273.69 156.884 273.134C156.348 272.578 156.08 271.876 156.08 271.028C156.08 270.188 156.35 269.492 156.89 268.94C157.43 268.388 158.108 268.112 158.924 268.112C159.732 268.112 160.408 268.39 160.952 268.946C161.496 269.502 161.768 270.196 161.768 271.028C161.768 271.868 161.496 272.568 160.952 273.128C160.408 273.688 159.732 273.968 158.924 273.968ZM169.232 275V270.02L171.512 273.008H171.944L174.212 270.032V275H175.484V266.948H175.052L171.728 271.376L168.404 266.948H167.96V275H169.232ZM182.828 275V273.86H178.748V271.352H181.712V270.248H178.748V268.22H182.684V267.08H177.476V275H182.828ZM190.832 275.132V267.08H189.56V272.42L184.748 266.948H184.304V275H185.576V269.636L190.4 275.132H190.832ZM195.26 275.132C196.028 275.132 196.662 274.92 197.162 274.496C197.662 274.072 197.912 273.52 197.912 272.84C197.912 272.328 197.762 271.9 197.462 271.556C197.162 271.212 196.68 270.888 196.016 270.584L195.128 270.176C195.093 270.154 195.057 270.134 195.02 270.116C194.864 270.035 194.708 269.955 194.552 269.876C194.462 269.822 194.378 269.76 194.3 269.69C194.18 269.59 194.106 269.494 194.078 269.402C194.046 269.287 194.028 269.168 194.024 269.048C194.024 268.744 194.136 268.508 194.36 268.34C194.584 268.172 194.872 268.088 195.224 268.088C195.904 268.088 196.46 268.408 196.892 269.048L197.78 268.364C197.531 267.931 197.168 267.574 196.73 267.332C196.27 267.074 195.751 266.942 195.224 266.948C194.52 266.948 193.928 267.148 193.448 267.548C192.968 267.948 192.728 268.464 192.728 269.096C192.728 269.6 192.882 270.022 193.19 270.362C193.498 270.702 193.96 271.012 194.576 271.292L195.452 271.7C195.892 271.908 196.196 272.09 196.364 272.246C196.532 272.402 196.616 272.616 196.616 272.888C196.621 273.042 196.59 273.196 196.524 273.336C196.458 273.475 196.36 273.598 196.238 273.692C195.986 273.892 195.656 273.992 195.248 273.992C194.44 273.992 193.748 273.572 193.172 272.732L192.272 273.416C192.571 273.943 193.006 274.381 193.531 274.683C194.057 274.985 194.654 275.14 195.26 275.132ZM202.724 275.132C203.676 275.132 204.454 274.832 205.058 274.232C205.662 273.632 205.964 272.82 205.964 271.796V267.08H204.692V271.88C204.692 272.536 204.512 273.048 204.152 273.416C203.792 273.784 203.316 273.968 202.724 273.968C202.124 273.968 201.642 273.784 201.278 273.416C200.914 273.048 200.732 272.536 200.732 271.88V267.08H199.46V271.796C199.46 272.82 199.762 273.632 200.366 274.232C200.97 274.832 201.756 275.132 202.724 275.132ZM208.496 275L209.06 273.68H212.624L213.188 275H214.556L211.064 266.948H210.632L207.14 275H208.496ZM212.168 272.588H209.516L210.848 269.312L212.168 272.588ZM220.712 275V273.86H217.088V267.08H215.816V275H220.712Z" fill="#4F008C"/>
</g>
<defs>
<filter id="filter0_d" x="-15" y="-13" width="270" height="431" filterUnits="userSpaceOnUse" color-interpolation-filters="sRGB">
<feFlood flood-opacity="0" result="BackgroundImageFix"/>
<feColorMatrix in="SourceAlpha" type="matrix" values="0 0 0 0 0 0 0 0 0 0 0 0 0 0 0 0 0 0 127 0"/>
<feOffset dy="2"/>
<feGaussianBlur stdDeviation="7.5"/>
<feColorMatrix type="matrix" values="0 0 0 0 0.317647 0 0 0 0 0.317647 0 0 0 0 0.317647 0 0 0 0.5 0"/>
<feBlend mode="normal" in2="BackgroundImageFix" result="effect1_dropShadow"/>
<feBlend mode="normal" in="SourceGraphic" in2="effect1_dropShadow" result="shape"/>
</filter>
<linearGradient id="paint0_linear" x1="62.322" y1="376.676" x2="62.322" y2="357.808" gradientUnits="userSpaceOnUse">
<stop stop-color="#FCDE87"/>
<stop offset="0.21" stop-color="#F5B444"/>
<stop offset="0.38" stop-color="#E14D75"/>
<stop offset="0.52" stop-color="#DE3A8D"/>
<stop offset="0.74" stop-color="#804492"/>
<stop offset="1" stop-color="#514F99"/>
</linearGradient>
</defs>
</svg>
