<svg width="240" height="307" viewBox="0 0 240 307" fill="none" xmlns="http://www.w3.org/2000/svg">
<mask id="mask0" mask-type="alpha" maskUnits="userSpaceOnUse" x="0" y="0" width="240" height="307">
<path d="M5 0H235C236.326 0 237.598 0.526784 238.536 1.46447C239.473 2.40215 240 3.67392 240 5V302C240 303.326 239.473 304.598 238.536 305.536C237.598 306.473 236.326 307 235 307H5C3.67392 307 2.40215 306.473 1.46447 305.536C0.526784 304.598 0 303.326 0 302L0 5C0 3.67392 0.526784 2.40215 1.46447 1.46447C2.40215 0.526784 3.67392 0 5 0V0Z" fill="white"/>
</mask>
<g mask="url(#mask0)">
<g filter="url(#filter0_d)">
<path d="M5 0H235C236.326 0 237.598 0.526784 238.536 1.46447C239.473 2.40215 240 3.67392 240 5V302C240 303.326 239.473 304.598 238.536 305.536C237.598 306.473 236.326 307 235 307H5C3.67392 307 2.40215 306.473 1.46447 305.536C0.526784 304.598 0 303.326 0 302L0 5C0 3.67392 0.526784 2.40215 1.46447 1.46447C2.40215 0.526784 3.67392 0 5 0V0Z" fill="black"/>
</g>
<path d="M5 0H235C236.326 0 237.598 0.526784 238.536 1.46447C239.473 2.40215 240 3.67392 240 5V302C240 303.326 239.473 304.598 238.536 305.536C237.598 306.473 236.326 307 235 307H5C3.67392 307 2.40215 306.473 1.46447 305.536C0.526784 304.598 0 303.326 0 302L0 5C0 3.67392 0.526784 2.40215 1.46447 1.46447C2.40215 0.526784 3.67392 0 5 0V0Z" fill="white"/>
<path fill-rule="evenodd" clip-rule="evenodd" d="M103.835 240.264L105.538 234.09C104.43 232.173 103.835 230.044 103.835 227.83C103.835 221.102 109.37 215.566 116.14 215.566C122.91 215.566 128.532 221.102 128.532 227.83C128.532 234.558 122.911 240.264 116.14 240.264C114.011 240.264 111.968 239.583 110.136 238.561L103.835 240.264Z" fill="#FEFEFE"/>
<path fill-rule="evenodd" clip-rule="evenodd" d="M110.477 236.346L110.861 236.559C112.436 237.539 114.268 238.135 116.183 238.135C121.761 238.135 126.403 233.494 126.403 227.83C126.403 222.167 121.761 217.695 116.14 217.695C110.52 217.695 105.964 222.209 105.964 227.83C105.964 229.789 106.517 231.705 107.539 233.323L107.794 233.706L106.815 237.283L110.477 236.346Z" fill="#129F5C"/>
<path fill-rule="evenodd" clip-rule="evenodd" d="M112.862 222.124L112.052 222.081C111.797 222.081 111.542 222.166 111.372 222.337C110.988 222.677 110.349 223.317 110.179 224.168C109.881 225.445 110.349 226.978 111.457 228.511C112.564 230.044 114.693 232.514 118.44 233.579C119.632 233.919 120.57 233.706 121.335 233.239C121.619 233.057 121.864 232.82 122.054 232.542C122.244 232.263 122.377 231.95 122.443 231.619L122.571 231.024C122.591 230.933 122.581 230.838 122.542 230.754C122.504 230.669 122.439 230.599 122.357 230.555L119.675 229.321C119.589 229.278 119.49 229.267 119.396 229.291C119.303 229.314 119.22 229.37 119.164 229.448L118.1 230.811C118.057 230.856 118.002 230.887 117.942 230.902C117.881 230.917 117.818 230.915 117.759 230.896C117.035 230.641 114.607 229.619 113.287 227.064C113.245 226.936 113.245 226.808 113.33 226.723L114.352 225.573C114.438 225.445 114.48 225.276 114.438 225.147L113.202 222.38C113.179 222.308 113.133 222.244 113.072 222.198C113.012 222.152 112.938 222.126 112.862 222.124Z" fill="#FEFEFE"/>
<path d="M134.645 230.35V218.43H132.207V230.349H134.645V230.35ZM144.065 230.35V228.146H138.847V218.431H136.409V230.35H144.066H144.065ZM147.346 230.35V218.43H144.908V230.349H147.346V230.35ZM151.548 230.35V223.993L154.545 227.749H155.34L158.338 223.993V230.35H160.776V218.214H159.981L154.943 224.661L149.904 218.214H149.11V230.35H151.548ZM164.995 230.35V218.43H162.557V230.349H164.995V230.35ZM171.887 230.35V220.634H175.716V218.431H165.639V220.634H169.449V230.35H171.887ZM176.487 230.35L177.154 228.797H182.03L182.698 230.35H185.317L180.007 218.214H179.195L173.868 230.35H176.486H176.487ZM181.181 226.792H178.003L179.593 222.765L181.181 226.792ZM189.879 230.35C191.757 230.374 193.317 229.814 194.557 228.67C195.797 227.526 196.404 226.088 196.38 224.354C196.404 222.609 195.803 221.179 194.575 220.065C193.347 218.952 191.782 218.407 189.879 218.431H185.979V230.35H189.879ZM189.861 228.146H188.417V220.634H189.861C191.089 220.634 192.064 220.965 192.787 221.627C193.509 222.29 193.87 223.198 193.87 224.354C193.87 225.498 193.503 226.416 192.769 227.108C192.034 227.8 191.065 228.146 189.861 228.146ZM203.111 230.566C204.831 230.602 206.327 230.006 207.598 228.778C208.868 227.55 209.491 226.088 209.467 224.39C209.491 222.693 208.867 221.23 207.597 220.002C206.327 218.774 204.832 218.178 203.11 218.214C201.389 218.178 199.899 218.774 198.64 220.002C197.383 221.23 196.766 222.692 196.79 224.39C196.766 226.088 197.383 227.55 198.64 228.778C199.899 230.006 201.389 230.602 203.11 230.566H203.111ZM203.128 228.309C202.021 228.309 201.106 227.942 200.383 227.207C199.661 226.473 199.3 225.534 199.3 224.39C199.3 223.247 199.661 222.308 200.383 221.573C201.106 220.839 202.021 220.472 203.128 220.472C204.224 220.472 205.136 220.842 205.864 221.582C206.592 222.322 206.957 223.259 206.957 224.39C206.957 225.534 206.592 226.473 205.864 227.207C205.136 227.942 204.224 228.309 203.128 228.309ZM132.307 234.583C132.399 234.584 132.491 234.566 132.576 234.531C132.661 234.496 132.739 234.444 132.803 234.378C132.868 234.312 132.919 234.234 132.953 234.149C132.987 234.063 133.004 233.971 133.002 233.879C133.005 233.787 132.988 233.695 132.954 233.61C132.92 233.524 132.868 233.447 132.803 233.382C132.738 233.317 132.661 233.266 132.575 233.232C132.49 233.198 132.399 233.181 132.307 233.184C132.215 233.182 132.123 233.198 132.037 233.232C131.951 233.266 131.873 233.317 131.807 233.382C131.741 233.447 131.689 233.524 131.654 233.61C131.619 233.695 131.601 233.787 131.602 233.879C131.6 233.972 131.617 234.064 131.651 234.151C131.686 234.237 131.738 234.316 131.804 234.381C131.869 234.447 131.948 234.499 132.034 234.534C132.121 234.568 132.213 234.585 132.306 234.583H132.307ZM132.876 239.243L132.695 235.45H131.909L131.729 239.242H132.876V239.243ZM134.943 239.243V233.283H133.986V239.243H134.943ZM140.813 239.342V233.283H139.855V237.301L136.235 233.184H135.9V239.242H136.857V235.206L140.487 239.342H140.812H140.813ZM144.55 239.342C145.098 239.342 145.596 239.22 146.045 238.976C146.493 238.732 146.847 238.396 147.105 237.969L146.383 237.436C145.943 238.123 145.336 238.466 144.559 238.466C143.945 238.466 143.434 238.256 143.024 237.838C142.615 237.42 142.41 236.895 142.41 236.263C142.41 235.631 142.615 235.105 143.024 234.687C143.434 234.269 143.945 234.06 144.559 234.06C145.336 234.06 145.944 234.403 146.383 235.089L147.105 234.556C146.845 234.134 146.477 233.788 146.04 233.554C145.583 233.306 145.07 233.178 144.55 233.184C143.695 233.172 142.955 233.47 142.329 234.078C141.703 234.686 141.399 235.414 141.417 236.263C141.399 237.111 141.703 237.84 142.329 238.448C142.955 239.056 143.695 239.354 144.55 239.342ZM151.394 239.242V238.385H148.667V233.283H147.71V239.243H151.394V239.242ZM154.121 239.342C154.837 239.342 155.423 239.116 155.877 238.664C156.332 238.213 156.559 237.602 156.559 236.832V233.283H155.602V236.895C155.602 237.388 155.466 237.774 155.196 238.05C154.925 238.327 154.566 238.466 154.121 238.466C153.67 238.466 153.307 238.327 153.033 238.05C152.759 237.774 152.623 237.388 152.623 236.895V233.283H151.665V236.832C151.665 237.602 151.892 238.213 152.347 238.664C152.801 239.116 153.393 239.342 154.121 239.342ZM159.981 239.242V236.841L162.04 233.283H160.983L159.503 235.874L158.031 233.284H156.965L159.024 236.841V239.242H159.981ZM166.536 239.242V238.385H163.466V236.497H165.696V235.667H163.466V234.141H166.428V233.283H162.509V239.243H166.536V239.242ZM172.776 239.242V238.385H170.048V233.283H169.091V239.243H172.775L172.776 239.242ZM176.883 239.242V238.385H174.157V233.283H173.2V239.243H176.883V239.242ZM177.777 239.242L178.202 238.249H180.883L181.308 239.242H182.338L179.71 233.184H179.385L176.757 239.242H177.777ZM180.54 237.427H178.545L179.547 234.963L180.54 237.427ZM183.7 239.242V235.495L185.416 237.743H185.741L187.448 235.504V239.242H188.405V233.184H188.08L185.579 236.516L183.077 233.184H182.743V239.242H183.7ZM189.831 239.242L190.256 238.249H192.937L193.362 239.242H194.391L191.763 233.184H191.438L188.811 239.242H189.831ZM192.594 237.427H190.6L191.602 234.963L192.595 237.427H192.594ZM196.666 239.242C197.629 239.242 198.41 238.962 199.009 238.402C199.609 237.842 199.908 237.126 199.908 236.254C199.908 235.369 199.61 234.653 199.014 234.104C198.418 233.557 197.635 233.284 196.666 233.284H194.797V239.242H196.667H196.666ZM196.657 238.385H195.754V234.15H196.657C197.35 234.15 197.9 234.341 198.31 234.723C198.719 235.105 198.924 235.616 198.924 236.253C198.924 236.886 198.717 237.399 198.305 237.793C197.893 238.187 197.343 238.385 196.657 238.385ZM200.829 239.242L201.253 238.249H203.935L204.359 239.242H205.389L202.761 233.184H202.436L199.808 239.242H200.828H200.829ZM203.592 237.427H201.596L202.598 234.963L203.592 237.427ZM207.573 239.342C208.151 239.342 208.628 239.182 209.005 238.863C209.381 238.544 209.569 238.129 209.569 237.617C209.569 237.232 209.456 236.91 209.23 236.651C209.005 236.392 208.642 236.148 208.142 235.92L207.474 235.613C207.448 235.596 207.421 235.581 207.393 235.567C207.276 235.507 207.159 235.447 207.041 235.387C206.973 235.346 206.91 235.299 206.851 235.247C206.776 235.192 206.718 235.117 206.684 235.03C206.66 234.943 206.647 234.854 206.644 234.764C206.644 234.535 206.728 234.358 206.896 234.231C207.065 234.105 207.282 234.041 207.546 234.041C208.058 234.041 208.476 234.282 208.801 234.764L209.47 234.249C209.282 233.923 209.009 233.655 208.68 233.473C208.334 233.278 207.943 233.178 207.546 233.183C207.016 233.183 206.571 233.334 206.21 233.635C205.849 233.936 205.668 234.325 205.668 234.8C205.668 235.18 205.784 235.497 206.016 235.753C206.248 236.008 206.596 236.242 207.059 236.453L207.718 236.759C208.049 236.916 208.278 237.053 208.404 237.17C208.531 237.288 208.594 237.449 208.594 237.653C208.598 237.769 208.574 237.885 208.525 237.99C208.475 238.095 208.401 238.187 208.309 238.258C208.119 238.408 207.871 238.484 207.564 238.484C206.957 238.484 206.436 238.168 206.002 237.536L205.325 238.05C205.55 238.447 205.877 238.776 206.272 239.003C206.668 239.23 207.117 239.347 207.573 239.341V239.342ZM211.366 237.211L211.537 233.283H210.4L210.58 237.211H211.366ZM210.977 239.341C211.069 239.344 211.161 239.327 211.246 239.293C211.331 239.259 211.409 239.208 211.474 239.143C211.539 239.078 211.591 239.001 211.625 238.915C211.659 238.83 211.676 238.738 211.673 238.646C211.676 238.553 211.66 238.46 211.626 238.373C211.591 238.286 211.54 238.207 211.474 238.141C211.409 238.076 211.332 238.024 211.246 237.99C211.161 237.956 211.069 237.939 210.977 237.942C210.884 237.94 210.792 237.957 210.705 237.991C210.619 238.026 210.54 238.078 210.475 238.144C210.409 238.209 210.357 238.288 210.322 238.374C210.288 238.461 210.271 238.553 210.273 238.646C210.272 238.738 210.29 238.83 210.325 238.915C210.36 239 210.412 239.078 210.478 239.142C210.544 239.207 210.622 239.258 210.707 239.292C210.793 239.326 210.885 239.343 210.977 239.341Z" fill="#4F008C"/>
<path d="M34.127 234.668V222.226H33.09L28 223.904L28.773 226.769L30.884 226.072V234.668H34.127ZM39.48 234.894C41.114 234.894 42.383 234.284 43.288 233.065C44.193 231.846 44.645 230.275 44.645 228.353C44.645 226.455 44.196 224.922 43.298 223.753C42.398 222.584 41.127 222 39.48 222C37.834 222 36.561 222.584 35.663 223.753C34.764 224.922 34.315 226.455 34.315 228.353C34.315 230.276 34.767 231.846 35.672 233.065C36.577 234.285 37.846 234.894 39.48 234.894ZM39.48 231.916C38.249 231.916 37.633 230.734 37.633 228.372C37.633 227.202 37.783 226.345 38.085 225.798C38.387 225.252 38.852 224.978 39.48 224.978C40.109 224.978 40.574 225.252 40.875 225.798C41.177 226.345 41.328 227.203 41.328 228.372C41.328 230.734 40.712 231.916 39.48 231.916ZM49.433 234.894C51.067 234.894 52.337 234.284 53.241 233.065C54.146 231.846 54.599 230.275 54.599 228.353C54.599 226.455 54.149 224.922 53.251 223.753C52.352 222.584 51.08 222 49.433 222C47.787 222 46.515 222.584 45.616 223.753C44.718 224.922 44.268 226.455 44.268 228.353C44.268 230.276 44.721 231.846 45.626 233.065C46.53 234.285 47.8 234.894 49.433 234.894ZM49.433 231.916C48.202 231.916 47.586 230.734 47.586 228.372C47.586 227.202 47.736 226.345 48.039 225.798C48.34 225.252 48.805 224.978 49.433 224.978C50.062 224.978 50.527 225.252 50.828 225.798C51.13 226.345 51.281 227.203 51.281 228.372C51.281 230.734 50.665 231.916 49.433 231.916ZM59.387 234.894C61.021 234.894 62.29 234.284 63.195 233.065C64.099 231.846 64.552 230.275 64.552 228.353C64.552 226.455 64.102 224.922 63.204 223.753C62.306 222.584 61.034 222 59.387 222C57.74 222 56.468 222.584 55.569 223.753C54.671 224.922 54.222 226.455 54.222 228.353C54.222 230.276 54.674 231.846 55.579 233.065C56.484 234.285 57.753 234.894 59.387 234.894ZM59.387 231.916C58.155 231.916 57.539 230.734 57.539 228.372C57.539 227.202 57.69 226.345 57.992 225.798C58.293 225.252 58.758 224.978 59.387 224.978C60.015 224.978 60.48 225.252 60.782 225.798C61.083 226.345 61.234 227.203 61.234 228.372C61.234 230.734 60.618 231.916 59.387 231.916ZM69.811 234.668V226.845L73.393 231.539H74.072L77.634 226.864V234.668H79.633V222.018H78.954L73.732 228.975L68.511 222.019H67.813V234.668H69.811ZM82.498 234.668V222.226H80.5V234.668H82.498ZM93.62 234.875V222.226H91.622V230.615L84.062 222.019H83.365V234.668H85.363V226.241L92.941 234.875H93.62Z" fill="#4F008C"/>
<path d="M98.49 218.927V237.437" stroke="#4F008C" stroke-linecap="square"/>
<path d="M11.5 249.5H229.5" stroke="#E8E8E8" stroke-linecap="square"/>
<mask id="mask1" mask-type="alpha" maskUnits="userSpaceOnUse" x="88" y="260" width="22" height="22">
<path d="M88.327 260.588H109.107V281.762H88.327V260.588Z" fill="white"/>
</mask>
<g mask="url(#mask1)">
<path fill-rule="evenodd" clip-rule="evenodd" d="M109.107 271.175C109.107 277.021 104.455 281.762 98.717 281.762C92.977 281.762 88.327 277.022 88.327 271.174C88.327 265.328 92.978 260.587 98.717 260.587C104.455 260.587 109.107 265.328 109.107 271.175Z" fill="#0F5CA5"/>
</g>
<path fill-rule="evenodd" clip-rule="evenodd" d="M101.012 267.178L102.359 267.175V264.948C101.708 264.879 101.053 264.845 100.398 264.847C98.455 264.844 97.127 266.005 97.127 268.14V269.98L94.93 269.976V272.473L97.127 272.475V278.875L99.753 278.879V272.475L101.943 272.478L102.271 269.985L99.753 269.982V268.392C99.753 267.667 99.956 267.177 101.012 267.178Z" fill="#FEFEFE"/>
<mask id="mask2" mask-type="alpha" maskUnits="userSpaceOnUse" x="112" y="260" width="22" height="22">
<path d="M112.471 260.592H133.251V281.887H112.471V260.592Z" fill="white"/>
</mask>
<g mask="url(#mask2)">
<path fill-rule="evenodd" clip-rule="evenodd" d="M133.251 271.24C133.251 277.12 128.599 281.887 122.862 281.887C117.124 281.887 112.472 277.12 112.472 271.24C112.472 265.36 117.123 260.591 122.861 260.591C128.598 260.591 133.251 265.359 133.251 271.241" fill="#0098D3"/>
</g>
<path fill-rule="evenodd" clip-rule="evenodd" d="M127.914 269.38C127.819 272.944 125.014 275.419 120.76 275.569C119.017 275.647 117.76 275.181 116.598 274.639C117.854 274.795 119.504 274.407 120.372 273.787C119.116 273.71 118.342 273.169 117.953 272.313C118.342 272.393 118.728 272.315 119.017 272.315C117.854 272.005 117.085 271.462 116.986 270.221C117.28 270.376 117.66 270.456 118.048 270.456C117.179 270.066 116.598 268.593 117.28 267.664C118.535 268.751 120.079 269.683 122.596 269.84C121.921 267.668 125.596 266.51 127.046 267.982C127.721 267.907 128.207 267.674 128.688 267.524C128.495 268.063 128.108 268.374 127.626 268.683C128.108 268.604 128.594 268.53 128.98 268.374C128.88 268.76 128.4 269.07 127.914 269.38Z" fill="#FEFEFE"/>
<path d="M50.322 281.356C56.0017 281.356 60.606 276.752 60.606 271.072C60.606 265.392 56.0017 260.788 50.322 260.788C44.6423 260.788 40.038 265.392 40.038 271.072C40.038 276.752 44.6423 281.356 50.322 281.356Z" fill="url(#paint0_linear)"/>
<path d="M53.087 264.901H47.557C47.112 264.898 46.6708 264.984 46.2592 265.153C45.8475 265.322 45.4736 265.571 45.159 265.886C44.5189 266.526 44.1567 267.393 44.151 268.298V273.833C44.165 275.724 45.688 277.249 47.557 277.242H53.087C53.533 277.245 53.975 277.159 54.3874 276.989C54.7998 276.819 55.1743 276.569 55.489 276.253C56.128 275.613 56.489 274.743 56.492 273.833V268.311C56.478 266.419 54.956 264.895 53.087 264.901ZM55.398 273.845C55.3955 274.461 55.1504 275.051 54.716 275.487C54.5024 275.702 54.2484 275.872 53.9685 275.987C53.6887 276.103 53.3887 276.161 53.086 276.16H47.556C47.2534 276.161 46.9536 276.102 46.674 275.987C46.3944 275.871 46.1404 275.701 45.927 275.487C45.4926 275.051 45.2475 274.461 45.245 273.845V268.298C45.2475 267.682 45.4926 267.092 45.927 266.656C46.1406 266.441 46.3946 266.271 46.6745 266.156C46.9543 266.04 47.2543 265.982 47.557 265.983H53.087C53.699 265.98 54.287 266.223 54.72 266.661C55.154 267.097 55.398 267.691 55.398 268.311V273.845Z" fill="white"/>
<path d="M50.288 268.192C49.7198 268.199 49.1663 268.373 48.697 268.693C48.2278 269.014 47.8638 269.466 47.6509 269.993C47.4379 270.519 47.3856 271.097 47.5004 271.654C47.6152 272.21 47.8921 272.72 48.2962 273.12C48.7002 273.519 49.2134 273.79 49.7712 273.899C50.3289 274.007 50.9063 273.948 51.4306 273.729C51.9549 273.511 52.4028 273.141 52.7178 272.669C53.0328 272.196 53.201 271.64 53.201 271.072C53.1997 270.691 53.1232 270.315 52.976 269.964C52.8287 269.613 52.6135 269.294 52.3429 269.027C52.0722 268.759 51.7513 268.548 51.3987 268.404C51.0461 268.261 50.6686 268.189 50.288 268.192ZM50.288 272.962C49.9152 272.958 49.5519 272.843 49.244 272.633C48.9361 272.423 48.6973 272.126 48.5576 271.78C48.4179 271.434 48.3836 271.055 48.459 270.69C48.5344 270.325 48.7161 269.99 48.9813 269.728C49.2465 269.466 49.5833 269.288 49.9493 269.217C50.3153 269.146 50.6942 269.184 51.0383 269.328C51.3823 269.472 51.6762 269.714 51.8829 270.024C52.0897 270.335 52.2 270.699 52.2 271.072C52.1987 271.322 52.1482 271.569 52.0514 271.799C51.9545 272.029 51.8133 272.238 51.6357 272.413C51.4582 272.589 51.2477 272.728 51.0165 272.822C50.7852 272.916 50.5377 272.964 50.288 272.962Z" fill="white"/>
<path fill-rule="evenodd" clip-rule="evenodd" d="M54.03 266.547C53.9208 266.547 53.8127 266.569 53.712 266.611C53.6112 266.653 53.5198 266.714 53.443 266.792C53.3663 266.868 53.3054 266.958 53.2639 267.058C53.2224 267.157 53.201 267.264 53.201 267.372C53.201 267.48 53.2224 267.587 53.2639 267.686C53.3054 267.786 53.3663 267.876 53.443 267.952C53.5584 268.065 53.7047 268.142 53.8635 268.173C54.0223 268.204 54.1867 268.188 54.3362 268.126C54.4857 268.064 54.6138 267.96 54.7044 267.826C54.7951 267.692 54.8443 267.534 54.846 267.372C54.8461 267.264 54.8249 267.157 54.7835 267.058C54.7422 266.958 54.6815 266.868 54.605 266.792C54.5281 266.714 54.4365 266.653 54.3356 266.611C54.2346 266.568 54.1263 266.547 54.017 266.547" fill="white"/>
<mask id="mask3" mask-type="alpha" maskUnits="userSpaceOnUse" x="64" y="261" width="21" height="22">
<path d="M64.183 261.467H84.963V282.217H64.183V261.467Z" fill="white"/>
</mask>
<g mask="url(#mask3)">
<path fill-rule="evenodd" clip-rule="evenodd" d="M84.964 271.842C84.964 277.572 80.312 282.218 74.574 282.218C68.836 282.218 64.184 277.572 64.184 271.842C64.183 266.112 68.835 261.468 74.573 261.468C80.311 261.468 84.963 266.113 84.963 271.843" fill="#FFE91B"/>
</g>
<path fill-rule="evenodd" clip-rule="evenodd" d="M69.345 274.284C69.707 274.226 70.041 274.078 70.332 273.873C70.584 273.711 70.82 273.489 71.028 273.224C71.391 272.784 71.571 272.354 71.6 272.281V272.267C71.697 272.075 71.71 271.897 71.654 271.765C71.544 271.499 71.209 271.382 70.974 271.307L70.932 271.292C70.8937 271.28 70.8563 271.265 70.82 271.248C70.6869 271.197 70.5642 271.121 70.458 271.026C70.347 270.924 70.332 270.82 70.347 270.761C70.3582 270.715 70.3787 270.671 70.4072 270.633C70.4358 270.595 70.4718 270.564 70.513 270.54C70.639 270.467 70.806 270.437 70.903 270.496C71.223 270.659 71.488 270.703 71.683 270.6C71.7088 270.585 71.7301 270.564 71.7447 270.538C71.7593 270.512 71.7667 270.483 71.766 270.453C71.766 270.363 71.752 270.276 71.752 270.188V270.173C71.711 269.406 71.654 268.447 71.877 267.903C72.0273 267.541 72.2448 267.21 72.518 266.929C73.0429 266.419 73.7469 266.134 74.479 266.137H74.688C74.924 266.137 75.384 266.167 75.885 266.403C76.177 266.537 76.427 266.713 76.65 266.934C76.914 267.2 77.137 267.524 77.29 267.909C77.527 268.455 77.458 269.413 77.416 270.166V270.209C77.416 270.269 77.402 270.312 77.402 270.371V270.444C77.402 270.504 77.43 270.564 77.485 270.593C77.5455 270.622 77.6119 270.637 77.679 270.636H77.707C77.861 270.623 78.027 270.578 78.209 270.49C78.279 270.46 78.349 270.46 78.375 270.46C78.445 270.46 78.501 270.475 78.57 270.506C78.723 270.564 78.836 270.683 78.836 270.801C78.836 270.844 78.821 270.919 78.736 271.006C78.654 271.096 78.528 271.17 78.349 271.256C78.3188 271.274 78.285 271.285 78.25 271.288L78.209 271.301C77.986 271.374 77.638 271.491 77.527 271.758C77.471 271.891 77.485 272.068 77.584 272.273C77.584 272.288 77.584 272.288 77.596 272.304C77.722 272.599 78.418 274.044 79.851 274.298C79.906 274.311 79.948 274.357 79.948 274.43C79.948 274.458 79.934 274.49 79.934 274.503C79.894 274.593 79.795 274.68 79.628 274.768C79.406 274.886 79.058 274.975 78.598 275.047C78.5527 275.064 78.5141 275.095 78.488 275.136C78.459 275.18 78.446 275.283 78.418 275.416L78.404 275.49C78.389 275.55 78.375 275.622 78.362 275.682C78.334 275.755 78.293 275.799 78.209 275.799C78.167 275.799 78.098 275.799 77.986 275.769C77.832 275.74 77.638 275.695 77.388 275.694C77.236 275.694 77.096 275.709 76.958 275.739C76.664 275.797 76.4 275.974 76.122 276.181C75.745 276.459 75.328 276.784 74.688 276.783H74.562C73.924 276.781 73.505 276.457 73.115 276.176C72.852 275.986 72.6 275.792 72.295 275.733C72.1529 275.703 72.0081 275.688 71.863 275.688C71.613 275.688 71.418 275.731 71.278 275.761H71.266C71.196 275.776 71.112 275.791 71.043 275.791C70.96 275.791 70.903 275.761 70.875 275.671C70.83 275.593 70.7973 275.509 70.778 275.421L70.764 275.376C70.736 275.258 70.723 275.156 70.68 275.096C70.6736 275.075 70.6609 275.057 70.6437 275.044C70.6264 275.031 70.6056 275.024 70.584 275.023C70.2257 274.972 69.875 274.878 69.54 274.741C69.387 274.668 69.275 274.579 69.233 274.489C69.219 274.461 69.219 274.431 69.219 274.416V274.388C69.275 274.328 69.303 274.298 69.345 274.284Z" fill="#FEFEFE"/>
<path d="M69.345 274.284C69.707 274.226 70.041 274.078 70.332 273.873C70.584 273.711 70.82 273.489 71.028 273.224C71.391 272.784 71.571 272.354 71.6 272.281V272.267C71.697 272.075 71.71 271.897 71.654 271.765C71.544 271.499 71.209 271.382 70.974 271.307L70.932 271.292C70.8937 271.28 70.8563 271.265 70.82 271.248C70.6869 271.197 70.5642 271.121 70.458 271.026C70.347 270.924 70.332 270.82 70.347 270.761C70.3582 270.715 70.3787 270.671 70.4072 270.633C70.4358 270.595 70.4718 270.564 70.513 270.54C70.639 270.467 70.806 270.437 70.903 270.496C71.223 270.659 71.488 270.703 71.683 270.6C71.7088 270.585 71.7301 270.564 71.7447 270.538C71.7593 270.512 71.7667 270.483 71.766 270.453C71.766 270.363 71.752 270.276 71.752 270.188V270.173C71.711 269.406 71.654 268.447 71.877 267.903C72.0273 267.541 72.2448 267.21 72.518 266.929C73.0429 266.419 73.7469 266.134 74.479 266.137H74.688C74.924 266.137 75.384 266.167 75.885 266.403C76.177 266.537 76.427 266.713 76.65 266.934C76.914 267.2 77.137 267.524 77.29 267.909C77.527 268.455 77.458 269.413 77.416 270.166V270.209C77.416 270.269 77.402 270.312 77.402 270.371V270.444C77.402 270.504 77.43 270.564 77.485 270.593C77.5455 270.622 77.6119 270.637 77.679 270.636H77.707C77.861 270.623 78.027 270.578 78.209 270.49C78.279 270.46 78.349 270.46 78.375 270.46C78.445 270.46 78.501 270.475 78.57 270.506C78.723 270.564 78.836 270.683 78.836 270.801C78.836 270.844 78.821 270.919 78.736 271.006C78.654 271.096 78.528 271.17 78.349 271.256C78.3188 271.274 78.285 271.285 78.25 271.288L78.209 271.301C77.986 271.374 77.638 271.491 77.527 271.758C77.471 271.891 77.485 272.068 77.584 272.273C77.584 272.288 77.584 272.288 77.596 272.304C77.722 272.599 78.418 274.044 79.851 274.298C79.906 274.311 79.948 274.357 79.948 274.43C79.948 274.458 79.934 274.49 79.934 274.503C79.894 274.593 79.795 274.68 79.628 274.768C79.406 274.886 79.058 274.975 78.598 275.047C78.5527 275.064 78.5141 275.095 78.488 275.136C78.459 275.18 78.446 275.283 78.418 275.416L78.404 275.49C78.389 275.55 78.375 275.622 78.362 275.682C78.334 275.755 78.293 275.799 78.209 275.799C78.167 275.799 78.098 275.799 77.986 275.769C77.832 275.74 77.638 275.695 77.388 275.694C77.236 275.694 77.096 275.709 76.958 275.739C76.664 275.797 76.4 275.974 76.122 276.181C75.745 276.459 75.328 276.784 74.688 276.783H74.562C73.924 276.781 73.505 276.457 73.115 276.176C72.852 275.986 72.6 275.792 72.295 275.733C72.1529 275.703 72.0081 275.688 71.863 275.688C71.613 275.688 71.418 275.731 71.278 275.761H71.266C71.196 275.776 71.112 275.791 71.043 275.791C70.96 275.791 70.903 275.761 70.875 275.671C70.83 275.593 70.7973 275.509 70.778 275.421L70.764 275.376C70.736 275.258 70.723 275.156 70.68 275.096C70.6736 275.075 70.6609 275.057 70.6437 275.044C70.6264 275.031 70.6056 275.024 70.584 275.023C70.2257 274.972 69.875 274.878 69.54 274.741C69.387 274.668 69.275 274.579 69.233 274.489C69.219 274.461 69.219 274.431 69.219 274.416V274.388C69.275 274.328 69.303 274.298 69.345 274.284" stroke="#1F140F" stroke-width="0.603"/>
<path d="M152.471 272.413V269.503H147.344V260.019H144.114V272.413H152.471ZM156.757 272.413V260.02H153.527V272.414H156.757V272.413ZM164.386 272.413C166.771 272.413 168.574 270.911 168.574 268.733C168.574 267.268 167.766 266.273 166.508 265.766C166.978 265.24 167.259 264.526 167.259 263.681C167.259 261.484 165.438 260.019 163.071 260.019H158.602V272.413H164.386ZM162.865 264.921H161.7V262.742H162.864C163.634 262.742 164.104 263.174 164.104 263.832C164.104 264.489 163.634 264.921 162.864 264.921H162.865ZM164.179 269.691H161.701V267.512H164.179C164.931 267.512 165.419 267.869 165.419 268.602C165.419 269.334 164.931 269.691 164.179 269.691ZM172.916 272.413V268.563H174.25L177.048 272.413H180.653L177.386 267.813C178.587 267.08 179.339 265.841 179.339 264.283C179.339 261.653 177.273 260.019 174.55 260.019H169.686V272.413H172.916ZM174.569 265.747H172.916V262.837H174.569C175.47 262.837 176.052 263.418 176.052 264.282C176.052 265.165 175.47 265.747 174.569 265.747ZM190.122 272.413V269.503H184.526V267.343H188.357V264.639H184.527V262.93H189.897V260.02H181.297V272.413H190.122ZM195.629 272.639C198.183 272.639 200.174 271.212 200.174 268.77C200.174 266.949 199.066 265.897 197 265.033L195.573 264.433C194.803 264.113 194.503 263.888 194.503 263.418C194.503 262.855 194.972 262.63 195.61 262.63C196.55 262.63 197.094 263.118 197.657 263.944L199.817 262.292C199.103 260.864 197.732 259.794 195.573 259.794C193.056 259.794 191.235 261.24 191.235 263.456C191.235 265.202 192.399 266.329 194.371 267.193L195.648 267.756C196.512 268.132 196.906 268.32 196.906 268.902C196.906 269.502 196.493 269.803 195.629 269.803C194.239 269.803 193.469 269.014 192.869 268.207L190.69 269.86C191.573 271.53 193.357 272.639 195.63 272.639H195.629Z" fill="#D2227A"/>
<path d="M148.552 281.356V280.336H144.903V278.094H147.553V277.106H144.903V275.293H148.423V274.273H143.766V281.356H148.552ZM155.709 281.474V274.274H154.572V279.049L150.269 274.155H149.871V281.355H151.009V276.559L155.323 281.474H155.709ZM161.643 281.356V278.619H162.942L164.959 281.356H166.257L164.133 278.437C164.54 278.29 164.89 278.02 165.136 277.664C165.376 277.314 165.496 276.906 165.496 276.441C165.496 275.804 165.274 275.284 164.83 274.88C164.387 274.476 163.807 274.273 163.092 274.273H160.506V281.356H161.643ZM163.07 277.611H161.643V275.282H163.07C163.457 275.282 163.762 275.389 163.988 275.604C164.213 275.819 164.326 276.101 164.326 276.452C164.326 276.802 164.213 277.083 163.988 277.294C163.762 277.505 163.457 277.611 163.07 277.611ZM172.063 281.356V280.336H168.414V278.094H171.064V277.106H168.414V275.293H171.934V274.273H167.277V281.356H172.063ZM175.603 281.356C176.748 281.356 177.677 281.023 178.388 280.358C179.1 279.692 179.456 278.841 179.456 277.804C179.456 276.752 179.102 275.901 178.394 275.25C177.686 274.599 176.756 274.273 175.604 274.273H173.383V281.356H175.603ZM175.593 280.336H174.52V275.304H175.593C176.416 275.304 177.07 275.531 177.557 275.985C178.043 276.439 178.287 277.045 178.287 277.804C178.287 278.555 178.042 279.164 177.551 279.634C177.061 280.102 176.409 280.336 175.593 280.336ZM187.794 281.356V280.122H188.76V279.145H187.794V276.967H186.657V279.145H184.543L186.549 274.273H185.379L183.115 279.811V280.121H186.657V281.356H187.794ZM193.149 281.474C193.857 281.474 194.504 281.306 195.091 280.969C195.662 280.649 196.133 280.178 196.454 279.607V277.611H193.138V278.619H195.316V279.381C194.851 280.097 194.146 280.454 193.202 280.454C192.444 280.454 191.82 280.202 191.33 279.698C190.84 279.194 190.595 278.562 190.595 277.804C190.595 277.053 190.833 276.43 191.308 275.937C191.784 275.443 192.394 275.197 193.138 275.197C194.018 275.197 194.723 275.568 195.252 276.312L196.078 275.636C195.37 274.649 194.393 274.156 193.148 274.156C192.118 274.141 191.233 274.496 190.493 275.218C189.753 275.94 189.393 276.806 189.414 277.815C189.4 278.83 189.76 279.698 190.493 280.417C191.226 281.136 192.111 281.488 193.149 281.474Z" fill="#4F008C"/>
<path d="M99.079 209V201.74H97.913V209H99.079ZM106.889 209.121V201.74H105.723V206.635L101.312 201.619H100.905V209H102.071V204.083L106.493 209.121H106.889ZM112.103 209.121C112.77 209.121 113.377 208.972 113.923 208.675C114.457 208.39 114.903 207.967 115.216 207.449L114.336 206.8C113.801 207.636 113.06 208.054 112.114 208.054C111.366 208.054 110.743 207.799 110.244 207.29C109.745 206.78 109.496 206.14 109.496 205.37C109.496 204.6 109.746 203.96 110.244 203.45C110.743 202.94 111.366 202.686 112.114 202.686C113.06 202.686 113.801 203.104 114.336 203.94L115.216 203.291C114.899 202.776 114.451 202.355 113.918 202.07C113.361 201.768 112.737 201.612 112.103 201.619C111.062 201.604 110.16 201.967 109.397 202.708C108.634 203.448 108.264 204.336 108.286 205.37C108.264 206.404 108.634 207.291 109.397 208.032C110.16 208.772 111.062 209.136 112.103 209.121ZM121.101 209V207.955H117.779V201.74H116.613V209H121.101ZM125.193 209.121C126.066 209.121 126.779 208.846 127.333 208.296C127.886 207.746 128.163 207.002 128.163 206.063V201.74H126.997V206.14C126.997 206.741 126.832 207.21 126.502 207.548C126.172 207.885 125.736 208.054 125.193 208.054C124.643 208.054 124.201 207.885 123.868 207.548C123.534 207.211 123.367 206.741 123.367 206.14V201.74H122.201V206.063C122.201 207.002 122.478 207.746 123.031 208.296C123.585 208.846 124.306 209.121 125.193 209.121ZM132.992 209V206.074L135.5 201.74H134.213L132.409 204.897L130.616 201.74H129.318L131.826 206.074V209H132.992ZM141.638 209V207.955H137.898V205.656H140.615V204.644H137.898V202.785H141.506V201.74H136.732V209H141.638Z" fill="#4F008C"/>
<path d="M32.775 78V35.1H29.2L11.65 40.885L14.315 50.765L21.595 48.36V78H32.775ZM53.287 78.78C58.14 78.78 62.213 77.34 65.507 74.458C68.8 71.576 70.447 67.947 70.447 63.57C70.533 59.54 69.093 56.203 66.124 53.56C63.156 50.917 59.808 49.638 56.082 49.725C54.868 49.725 53.503 49.877 51.987 50.18V45.175H67.977V35.1H41.392V59.345H51.597C56.537 59.345 59.007 60.797 59.007 63.7C59.007 65.217 58.443 66.398 57.317 67.243C56.19 68.088 54.695 68.51 52.832 68.51C51.055 68.51 49.528 68.088 48.249 67.243C46.971 66.398 45.682 65 44.382 63.05L36.647 68.51C38.12 71.717 40.319 74.23 43.244 76.05C46.169 77.87 49.517 78.78 53.287 78.78Z" fill="#4F008C"/>
<path d="M98.086 78.601L98.55 78.6C102.083 78.6 105.283 77.767 108.15 76.1C111.017 74.4 113.217 72.183 114.75 69.45V59.05H98.45V66.45H106.15V68C104.45 69.967 102.033 70.95 98.9 70.95C96 70.95 93.692 70.083 91.975 68.35C90.258 66.617 89.4 64.333 89.4 61.5C89.4 58.7 90.208 56.467 91.825 54.8C93.442 53.133 95.633 52.3 98.4 52.3C101.8 52.3 104.583 53.817 106.75 56.85L112.75 51.75C109.45 46.85 104.717 44.4 98.55 44.4C93.583 44.333 89.333 45.983 85.8 49.35C82.267 52.717 80.533 56.767 80.6 61.5C80.533 66.267 82.267 70.325 85.8 73.675C89.333 77.025 93.583 78.667 98.55 78.6L98.086 78.601ZM127.25 78V45H118.65V78H127.25ZM148.636 78.601L149.1 78.6C152.633 78.6 155.833 77.767 158.7 76.1C161.567 74.4 163.767 72.183 165.3 69.45V59.05H149V66.45H156.7V68C155 69.967 152.583 70.95 149.45 70.95C146.55 70.95 144.242 70.083 142.525 68.35C140.808 66.617 139.95 64.333 139.95 61.5C139.95 58.7 140.758 56.467 142.375 54.8C143.992 53.133 146.183 52.3 148.95 52.3C152.35 52.3 155.133 53.817 157.3 56.85L163.3 51.75C160 46.85 155.267 44.4 149.1 44.4C144.133 44.333 139.883 45.983 136.35 49.35C132.817 52.717 131.083 56.767 131.15 61.5C131.083 66.267 132.817 70.325 136.35 73.675C139.883 77.025 144.133 78.667 149.1 78.6L148.636 78.601ZM174.75 78L175.95 75.25H187.8L189 78H198.25L183.25 44.4H180.5L165.5 78H174.75ZM184.75 68.35H179L181.9 60.7L184.75 68.35ZM211.4 78.6C214.9 78.6 217.792 77.667 220.075 75.8C222.358 73.933 223.5 71.433 223.5 68.3C223.5 66 222.825 64.075 221.475 62.525C220.125 60.975 217.983 59.583 215.05 58.35L211.25 56.75C210.183 56.317 209.442 55.908 209.025 55.525C208.608 55.142 208.4 54.65 208.4 54.05C208.4 52.65 209.383 51.95 211.35 51.95C212.483 51.95 213.467 52.225 214.3 52.775C215.133 53.325 215.967 54.217 216.8 55.45L222.55 51.05C220.35 46.617 216.583 44.4 211.25 44.4C207.85 44.4 205.075 45.3 202.925 47.1C200.775 48.9 199.7 51.25 199.7 54.15C199.7 58.317 202.483 61.633 208.05 64.1L211.45 65.6C212.817 66.2 213.717 66.683 214.15 67.05C214.583 67.417 214.8 67.95 214.8 68.65C214.8 70.25 213.667 71.05 211.4 71.05C209.833 71.05 208.483 70.692 207.35 69.975C206.217 69.258 205.117 68.2 204.05 66.8L198.25 71.2C199.45 73.5 201.208 75.308 203.525 76.625C205.842 77.942 208.467 78.6 211.4 78.6Z" fill="#DB167A"/>
<path d="M14.376 31V27.272H16.184C17.294 27.272 18.205 26.952 18.92 26.312C19.635 25.672 19.992 24.851 19.992 23.848C19.992 22.835 19.635 22.013 18.92 21.384C18.205 20.754 17.293 20.44 16.184 20.44H12.216V31H14.376ZM16.184 25.384H14.376V22.344H16.184C16.664 22.344 17.051 22.483 17.344 22.76C17.637 23.037 17.784 23.4 17.784 23.848C17.784 24.307 17.643 24.678 17.36 24.96C17.077 25.243 16.685 25.384 16.184 25.384ZM28.504 31V29.048H23.88V20.44H21.72V31H28.504ZM31.416 31L32.008 29.624H36.328L36.92 31H39.24L34.536 20.248H33.816L29.096 31H31.416ZM35.576 27.848H32.76L34.168 24.28L35.576 27.848ZM49.672 31.192V20.44H47.512V26.744L41.384 20.248H40.68V31H42.84V24.664L48.952 31.192H49.672Z" fill="#4F008C"/>
<path d="M90.126 156L100.851 141.635C102.887 138.862 104.361 136.543 105.271 134.68C106.224 132.817 106.701 130.693 106.701 128.31C106.701 123.76 105.065 119.957 101.793 116.902C98.522 113.847 94.654 112.32 90.191 112.32C85.857 112.233 82.001 113.75 78.621 116.87C75.241 119.99 73.594 123.76 73.681 128.18C73.681 132.123 74.948 135.47 77.483 138.222C80.018 140.974 83.019 142.588 86.486 143.065L76.93 156H90.125H90.126ZM90.191 133.77C88.674 133.77 87.385 133.25 86.323 132.21C85.262 131.17 84.731 129.848 84.731 128.245C84.731 126.642 85.261 125.298 86.323 124.215C87.385 123.132 88.674 122.59 90.191 122.59C91.707 122.59 92.997 123.132 94.058 124.215C95.12 125.298 95.651 126.642 95.651 128.245C95.651 129.805 95.131 131.115 94.091 132.177C93.051 133.239 91.751 133.77 90.191 133.77ZM111.924 156.78C114.004 156.78 115.727 156.087 117.092 154.7C118.457 153.313 119.139 151.58 119.139 149.5C119.139 147.42 118.457 145.687 117.092 144.3C115.727 142.913 114.004 142.22 111.924 142.22C109.758 142.22 107.981 142.913 106.594 144.3C105.208 145.687 104.514 147.42 104.514 149.5C104.514 151.58 105.208 153.313 106.594 154.7C107.981 156.087 109.758 156.78 111.924 156.78ZM135.283 156L146.008 141.635C148.045 138.862 149.518 136.543 150.428 134.68C151.381 132.817 151.858 130.693 151.858 128.31C151.858 123.76 150.222 119.957 146.95 116.902C143.679 113.847 139.811 112.32 135.348 112.32C131.015 112.233 127.158 113.75 123.778 116.87C120.398 119.99 118.751 123.76 118.838 128.18C118.838 132.123 120.105 135.47 122.64 138.222C125.175 140.974 128.176 142.588 131.643 143.065L122.088 156H135.283ZM135.348 133.77C133.831 133.77 132.542 133.25 131.48 132.21C130.419 131.17 129.888 129.848 129.888 128.245C129.888 126.642 130.418 125.298 131.48 124.215C132.542 123.132 133.831 122.59 135.348 122.59C136.865 122.59 138.154 123.132 139.215 124.215C140.277 125.298 140.808 126.642 140.808 128.245C140.808 129.805 140.288 131.115 139.248 132.177C138.208 133.239 136.908 133.77 135.348 133.77ZM169.56 156L180.285 141.635C182.322 138.862 183.795 136.543 184.705 134.68C185.659 132.817 186.135 130.693 186.135 128.31C186.135 123.76 184.5 119.957 181.228 116.902C177.956 113.847 174.088 112.32 169.625 112.32C165.292 112.233 161.435 113.75 158.055 116.87C154.675 119.99 153.029 123.76 153.115 128.18C153.115 132.123 154.383 135.47 156.918 138.222C159.453 140.974 162.454 142.588 165.92 143.065L156.366 156H169.561H169.56ZM169.625 133.77C168.109 133.77 166.82 133.25 165.758 132.21C164.696 131.17 164.165 129.848 164.165 128.245C164.165 126.642 164.696 125.298 165.758 124.215C166.82 123.132 168.108 122.59 169.625 122.59C171.142 122.59 172.431 123.132 173.493 124.215C174.555 125.298 175.085 126.642 175.085 128.245C175.085 129.805 174.565 131.115 173.525 132.177C172.485 133.239 171.185 133.77 169.625 133.77ZM206.439 156.78C212.072 156.78 216.449 154.678 219.569 150.475C222.689 146.272 224.249 140.855 224.249 134.225C224.249 127.682 222.699 122.395 219.601 118.365C216.503 114.335 212.116 112.32 206.439 112.32C200.762 112.32 196.375 114.335 193.276 118.365C190.178 122.395 188.629 127.682 188.629 134.225C188.629 140.855 190.189 146.272 193.309 150.475C196.429 154.678 200.806 156.78 206.439 156.78ZM206.439 146.51C202.192 146.51 200.069 142.437 200.069 134.29C200.069 130.26 200.589 127.303 201.629 125.418C202.669 123.532 204.272 122.59 206.439 122.59C208.606 122.59 210.209 123.532 211.249 125.417C212.289 127.302 212.809 130.26 212.809 134.29C212.809 142.437 210.686 146.51 206.439 146.51Z" fill="#4F008C"/>
<path d="M26.772 150.492V146.1C30.228 145.524 32.748 143.256 32.748 139.8C32.748 136.812 30.876 134.796 27.276 133.464L24.576 132.528C23.136 131.952 22.164 131.412 22.164 130.26C22.164 128.892 23.46 128.424 24.756 128.424C26.448 128.424 27.744 129.18 28.896 130.872L32.136 128.424C31.056 126.408 29.328 124.824 26.772 124.32V120.036H22.524V124.392C19.536 125.112 17.412 127.236 17.412 130.224C17.412 133.284 19.572 135.3 22.776 136.488L25.224 137.388C26.844 138.036 27.996 138.612 27.996 139.872C27.996 141.312 26.628 141.996 24.864 141.996C22.56 141.996 20.76 140.808 19.428 138.72L16.152 141.168C17.484 143.688 19.644 145.416 22.524 146.028V150.492H26.772Z" fill="#DB167A"/>
<path d="M98.948 174.132C99.6405 174.141 100.324 173.974 100.934 173.646C101.516 173.335 102.003 172.873 102.344 172.308L101.384 171.6C100.8 172.512 99.992 172.968 98.96 172.968C98.144 172.968 97.464 172.69 96.92 172.134C96.376 171.578 96.104 170.88 96.104 170.04C96.104 169.2 96.376 168.502 96.92 167.946C97.464 167.39 98.144 167.112 98.96 167.112C99.992 167.112 100.8 167.568 101.384 168.48L102.344 167.772C101.998 167.21 101.51 166.751 100.928 166.44C100.321 166.11 99.6391 165.941 98.948 165.948C97.812 165.932 96.828 166.328 95.996 167.136C95.164 167.944 94.76 168.912 94.784 170.04C94.76 171.168 95.164 172.136 95.996 172.944C96.828 173.752 97.812 174.148 98.948 174.132ZM104.492 174L105.056 172.68H108.62L109.184 174H110.552L107.06 165.948H106.628L103.136 174H104.492ZM108.164 171.588H105.512L106.844 168.312L108.164 171.588ZM113.084 174V170.94H114.536L116.792 174H118.244L115.868 170.736C116.348 170.552 116.722 170.264 116.99 169.872C117.258 169.48 117.392 169.024 117.392 168.504C117.392 167.792 117.144 167.21 116.648 166.758C116.152 166.306 115.504 166.08 114.704 166.08H111.812V174H113.084ZM114.68 169.812H113.084V167.208H114.68C115.112 167.208 115.454 167.328 115.706 167.568C115.958 167.808 116.084 168.124 116.084 168.516C116.084 168.908 115.958 169.222 115.706 169.458C115.454 169.694 115.112 169.812 114.68 169.812ZM123.08 174.132C123.841 174.14 124.591 173.945 125.252 173.568C125.89 173.21 126.418 172.682 126.776 172.044V169.812H123.068V170.94H125.504V171.792C124.984 172.592 124.196 172.992 123.14 172.992C122.292 172.992 121.594 172.71 121.046 172.146C120.498 171.582 120.224 170.876 120.224 170.028C120.224 169.188 120.49 168.492 121.022 167.94C121.554 167.388 122.236 167.112 123.068 167.112C124.052 167.112 124.84 167.528 125.432 168.36L126.356 167.604C125.564 166.5 124.472 165.948 123.08 165.948C121.928 165.932 120.938 166.328 120.11 167.136C119.282 167.944 118.88 168.912 118.904 170.04C118.888 171.176 119.29 172.146 120.11 172.95C120.93 173.754 121.92 174.148 123.08 174.132ZM132.008 174.132C133.136 174.148 134.118 173.752 134.954 172.944C135.79 172.136 136.196 171.168 136.172 170.04C136.196 168.912 135.79 167.944 134.954 167.136C134.118 166.328 133.136 165.932 132.008 165.948C130.872 165.932 129.892 166.328 129.068 167.136C128.244 167.944 127.84 168.912 127.856 170.04C127.832 171.168 128.234 172.136 129.062 172.944C129.89 173.752 130.872 174.148 132.008 174.132ZM132.02 172.968C131.196 172.968 130.516 172.69 129.98 172.134C129.444 171.578 129.176 170.876 129.176 170.028C129.176 169.188 129.446 168.492 129.986 167.94C130.526 167.388 131.204 167.112 132.02 167.112C132.828 167.112 133.504 167.39 134.048 167.946C134.592 168.502 134.864 169.196 134.864 170.028C134.864 170.868 134.592 171.568 134.048 172.128C133.504 172.688 132.828 172.968 132.02 172.968ZM142.328 174V170.736H145.472V169.584H142.328V167.22H146.144V166.08H141.056V174H142.328ZM148.676 174V166.08H147.404V174H148.676ZM151.016 174.132C151.728 174.132 152.278 173.954 152.666 173.598C153.054 173.242 153.248 172.72 153.248 172.032V166.08H151.976V171.9C151.976 172.292 151.876 172.568 151.676 172.728C151.476 172.888 151.164 172.968 150.74 172.968C150.596 172.968 150.324 172.948 149.924 172.908V174C150.324 174.088 150.688 174.132 151.016 174.132ZM158.912 174.132C160.04 174.148 161.022 173.752 161.858 172.944C162.694 172.136 163.1 171.168 163.076 170.04C163.1 168.912 162.694 167.944 161.858 167.136C161.022 166.328 160.04 165.932 158.912 165.948C157.776 165.932 156.796 166.328 155.972 167.136C155.148 167.944 154.744 168.912 154.76 170.04C154.736 171.168 155.138 172.136 155.966 172.944C156.794 173.752 157.776 174.148 158.912 174.132ZM158.924 172.968C158.1 172.968 157.42 172.69 156.884 172.134C156.348 171.578 156.08 170.876 156.08 170.028C156.08 169.188 156.35 168.492 156.89 167.94C157.43 167.388 158.108 167.112 158.924 167.112C159.732 167.112 160.408 167.39 160.952 167.946C161.496 168.502 161.768 169.196 161.768 170.028C161.768 170.868 161.496 171.568 160.952 172.128C160.408 172.688 159.732 172.968 158.924 172.968ZM169.232 174V169.02L171.512 172.008H171.944L174.212 169.032V174H175.484V165.948H175.052L171.728 170.376L168.404 165.948H167.96V174H169.232ZM182.828 174V172.86H178.748V170.352H181.712V169.248H178.748V167.22H182.684V166.08H177.476V174H182.828ZM190.832 174.132V166.08H189.56V171.42L184.748 165.948H184.304V174H185.576V168.636L190.4 174.132H190.832ZM195.26 174.132C196.028 174.132 196.662 173.92 197.162 173.496C197.662 173.072 197.912 172.52 197.912 171.84C197.912 171.328 197.762 170.9 197.462 170.556C197.162 170.212 196.68 169.888 196.016 169.584L195.128 169.176C195.093 169.154 195.057 169.134 195.02 169.116C194.864 169.035 194.708 168.955 194.552 168.876C194.462 168.822 194.378 168.76 194.3 168.69C194.18 168.59 194.106 168.494 194.078 168.402C194.046 168.286 194.028 168.168 194.024 168.048C194.024 167.744 194.136 167.508 194.36 167.34C194.584 167.172 194.872 167.088 195.224 167.088C195.904 167.088 196.46 167.408 196.892 168.048L197.78 167.364C197.531 166.931 197.168 166.574 196.73 166.332C196.27 166.074 195.751 165.942 195.224 165.948C194.52 165.948 193.928 166.148 193.448 166.548C192.968 166.948 192.728 167.464 192.728 168.096C192.728 168.6 192.882 169.022 193.19 169.362C193.498 169.702 193.96 170.012 194.576 170.292L195.452 170.7C195.892 170.908 196.196 171.09 196.364 171.246C196.532 171.402 196.616 171.616 196.616 171.888C196.621 172.042 196.59 172.196 196.524 172.336C196.458 172.475 196.36 172.598 196.238 172.692C195.986 172.892 195.656 172.992 195.248 172.992C194.44 172.992 193.748 172.572 193.172 171.732L192.272 172.416C192.571 172.943 193.006 173.381 193.531 173.683C194.057 173.985 194.654 174.14 195.26 174.132ZM202.724 174.132C203.676 174.132 204.454 173.832 205.058 173.232C205.662 172.632 205.964 171.82 205.964 170.796V166.08H204.692V170.88C204.692 171.536 204.512 172.048 204.152 172.416C203.792 172.784 203.316 172.968 202.724 172.968C202.124 172.968 201.642 172.784 201.278 172.416C200.914 172.048 200.732 171.536 200.732 170.88V166.08H199.46V170.796C199.46 171.82 199.762 172.632 200.366 173.232C200.97 173.832 201.756 174.132 202.724 174.132ZM208.496 174L209.06 172.68H212.624L213.188 174H214.556L211.064 165.948H210.632L207.14 174H208.496ZM212.168 171.588H209.516L210.848 168.312L212.168 171.588ZM220.712 174V172.86H217.088V166.08H215.816V174H220.712Z" fill="#4F008C"/>
</g>
<defs>
<filter id="filter0_d" x="-15" y="-13" width="270" height="337" filterUnits="userSpaceOnUse" color-interpolation-filters="sRGB">
<feFlood flood-opacity="0" result="BackgroundImageFix"/>
<feColorMatrix in="SourceAlpha" type="matrix" values="0 0 0 0 0 0 0 0 0 0 0 0 0 0 0 0 0 0 127 0"/>
<feOffset dy="2"/>
<feGaussianBlur stdDeviation="7.5"/>
<feColorMatrix type="matrix" values="0 0 0 0 0.317647 0 0 0 0 0.317647 0 0 0 0 0.317647 0 0 0 0.5 0"/>
<feBlend mode="normal" in2="BackgroundImageFix" result="effect1_dropShadow"/>
<feBlend mode="normal" in="SourceGraphic" in2="effect1_dropShadow" result="shape"/>
</filter>
<linearGradient id="paint0_linear" x1="50.322" y1="278.676" x2="50.322" y2="259.808" gradientUnits="userSpaceOnUse">
<stop stop-color="#FCDE87"/>
<stop offset="0.21" stop-color="#F5B444"/>
<stop offset="0.38" stop-color="#E14D75"/>
<stop offset="0.52" stop-color="#DE3A8D"/>
<stop offset="0.74" stop-color="#804492"/>
<stop offset="1" stop-color="#514F99"/>
</linearGradient>
</defs>
</svg>
