<svg width="32" height="32" viewBox="0 0 32 32" fill="none" xmlns="http://www.w3.org/2000/svg">
<path fill-rule="evenodd" clip-rule="evenodd" d="M3.66675 2.66663C3.11446 2.66663 2.66675 3.11434 2.66675 3.66663V28.3333C2.66675 28.8856 3.11446 29.3333 3.66675 29.3333H10.6667H12.0001H20.0001H21.3334H28.3334C28.8857 29.3333 29.3334 28.8856 29.3334 28.3333V3.66663C29.3334 3.11434 28.8857 2.66663 28.3334 2.66663H21.3334H20.0001H12.0001H10.6667H3.66675ZM10.6667 3.99996H4.00008V28H10.6667V3.99996ZM12.0001 28H20.0001V3.99996H12.0001V28ZM28.0001 28H21.3334V3.99996H28.0001V28ZM5.33342 7.33329C5.33342 6.9651 5.6319 6.66663 6.00009 6.66663H8.66675C9.03494 6.66663 9.33342 6.9651 9.33342 7.33329C9.33342 7.70148 9.03494 7.99996 8.66675 7.99996H6.00009C5.6319 7.99996 5.33342 7.70148 5.33342 7.33329ZM6.00009 9.33329C5.6319 9.33329 5.33342 9.63177 5.33342 9.99996C5.33342 10.3681 5.6319 10.6666 6.00009 10.6666H8.66675C9.03494 10.6666 9.33342 10.3681 9.33342 9.99996C9.33342 9.63177 9.03494 9.33329 8.66675 9.33329H6.00009ZM5.33342 12.6666C5.33342 12.2984 5.6319 12 6.00009 12H8.66675C9.03494 12 9.33342 12.2984 9.33342 12.6666C9.33342 13.0348 9.03494 13.3333 8.66675 13.3333H6.00009C5.6319 13.3333 5.33342 13.0348 5.33342 12.6666ZM6.00009 18.6666C5.6319 18.6666 5.33342 18.9651 5.33342 19.3333V23.3333C5.33342 23.7015 5.6319 24 6.00009 24C6.36828 24 6.66675 23.7015 6.66675 23.3333V19.3333C6.66675 18.9651 6.36828 18.6666 6.00009 18.6666ZM13.3334 7.33329C13.3334 6.9651 13.6319 6.66663 14.0001 6.66663H18.0001C18.3683 6.66663 18.6668 6.9651 18.6668 7.33329C18.6668 7.70148 18.3683 7.99996 18.0001 7.99996H14.0001C13.6319 7.99996 13.3334 7.70148 13.3334 7.33329ZM14.0001 9.33329C13.6319 9.33329 13.3334 9.63177 13.3334 9.99996C13.3334 10.3681 13.6319 10.6666 14.0001 10.6666H18.0001C18.3683 10.6666 18.6668 10.3681 18.6668 9.99996C18.6668 9.63177 18.3683 9.33329 18.0001 9.33329H14.0001ZM13.3334 12.6666C13.3334 12.2984 13.6319 12 14.0001 12H18.0001C18.3683 12 18.6668 12.2984 18.6668 12.6666C18.6668 13.0348 18.3683 13.3333 18.0001 13.3333H14.0001C13.6319 13.3333 13.3334 13.0348 13.3334 12.6666ZM14.0001 18.6666C13.6319 18.6666 13.3334 18.9651 13.3334 19.3333V23.3333C13.3334 23.7015 13.6319 24 14.0001 24C14.3683 24 14.6668 23.7015 14.6668 23.3333V19.3333C14.6668 18.9651 14.3683 18.6666 14.0001 18.6666ZM22.6667 7.33329C22.6667 6.9651 22.9652 6.66663 23.3334 6.66663H26.0001C26.3683 6.66663 26.6667 6.9651 26.6667 7.33329C26.6667 7.70148 26.3683 7.99996 26.0001 7.99996H23.3334C22.9652 7.99996 22.6667 7.70148 22.6667 7.33329ZM23.3334 9.33329C22.9652 9.33329 22.6667 9.63177 22.6667 9.99996C22.6667 10.3681 22.9652 10.6666 23.3334 10.6666H26.0001C26.3683 10.6666 26.6667 10.3681 26.6667 9.99996C26.6667 9.63177 26.3683 9.33329 26.0001 9.33329H23.3334ZM22.6667 12.6666C22.6667 12.2984 22.9652 12 23.3334 12H26.0001C26.3683 12 26.6667 12.2984 26.6667 12.6666C26.6667 13.0348 26.3683 13.3333 26.0001 13.3333H23.3334C22.9652 13.3333 22.6667 13.0348 22.6667 12.6666ZM23.3334 18.6666C22.9652 18.6666 22.6667 18.9651 22.6667 19.3333V23.3333C22.6667 23.7015 22.9652 24 23.3334 24C23.7016 24 24.0001 23.7015 24.0001 23.3333V19.3333C24.0001 18.9651 23.7016 18.6666 23.3334 18.6666Z" fill="#7C6C8A"/>
</svg>
