<svg width="16" height="16" viewBox="0 0 16 16" fill="none" xmlns="http://www.w3.org/2000/svg">
<path d="M8 16C12.4183 16 16 12.4183 16 8C16 3.58172 12.4183 0 8 0C3.58172 0 0 3.58172 0 8C0 12.4183 3.58172 16 8 16Z" fill="#DD0028"/>
<path fill-rule="evenodd" clip-rule="evenodd" d="M11.5411 4.75285C11.1506 4.36233 10.5174 4.36233 10.1269 4.75285L8.19413 6.68564L6.26135 4.75286C5.87082 4.36233 5.23766 4.36233 4.84713 4.75286L4.75285 4.84714C4.36233 5.23766 4.36233 5.87083 4.75285 6.26135L6.68564 8.19414L4.75291 10.1269C4.36239 10.5174 4.36239 11.1506 4.75291 11.5411L4.84719 11.6354C5.23772 12.0259 5.87088 12.0259 6.2614 11.6354L8.19413 9.70263L10.1269 11.6354C10.5174 12.0259 11.1506 12.0259 11.5411 11.6354L11.6354 11.5411C12.0259 11.1506 12.0259 10.5174 11.6354 10.1269L9.70263 8.19414L11.6354 6.26135C12.0259 5.87082 12.0259 5.23766 11.6354 4.84714L11.5411 4.75285Z" fill="white"/>
</svg>
