<svg width="15" height="14" viewBox="0 0 15 14" fill="none" xmlns="http://www.w3.org/2000/svg">
<path fill-rule="evenodd" clip-rule="evenodd" d="M14.0841 11.0568C14.0841 11.4148 13.9241 12.1108 13.7741 12.4389C13.5641 12.9261 13.0042 13.2443 12.5543 13.4929C11.9643 13.8111 11.3644 14 10.6945 14C9.76462 14 8.92473 13.6222 8.07483 13.3139C7.46491 13.0952 6.87499 12.8267 6.32506 12.4886C4.62527 11.4446 2.57553 9.40625 1.52567 7.71591C1.18571 7.16903 0.915744 6.58239 0.695772 5.97585C0.385811 5.13068 0.00585938 4.29545 0.00585938 3.37074C0.00585938 2.70455 0.195835 2.10795 0.515795 1.52131C0.765763 1.07386 1.08572 0.517045 1.57566 0.308239C1.90562 0.159091 2.60553 0 2.96548 0C3.03547 0 3.10547 0 3.17546 0.0298295C3.38543 0.0994318 3.6054 0.586648 3.70539 0.785511C4.02535 1.35227 4.33531 1.92898 4.66527 2.4858C4.82525 2.74432 5.12521 3.0625 5.12521 3.37074C5.12521 3.97727 3.31544 4.86222 3.31544 5.39915C3.31544 5.66761 3.56541 6.01562 3.70539 6.25426C4.71526 8.06392 5.9751 9.31676 7.79487 10.321C8.03484 10.4602 8.3848 10.7088 8.65476 10.7088C9.19469 10.7088 10.0846 8.90909 10.6945 8.90909C11.0045 8.90909 11.3244 9.20739 11.5844 9.36648C12.1443 9.6946 12.7242 10.0028 13.2942 10.321C13.4941 10.4205 13.9841 10.6392 14.0541 10.848C14.0841 10.9176 14.0841 10.9872 14.0841 11.0568Z" fill="#2383DE"/>
</svg>
