<svg width="20" height="21" viewBox="0 0 20 21" fill="none" xmlns="http://www.w3.org/2000/svg">
<path fill-rule="evenodd" clip-rule="evenodd" d="M17.0859 2.92031C15.206 1.03806 12.7059 0.000954973 10.042 0C4.55283 0 0.0854701 4.46689 0.0835601 9.9575C0.0826052 11.7127 0.54147 13.426 1.41288 14.9358L0 20.0965L5.27909 18.7117C6.73351 19.5053 8.37129 19.9231 10.0377 19.9236H10.042C10.0415 19.9236 10.0425 19.9236 10.042 19.9236C15.5302 19.9236 19.9981 15.4562 20 9.96562C20.001 7.30459 18.9662 4.80256 17.0859 2.92031ZM10.042 18.2419H10.0387C8.55369 18.2414 7.09688 17.8422 5.82581 17.0883L5.52356 16.9088L2.39077 17.7305L3.22685 14.676L3.03013 14.3628C2.20169 13.0449 1.76384 11.5217 1.76479 9.95798C1.7667 5.39464 5.47963 1.68171 10.0454 1.68171C12.2561 1.68266 14.3341 2.54453 15.897 4.10925C17.4598 5.67349 18.3197 7.75343 18.3188 9.96467C18.3169 14.5285 14.6039 18.2419 10.042 18.2419ZM14.582 12.0427C14.3332 11.9181 13.1099 11.3164 12.8816 11.2333C12.6534 11.1503 12.4877 11.1087 12.322 11.358C12.1563 11.6072 11.6793 12.1678 11.5342 12.3335C11.389 12.4996 11.2439 12.5202 10.9951 12.3956C10.7463 12.2709 9.94461 12.0083 8.99394 11.1608C8.25431 10.5009 7.75486 9.68629 7.6097 9.43704C7.46455 9.1878 7.59442 9.05314 7.71857 8.92947C7.8303 8.81774 7.96734 8.63869 8.09196 8.49353C8.21659 8.34837 8.25765 8.24428 8.34073 8.07859C8.42382 7.91243 8.38228 7.76727 8.3202 7.64265C8.25813 7.51802 7.76059 6.29327 7.55288 5.79525C7.3509 5.31013 7.14559 5.37602 6.99327 5.3679C6.84811 5.36074 6.68242 5.35931 6.51626 5.35931C6.35057 5.35931 6.08079 5.42138 5.85255 5.67063C5.62431 5.91988 4.98162 6.52199 4.98162 7.74626C4.98162 8.97102 5.87308 10.1542 5.99771 10.3204C6.12233 10.4866 7.75247 12.9996 10.2483 14.0777C10.8418 14.3341 11.3054 14.4874 11.6669 14.602C12.2628 14.7916 12.8052 14.7648 13.234 14.7009C13.712 14.6292 14.7061 14.0987 14.9133 13.5176C15.1206 12.9365 15.1206 12.438 15.0585 12.3344C14.9964 12.2299 14.8307 12.1673 14.582 12.0427Z" fill="white"/>
</svg>
