<svg width="32" height="32" viewBox="0 0 32 32" fill="none" xmlns="http://www.w3.org/2000/svg">
<path d="M5.73331 30.1334H1.99998C1.59998 30.1334 1.33331 29.8667 1.33331 29.6001V19.6001C1.33331 19.3334 1.59998 19.0667 1.99998 19.0667H5.73331C6.26665 19.0667 6.79998 19.6001 6.79998 20.1334V29.2001C6.79998 29.6001 6.26665 30.1334 5.73331 30.1334ZM2.66665 28.9334H5.59998V20.1334H2.66665V28.9334Z" fill="#E92070"/>
<path d="M18.2667 30.2668C16.4 30.2668 12.8 29.8668 10 29.6001C8.40002 29.4668 6.93335 29.2001 6.26669 29.2001C6.00002 29.2001 5.73335 28.9334 5.73335 28.5334V20.8001C5.73335 20.5334 5.86668 20.2668 6.13335 20.2668C6.93335 20.0001 8.66669 19.4668 10.5334 19.4668C11.3334 19.4668 12.1334 19.6001 12.9334 19.7334C15.3334 20.4001 17.7334 20.5334 18.9334 20.5334C19.7334 20.5334 20.4 20.5334 20.9334 20.4001C22 20.2668 22.8 20.6668 23.2 21.3334C23.4667 21.7334 23.4667 22.1334 23.4667 22.5334C24.6667 22.1334 26.2667 21.3334 27.2 20.8001C27.7333 20.5334 28.1334 20.4001 28.6667 20.4001C29.7334 20.4001 30.5334 21.2001 30.6667 21.8668C30.9334 22.9334 30.4 23.8668 29.0667 24.5334C28.8 24.6668 28.2667 25.0668 27.6 25.4668C24.2667 27.6001 20.9334 29.7334 19.3334 30.0001C18.8 30.2668 18.5333 30.2668 18.2667 30.2668ZM6.80002 28.0001C7.60002 28.1334 8.80002 28.2668 10.1334 28.4001C13.4667 28.8001 17.7334 29.2001 18.9334 29.0668C20.4 28.8001 24.6667 26.1334 26.6667 24.8001C27.3333 24.4001 27.8667 24.0001 28.1334 23.8668C29.3334 23.2001 29.2 22.6668 29.2 22.4001C29.2 22.2668 28.9333 21.8668 28.4 21.8668C28.1334 21.8668 27.8667 22.0001 27.6 22.1334C26.1334 23.0668 22.6667 24.2668 22.5333 24.4001C22.2667 24.5334 22 24.4001 21.8667 24.2668C21.7334 24.1334 21.6 23.7334 21.8667 23.6001C22.1334 23.0668 22.2667 22.5334 22 22.2668C21.8667 22.0001 21.4667 21.8668 20.9334 21.8668C20.2667 21.8668 19.6 22.0001 18.8 22.0001C17.2 22.0001 14.8 21.8668 12.4 21.2001C11.7334 21.0668 11.0667 20.9334 10.4 20.9334C9.06669 20.9334 7.73335 21.2001 6.80002 21.4668V28.0001Z" fill="#E92070"/>
<path d="M15.4666 25.7334H15.3333C15.0666 25.6 14.8 25.3334 14.9333 25.0667C15.2 24.4 15.6 24.1334 19.0666 24C21.7333 23.8667 22 23.2 22 23.2C22 22.9334 22.2666 22.6667 22.6666 22.6667C23.0666 22.6667 23.2 23.0667 23.2 23.3334C23.2 23.7334 22.6666 24.9334 19.2 25.2C17.3333 25.2 16.2666 25.3334 16 25.4667C15.8666 25.7334 15.6 25.7334 15.4666 25.7334Z" fill="#E92070"/>
<path d="M15.8667 19.0667C10.9333 19.0667 7.06667 15.0667 7.06667 10.2667C7.06667 5.33337 11.0667 1.33337 15.8667 1.33337C20.8 1.33337 24.8 5.33338 24.8 10.1334C24.8 15.0667 20.8 19.0667 15.8667 19.0667ZM15.8667 2.53337C11.6 2.53337 8.26667 6.00004 8.26667 10.1334C8.26667 14.4 11.7333 17.7334 15.8667 17.7334C20.1333 17.7334 23.4667 14.2667 23.4667 10.1334C23.6 6.00004 20.1333 2.53337 15.8667 2.53337Z" fill="#E92070"/>
<path d="M15.8667 13.6C15.4667 13.6 15.2 13.3334 15.2 12.9334V10.9334C15.2 10.5334 15.4667 10.2667 15.8667 10.2667C16.9333 10.2667 17.7333 9.4667 17.7333 8.40003C17.7333 7.33336 16.9333 6.53336 15.8667 6.53336C14.9333 6.53336 14 7.33336 14 8.40003C14 8.80003 13.7333 9.0667 13.3333 9.0667C12.9333 9.0667 12.9333 8.80003 12.9333 8.53336C12.9333 6.80003 14.2667 5.4667 16 5.4667C17.7333 5.4667 19.0667 6.80003 19.0667 8.53336C19.0667 10 18 11.2 16.6667 11.4667V12.9334C16.5333 13.3334 16.2667 13.6 15.8667 13.6Z" fill="#E92070"/>
<path d="M15.8666 15.6C15.7333 15.6 15.6 15.6 15.4666 15.4667C15.3333 15.3334 15.3333 15.2 15.3333 15.0667C15.3333 14.9334 15.3333 14.8 15.4666 14.6667C15.7333 14.4 16.1333 14.4 16.2666 14.6667C16.4 14.8 16.4 14.9334 16.4 15.0667C16.4 15.2 16.2666 15.3334 16.2666 15.4667C16.2666 15.6 16.1333 15.6 15.8666 15.6Z" fill="#E92070"/>
</svg>
