<svg width="32" height="32" viewBox="0 0 32 32" fill="none" xmlns="http://www.w3.org/2000/svg">
<path d="M25.0716 21.6153C24.3223 21.6153 23.6104 21.9023 23.0734 22.4213C22.5363 22.9465 22.2366 23.6304 22.2366 24.3632C22.2366 25.0959 22.5301 25.7799 23.0734 26.305C23.6166 26.8241 24.3223 27.1111 25.0716 27.1111C26.6078 27.1111 27.8566 25.8776 27.8566 24.3632C27.8566 22.8488 26.6078 21.6153 25.0716 21.6153ZM25.0716 25.8898C24.2099 25.8898 23.4855 25.1936 23.4855 24.3632C23.4855 23.5327 24.2099 22.8365 25.0716 22.8365C25.9209 22.8365 26.6078 23.5205 26.6078 24.3632C26.6078 25.2059 25.9209 25.8898 25.0716 25.8898ZM25.796 12.4617C25.6836 12.3578 25.5337 12.3029 25.3776 12.3029H22.1742C21.8307 12.3029 21.5497 12.5777 21.5497 12.9135V17.9208C21.5497 18.2567 21.8307 18.5315 22.1742 18.5315H27.2572C27.6006 18.5315 27.8816 18.2567 27.8816 17.9208V14.5684C27.8816 14.3974 27.8067 14.2325 27.6756 14.1165L25.796 12.4617ZM26.6327 17.3102H22.7986V13.5181H25.1341L26.6327 14.8371V17.3102ZM9.82258 21.6153C9.07324 21.6153 8.36137 21.9023 7.82434 22.4213C7.28731 22.9465 6.98758 23.6304 6.98758 24.3632C6.98758 25.0959 7.28107 25.7799 7.82434 26.305C8.36761 26.8241 9.07324 27.1111 9.82258 27.1111C11.3587 27.1111 12.6076 25.8776 12.6076 24.3632C12.6076 22.8488 11.3587 21.6153 9.82258 21.6153ZM9.82258 25.8898C8.96084 25.8898 8.23647 25.1936 8.23647 24.3632C8.23647 23.5327 8.96084 22.8365 9.82258 22.8365C10.6718 22.8365 11.3587 23.5205 11.3587 24.3632C11.3587 25.2059 10.6718 25.8898 9.82258 25.8898ZM5.6575 22.3663H4.40236V20.742C4.40236 20.4062 4.12136 20.1314 3.77791 20.1314C3.43447 20.1314 3.15347 20.4062 3.15347 20.742V22.977C3.15347 23.3128 3.43447 23.5876 3.77791 23.5876H5.6575C6.00095 23.5876 6.28195 23.3128 6.28195 22.977C6.28195 22.6411 6.00095 22.3663 5.6575 22.3663ZM8.82346 19.0383C8.82346 18.7025 8.54246 18.4277 8.19901 18.4277H0.624449C0.281002 18.4277 0 18.7025 0 19.0383C0 19.3742 0.281002 19.649 0.624449 19.649H8.19901C8.54246 19.649 8.82346 19.3803 8.82346 19.0383ZM1.89208 16.8339L9.46664 16.8766C9.81009 16.8766 10.0911 16.608 10.0973 16.2721C10.1036 15.9301 9.82258 15.6553 9.47913 15.6553L1.90457 15.6126C1.89832 15.6126 1.89832 15.6126 1.89832 15.6126C1.55488 15.6126 1.27387 15.8813 1.27387 16.2171C1.26763 16.5591 1.54863 16.8339 1.89208 16.8339ZM3.16595 14.0616H10.7405C11.084 14.0616 11.365 13.7868 11.365 13.4509C11.365 13.1151 11.084 12.8403 10.7405 12.8403H3.16595C2.82251 12.8403 2.54151 13.1151 2.54151 13.4509C2.54151 13.7868 2.82251 14.0616 3.16595 14.0616ZM30.4356 13.2372L25.9646 9.61605C25.8522 9.52445 25.7148 9.4756 25.5649 9.4756H20.3071V7.27727C20.3071 6.94142 20.0261 6.66663 19.6826 6.66663H3.77791C3.43447 6.66663 3.15347 6.94142 3.15347 7.27727V11.7472C3.15347 12.0831 3.43447 12.3579 3.77791 12.3579C4.12136 12.3579 4.40236 12.0831 4.40236 11.7472V7.88792H19.0644V22.3663H13.9439C13.6005 22.3663 13.3195 22.6411 13.3195 22.977C13.3195 23.3128 13.6005 23.5876 13.9439 23.5876H21.5685C21.9119 23.5876 22.1929 23.3128 22.1929 22.977C22.1929 22.6411 21.9119 22.3663 21.5685 22.3663H20.3133V10.6969H25.3464L29.4178 13.9944L29.3741 22.3541H28.7246C28.3812 22.3541 28.1002 22.6289 28.1002 22.9648C28.1002 23.3006 28.3812 23.5754 28.7246 23.5754H29.9923C30.3357 23.5754 30.6167 23.3067 30.6167 22.9709L30.6667 13.7135C30.6604 13.5303 30.5792 13.3532 30.4356 13.2372Z" fill="#381451"/>
</svg>
