<svg width="21" height="19" viewBox="0 0 21 19" fill="none" xmlns="http://www.w3.org/2000/svg">
<path fill-rule="evenodd" clip-rule="evenodd" d="M10.2042 8.46214C11.4787 8.46214 12.5119 7.42895 12.5119 6.15445C12.5119 4.87994 11.4787 3.84675 10.2042 3.84675C8.92969 3.84675 7.8965 4.87994 7.8965 6.15445C7.8965 7.42895 8.92969 8.46214 10.2042 8.46214ZM10.2042 7.69291C11.0539 7.69291 11.7427 7.00412 11.7427 6.15445C11.7427 5.30478 11.0539 4.61599 10.2042 4.61599C9.35453 4.61599 8.66573 5.30478 8.66573 6.15445C8.66573 7.00412 9.35453 7.69291 10.2042 7.69291Z" fill="#7C6C8A"/>
<path fill-rule="evenodd" clip-rule="evenodd" d="M11.5366 14.6634C13.1738 11.7262 14.8196 8.1474 14.8196 6.15445C14.8196 3.60544 12.7532 1.53906 10.2042 1.53906C7.65519 1.53906 5.58881 3.60544 5.58881 6.15445C5.58881 8.1474 7.23461 11.7262 8.87179 14.6634C6.5424 14.8328 4.81958 15.4361 4.81958 16.1544C4.81958 17.0041 7.23035 17.6929 10.2042 17.6929C13.178 17.6929 15.5888 17.0041 15.5888 16.1544C15.5888 15.4361 13.866 14.8328 11.5366 14.6634ZM13.6358 8.24682C13.9091 7.38667 14.0503 6.67519 14.0503 6.15445C14.0503 4.03027 12.3284 2.30829 10.2042 2.30829C8.08002 2.30829 6.35804 4.03027 6.35804 6.15445C6.35804 6.67519 6.49926 7.38667 6.77263 8.24682C7.04251 9.09599 7.42584 10.0433 7.87439 11.0201C8.81152 13.0607 11.5969 13.0607 12.534 11.0201C12.9826 10.0433 13.3659 9.09599 13.6358 8.24682ZM11.262 15.1504C11.0566 15.5102 10.8529 15.8579 10.6541 16.189C10.4492 16.5301 9.95914 16.5301 9.75431 16.189C9.55549 15.8579 9.35176 15.5102 9.14642 15.1504C9.12424 15.1582 9.10041 15.1633 9.07521 15.1649C8.13766 15.2261 7.31932 15.3609 6.69971 15.5379C6.26951 15.6608 5.9705 15.794 5.79023 15.9158C5.61321 16.0354 5.58881 16.1154 5.58881 16.1544C5.58881 16.1934 5.61321 16.2735 5.79023 16.393C5.9705 16.5148 6.26951 16.648 6.69971 16.7709C7.55739 17.016 8.79588 17.1801 10.2042 17.1801C11.6125 17.1801 12.851 17.016 13.7087 16.7709C14.1389 16.648 14.4379 16.5148 14.6182 16.393C14.7952 16.2735 14.8196 16.1934 14.8196 16.1544C14.8196 16.1154 14.7952 16.0354 14.6182 15.9158C14.4379 15.794 14.1389 15.6608 13.7087 15.5379C13.0891 15.3609 12.2707 15.2261 11.3332 15.1649C11.308 15.1633 11.2842 15.1582 11.262 15.1504Z" fill="#7C6C8A"/>
</svg>
