<svg width="24" height="24" viewBox="0 0 24 24" fill="none" xmlns="http://www.w3.org/2000/svg">
<path fill-rule="evenodd" clip-rule="evenodd" d="M19.0859 4.92031C17.206 3.03806 14.7059 2.00095 12.042 2C6.55283 2 2.08547 6.46689 2.08356 11.9575C2.08261 13.7127 2.54147 15.426 3.41288 16.9358L2 22.0965L7.27909 20.7117C8.73351 21.5053 10.3713 21.9231 12.0377 21.9236H12.042C12.0415 21.9236 12.0425 21.9236 12.042 21.9236C17.5302 21.9236 21.9981 17.4562 22 11.9656C22.001 9.30459 20.9662 6.80256 19.0859 4.92031ZM12.042 20.2419H12.0387C10.5537 20.2414 9.09688 19.8422 7.82581 19.0883L7.52356 18.9088L4.39077 19.7305L5.22685 16.676L5.03013 16.3628C4.20169 15.0449 3.76384 13.5217 3.76479 11.958C3.7667 7.39464 7.47963 3.68171 12.0454 3.68171C14.2561 3.68266 16.3341 4.54453 17.897 6.10925C19.4598 7.67349 20.3197 9.75343 20.3188 11.9647C20.3169 16.5285 16.6039 20.2419 12.042 20.2419ZM16.582 14.0427C16.3332 13.9181 15.1099 13.3164 14.8816 13.2333C14.6534 13.1503 14.4877 13.1087 14.322 13.358C14.1563 13.6072 13.6793 14.1678 13.5342 14.3335C13.389 14.4996 13.2439 14.5202 12.9951 14.3956C12.7463 14.2709 11.9446 14.0083 10.9939 13.1608C10.2543 12.5009 9.75486 11.6863 9.6097 11.437C9.46455 11.1878 9.59442 11.0531 9.71857 10.9295C9.8303 10.8177 9.96734 10.6387 10.092 10.4935C10.2166 10.3484 10.2577 10.2443 10.3407 10.0786C10.4238 9.91243 10.3823 9.76727 10.3202 9.64265C10.2581 9.51802 9.76059 8.29327 9.55288 7.79525C9.3509 7.31013 9.14559 7.37602 8.99327 7.3679C8.84811 7.36074 8.68242 7.35931 8.51626 7.35931C8.35057 7.35931 8.08079 7.42138 7.85255 7.67063C7.62431 7.91988 6.98162 8.52199 6.98162 9.74626C6.98162 10.971 7.87308 12.1542 7.99771 12.3204C8.12233 12.4866 9.75247 14.9996 12.2483 16.0777C12.8418 16.3341 13.3054 16.4874 13.6669 16.602C14.2628 16.7916 14.8052 16.7648 15.234 16.7009C15.712 16.6292 16.7061 16.0987 16.9133 15.5176C17.1206 14.9365 17.1206 14.438 17.0585 14.3344C16.9964 14.2299 16.8307 14.1673 16.582 14.0427Z" fill="#7FBF40"/>
</svg>
