<svg width="25" height="24" viewBox="0 0 25 24" fill="none" xmlns="http://www.w3.org/2000/svg">
<path fill-rule="evenodd" clip-rule="evenodd" d="M17.0388 2.7072C17.4293 2.31668 18.0625 2.31668 18.453 2.7072L21.2814 5.53563C21.672 5.92615 21.672 6.55932 21.2814 6.94984L9.55352 18.6778C9.36599 18.8653 9.11163 18.9707 8.84642 18.9707H6.01799C5.46571 18.9707 5.01799 18.5229 5.01799 17.9707L5.01799 15.1422C5.01799 14.877 5.12335 14.6227 5.31088 14.4351L17.0388 2.7072ZM17.7459 3.41431L20.5743 6.24273L19.1601 7.65695L16.3317 4.82852L17.7459 3.41431ZM15.6246 5.53563L6.01799 15.1422L6.01799 16.7748L7.21385 17.9707H8.84642L18.453 8.36405L15.6246 5.53563Z" fill="#E92070"/>
<path d="M4.66095 21.5001C4.66095 21.224 4.88481 21.0001 5.16095 21.0001H20.1609C20.4371 21.0001 20.6609 21.224 20.6609 21.5001C20.6609 21.7762 20.4371 22.0001 20.1609 22.0001H5.16095C4.88481 22.0001 4.66095 21.7762 4.66095 21.5001Z" fill="#E92070"/>
</svg>
