<svg width="72" height="72" viewBox="0 0 72 72" fill="none" xmlns="http://www.w3.org/2000/svg">
<mask id="mask0" mask-type="alpha" maskUnits="userSpaceOnUse" x="19" y="0" width="31" height="38">
<path fill-rule="evenodd" clip-rule="evenodd" d="M19.8848 0H49.97V37.0746H19.8848V0Z" fill="white"/>
</mask>
<g mask="url(#mask0)">
<path fill-rule="evenodd" clip-rule="evenodd" d="M47.6553 33.5989C47.6553 34.2388 47.1372 34.7575 46.498 34.7575H23.3522C22.7131 34.7575 22.1949 34.2388 22.1949 33.5989V32.4378C22.1949 31.1595 23.2312 30.1232 24.5095 30.1232H25.6655C26.3054 30.1232 26.8241 29.6045 26.8241 28.9646C26.8241 28.3247 26.3054 27.806 25.6655 27.806H24.5095C23.2312 27.806 22.1949 26.7697 22.1949 25.4914V10.8062C22.1949 10.0906 22.4507 9.39865 22.9161 8.85509L27.6157 3.36609C28.1857 2.7004 29.0182 2.31721 29.8946 2.31721H46.498C47.1372 2.31721 47.6553 2.83589 47.6553 3.47579V33.5989ZM28.8295 0C27.9532 0 27.1207 0.383191 26.5507 1.04888L20.6012 7.9977C20.1358 8.54125 19.8801 9.23325 19.8801 9.94881V33.5989C19.8801 35.5185 21.4345 37.0746 23.3519 37.0746H46.4977C48.4152 37.0746 49.9696 35.5185 49.9696 33.5989V3.47575C49.9696 1.55612 48.4152 0 46.4977 0H28.8295Z" fill="#381451"/>
</g>
<path fill-rule="evenodd" clip-rule="evenodd" d="M41.4011 8.08936H30.8129C29.2879 8.08936 28.0473 9.34372 28.0473 10.8854V25.1737C28.0473 26.7155 29.2881 27.97 30.8129 27.97H41.4011C42.926 27.97 44.1667 26.7153 44.1667 25.1737V10.8854C44.1667 9.34372 42.926 8.08936 41.4011 8.08936ZM28.854 10.8852C28.854 9.79342 29.7325 8.90517 30.8126 8.90517H33.2732V10.3994C33.2732 10.6247 33.4538 10.8074 33.6768 10.8074C33.8996 10.8074 34.0803 10.6247 34.0803 10.3994V8.90517H38.1331V13.8634C38.1331 13.9319 38.1231 13.998 38.1046 14.0602C38.101 14.07 38.0976 14.08 38.0949 14.0902C38.0022 14.3554 37.7517 14.546 37.4581 14.546H34.7553C34.4615 14.546 34.2112 14.3554 34.1185 14.0902C34.1156 14.08 34.1125 14.07 34.1089 14.0602C34.0902 13.998 34.0803 13.9319 34.0803 13.8634V12.3048C34.0803 12.0795 33.8996 11.8968 33.6768 11.8968C33.4538 11.8968 33.2732 12.0795 33.2732 12.3048V13.794H33.0881C31.5757 13.794 30.1998 14.6969 29.5829 16.0941C29.5558 16.1553 29.4946 16.195 29.4272 16.195H28.854V10.8852ZM33.2732 27.1538H30.8126C29.7328 27.1538 28.854 26.2655 28.854 25.1735V19.8639H29.4272C29.4946 19.8639 29.5558 19.9034 29.5829 19.9648C30.2 21.362 31.5757 22.2649 33.0883 22.2649H33.2732V27.1538ZM43.3593 25.1735C43.3593 26.2655 42.4809 27.1538 41.4008 27.1538H38.9401V25.513C38.9401 25.2875 38.7596 25.105 38.5366 25.105C38.3138 25.105 38.1331 25.2875 38.1331 25.513V27.1538H34.0803V22.1952C34.0803 22.127 34.0903 22.0609 34.1088 21.9987C34.1124 21.9889 34.1158 21.9787 34.1187 21.9685C34.2114 21.7033 34.4617 21.5127 34.7553 21.5127H37.458C37.7516 21.5127 38.0022 21.7033 38.0949 21.9685C38.0978 21.9787 38.1009 21.9889 38.1048 21.9987C38.1232 22.0609 38.1331 22.127 38.1331 22.1952V23.6077C38.1331 23.833 38.3138 24.0157 38.5366 24.0157C38.7596 24.0157 38.9401 23.833 38.9401 23.6077V22.2649H39.1253C40.6377 22.2649 42.0136 21.362 42.6305 19.9648C42.6576 19.9034 42.7188 19.8639 42.7862 19.8639H43.3593V25.1735ZM43.3594 19.0478H42.7862C42.4008 19.0478 42.0505 19.2771 41.8937 19.632C41.4063 20.7357 40.3197 21.4489 39.1253 21.4489H38.743C38.4866 20.9996 38.0068 20.6966 37.4581 20.6966H34.7553C34.2068 20.6966 33.7268 20.9996 33.4706 21.4489H33.0883C31.8939 21.4489 30.8071 20.7357 30.32 19.632C30.1632 19.2771 29.8129 19.0478 29.4272 19.0478H28.854V17.011H29.4272C29.8127 17.011 30.163 16.7817 30.3197 16.4268C30.8071 15.3231 31.8937 14.6099 33.0881 14.6099H33.4704C33.7268 15.0592 34.2066 15.362 34.7553 15.362H37.4581C38.0066 15.362 38.4866 15.0592 38.7428 14.6099H39.1251C40.3197 14.6099 41.4063 15.3231 41.8935 16.4268C42.0502 16.7817 42.4006 17.011 42.7862 17.011H43.3594V19.0478ZM43.3594 16.195H42.7863C42.7188 16.195 42.6577 16.1553 42.6305 16.0941C42.0137 14.6967 40.6377 13.794 39.1254 13.794H38.9402V8.90517H41.4008C42.4809 8.90517 43.3594 9.79342 43.3594 10.8852V16.195Z" fill="#E62771"/>
<path d="M33.2732 8.90517H33.7732V8.40517H33.2732V8.90517ZM34.0803 8.90517V8.40517H33.5803V8.90517H34.0803ZM38.1331 8.90517H38.6331V8.40517H38.1331V8.90517ZM38.1046 14.0602L38.5738 14.2329L38.5793 14.218L38.5838 14.2027L38.1046 14.0602ZM38.0949 14.0902L38.5669 14.2552L38.5729 14.238L38.5776 14.2204L38.0949 14.0902ZM34.1185 14.0902L33.6384 14.2298L33.6422 14.2426L33.6465 14.2552L34.1185 14.0902ZM34.1089 14.0602L33.6299 14.2039L33.6343 14.2186L33.6396 14.2329L34.1089 14.0602ZM33.2732 13.794V14.294H33.7732V13.794H33.2732ZM29.5829 16.0941L30.0401 16.2966L30.0403 16.296L29.5829 16.0941ZM28.854 16.195H28.354V16.695H28.854V16.195ZM33.2732 27.1538V27.6538H33.7732V27.1538H33.2732ZM28.854 19.8639V19.3639H28.354V19.8639H28.854ZM29.5829 19.9648L30.0403 19.7628L30.0403 19.7627L29.5829 19.9648ZM33.2732 22.2649H33.7732V21.7649H33.2732V22.2649ZM38.9401 27.1538H38.4401V27.6538H38.9401V27.1538ZM38.1331 27.1538V27.6538H38.6331V27.1538H38.1331ZM34.0803 27.1538H33.5803V27.6538H34.0803V27.1538ZM34.1088 21.9987L33.6396 21.8259L33.6341 21.8409L33.6295 21.8562L34.1088 21.9987ZM34.1187 21.9685L33.6467 21.8036L33.6423 21.8161L33.6386 21.8289L34.1187 21.9685ZM38.0949 21.9685L38.575 21.8289L38.5712 21.8161L38.5669 21.8036L38.0949 21.9685ZM38.1048 21.9987L38.5842 21.8566L38.5782 21.8365L38.5706 21.8169L38.1048 21.9987ZM38.9401 22.2649V21.7649H38.4401V22.2649H38.9401ZM42.6305 19.9648L42.1731 19.7627L42.1731 19.7628L42.6305 19.9648ZM43.3593 19.8639H43.8593V19.3639H43.3593V19.8639ZM43.3594 19.0478V19.5478H43.8594V19.0478H43.3594ZM41.8937 19.632L41.4363 19.4299L41.4363 19.43L41.8937 19.632ZM38.743 21.4489L38.3088 21.6968L38.4527 21.9489H38.743V21.4489ZM33.4706 21.4489V21.9489H33.761L33.9049 21.6966L33.4706 21.4489ZM30.32 19.632L30.7774 19.4301L30.7773 19.4299L30.32 19.632ZM28.854 19.0478H28.354V19.5478H28.854V19.0478ZM28.854 17.011V16.511H28.354V17.011H28.854ZM30.3197 16.4268L30.7771 16.6288L30.7771 16.6288L30.3197 16.4268ZM33.4704 14.6099L33.9046 14.3621L33.7607 14.1099H33.4704V14.6099ZM38.7428 14.6099V14.1099H38.4524L38.3085 14.3622L38.7428 14.6099ZM41.8935 16.4268L41.436 16.6287L41.4361 16.6288L41.8935 16.4268ZM43.3594 17.011H43.8594V16.511H43.3594V17.011ZM43.3594 16.195V16.695H43.8594V16.195H43.3594ZM42.6305 16.0941L42.1731 16.296L42.1734 16.2966L42.6305 16.0941ZM38.9402 13.794H38.4402V14.294H38.9402V13.794ZM38.9402 8.90517V8.40517H38.4402V8.90517H38.9402ZM41.4011 7.58936H30.8129V8.58936H41.4011V7.58936ZM30.8129 7.58936C29.0066 7.58936 27.5473 9.07276 27.5473 10.8854H28.5473C28.5473 9.61468 29.5692 8.58936 30.8129 8.58936V7.58936ZM27.5473 10.8854V25.1737H28.5473V10.8854H27.5473ZM27.5473 25.1737C27.5473 26.9865 29.0068 28.47 30.8129 28.47V27.47C29.5694 27.47 28.5473 26.4446 28.5473 25.1737H27.5473ZM30.8129 28.47H41.4011V27.47H30.8129V28.47ZM41.4011 28.47C43.2074 28.47 44.6667 26.9862 44.6667 25.1737H43.6667C43.6667 26.4444 42.6447 27.47 41.4011 27.47V28.47ZM44.6667 25.1737V10.8854H43.6667V25.1737H44.6667ZM44.6667 10.8854C44.6667 9.07276 43.2073 7.58936 41.4011 7.58936V8.58936C42.6447 8.58936 43.6667 9.61468 43.6667 10.8854H44.6667ZM29.354 10.8852C29.354 10.0644 30.0138 9.40517 30.8126 9.40517V8.40517C29.4512 8.40517 28.354 9.52245 28.354 10.8852H29.354ZM30.8126 9.40517H33.2732V8.40517H30.8126V9.40517ZM32.7732 8.90517V10.3994H33.7732V8.90517H32.7732ZM32.7732 10.3994C32.7732 10.8955 33.1722 11.3074 33.6768 11.3074V10.3074C33.7353 10.3074 33.7732 10.354 33.7732 10.3994H32.7732ZM33.6768 11.3074C34.1809 11.3074 34.5803 10.8956 34.5803 10.3994H33.5803C33.5803 10.3538 33.6182 10.3074 33.6768 10.3074V11.3074ZM34.5803 10.3994V8.90517H33.5803V10.3994H34.5803ZM34.0803 9.40517H38.1331V8.40517H34.0803V9.40517ZM37.6331 8.90517V13.8634H38.6331V8.90517H37.6331ZM37.6331 13.8634C37.6331 13.8827 37.6303 13.9008 37.6253 13.9177L38.5838 14.2027C38.6158 14.0951 38.6331 13.9811 38.6331 13.8634H37.6331ZM37.6354 13.8875C37.6283 13.9067 37.6198 13.9314 37.6121 13.96L38.5776 14.2204C38.5765 14.2246 38.5755 14.2279 38.5748 14.2299C38.5745 14.2309 38.5742 14.2317 38.5741 14.2322C38.574 14.2324 38.5739 14.2326 38.5739 14.2327C38.5738 14.2329 38.5738 14.2329 38.5738 14.2329L37.6354 13.8875ZM37.6229 13.9252C37.597 13.9994 37.5291 14.046 37.4581 14.046V15.046C37.9742 15.046 38.4074 14.7114 38.5669 14.2552L37.6229 13.9252ZM37.4581 14.046H34.7553V15.046H37.4581V14.046ZM34.7553 14.046C34.6842 14.046 34.6165 13.9995 34.5905 13.9252L33.6465 14.2552C33.806 14.7113 34.2389 15.046 34.7553 15.046V14.046ZM34.5986 13.9505C34.5941 13.9349 34.5873 13.9126 34.5781 13.8875L33.6396 14.2329C33.6376 14.2274 33.6371 14.2251 33.6384 14.2298L34.5986 13.9505ZM34.5878 13.9165C34.5832 13.9012 34.5803 13.8835 34.5803 13.8634H33.5803C33.5803 13.9803 33.5972 14.0948 33.6299 14.2039L34.5878 13.9165ZM34.5803 13.8634V12.3048H33.5803V13.8634H34.5803ZM34.5803 12.3048C34.5803 11.8086 34.1809 11.3968 33.6768 11.3968V12.3968C33.6182 12.3968 33.5803 12.3504 33.5803 12.3048H34.5803ZM33.6768 11.3968C33.1722 11.3968 32.7732 11.8087 32.7732 12.3048H33.7732C33.7732 12.3502 33.7353 12.3968 33.6768 12.3968V11.3968ZM32.7732 12.3048V13.794H33.7732V12.3048H32.7732ZM33.2732 13.294H33.0881V14.294H33.2732V13.294ZM33.0881 13.294C31.3751 13.294 29.8213 14.3161 29.1255 15.8921L30.0403 16.296C30.5782 15.0777 31.7763 14.294 33.0881 14.294V13.294ZM29.1258 15.8915C29.1792 15.771 29.2978 15.695 29.4272 15.695V16.695C29.6914 16.695 29.9324 16.5396 30.0401 16.2966L29.1258 15.8915ZM29.4272 15.695H28.854V16.695H29.4272V15.695ZM29.354 16.195V10.8852H28.354V16.195H29.354ZM33.2732 26.6538H30.8126V27.6538H33.2732V26.6538ZM30.8126 26.6538C30.014 26.6538 29.354 25.9945 29.354 25.1735H28.354C28.354 26.5365 29.4515 27.6538 30.8126 27.6538V26.6538ZM29.354 25.1735V19.8639H28.354V25.1735H29.354ZM28.854 20.3639H29.4272V19.3639H28.854V20.3639ZM29.4272 20.3639C29.2987 20.3639 29.1793 20.2885 29.1256 20.1669L30.0403 19.7627C29.9323 19.5183 29.6905 19.3639 29.4272 19.3639V20.3639ZM29.1255 20.1668C29.8215 21.7428 31.3751 22.7649 33.0883 22.7649V21.7649C31.7763 21.7649 30.5784 20.9813 30.0403 19.7628L29.1255 20.1668ZM33.0883 22.7649H33.2732V21.7649H33.0883V22.7649ZM32.7732 22.2649V27.1538H33.7732V22.2649H32.7732ZM42.8593 25.1735C42.8593 25.9946 42.1995 26.6538 41.4008 26.6538V27.6538C42.7622 27.6538 43.8593 26.5364 43.8593 25.1735H42.8593ZM41.4008 26.6538H38.9401V27.6538H41.4008V26.6538ZM39.4401 27.1538V25.513H38.4401V27.1538H39.4401ZM39.4401 25.513C39.4401 25.0166 39.041 24.605 38.5366 24.605V25.605C38.4783 25.605 38.4401 25.5585 38.4401 25.513H39.4401ZM38.5366 24.605C38.0327 24.605 37.6331 25.0164 37.6331 25.513H38.6331C38.6331 25.5586 38.595 25.605 38.5366 25.605V24.605ZM37.6331 25.513V27.1538H38.6331V25.513H37.6331ZM38.1331 26.6538H34.0803V27.6538H38.1331V26.6538ZM34.5803 27.1538V22.1952H33.5803V27.1538H34.5803ZM34.5803 22.1952C34.5803 22.1763 34.583 22.1582 34.5881 22.1411L33.6295 21.8562C33.5976 21.9637 33.5803 22.0777 33.5803 22.1952H34.5803ZM34.578 22.1714C34.5858 22.1503 34.5927 22.1291 34.5988 22.1082L33.6386 21.8289C33.6388 21.8283 33.6391 21.8274 33.6396 21.8259L34.578 22.1714ZM34.5908 22.1334C34.6167 22.0592 34.6844 22.0127 34.7553 22.0127V21.0127C34.2391 21.0127 33.8061 21.3473 33.6467 21.8036L34.5908 22.1334ZM34.7553 22.0127H37.458V21.0127H34.7553V22.0127ZM37.458 22.0127C37.5291 22.0127 37.5969 22.0593 37.6228 22.1335L38.5669 21.8036C38.4074 21.3472 37.9742 21.0127 37.458 21.0127V22.0127ZM37.6148 22.1082C37.6186 22.1213 37.6267 22.149 37.6389 22.1804L38.5706 21.8169C38.5731 21.8235 38.5747 21.8283 38.5753 21.83C38.5758 21.8317 38.5758 21.8319 38.575 21.8289L37.6148 22.1082ZM37.6253 22.1407C37.6303 22.1573 37.6331 22.1755 37.6331 22.1952H38.6331C38.6331 22.0785 38.6162 21.9646 38.5842 21.8566L37.6253 22.1407ZM37.6331 22.1952V23.6077H38.6331V22.1952H37.6331ZM37.6331 23.6077C37.6331 24.1039 38.0325 24.5157 38.5366 24.5157V23.5157C38.5952 23.5157 38.6331 23.5621 38.6331 23.6077H37.6331ZM38.5366 24.5157C39.0411 24.5157 39.4401 24.1037 39.4401 23.6077H38.4401C38.4401 23.5622 38.4781 23.5157 38.5366 23.5157V24.5157ZM39.4401 23.6077V22.2649H38.4401V23.6077H39.4401ZM38.9401 22.7649H39.1253V21.7649H38.9401V22.7649ZM39.1253 22.7649C40.8383 22.7649 42.3921 21.7428 43.0879 20.1667L42.1731 19.7628C41.6352 20.9812 40.4371 21.7649 39.1253 21.7649V22.7649ZM43.0878 20.1669C43.0341 20.2885 42.9147 20.3639 42.7862 20.3639V19.3639C42.5229 19.3639 42.2811 19.5183 42.1731 19.7627L43.0878 20.1669ZM42.7862 20.3639H43.3593V19.3639H42.7862V20.3639ZM42.8593 19.8639V25.1735H43.8593V19.8639H42.8593ZM43.3594 18.5478H42.7862V19.5478H43.3594V18.5478ZM42.7862 18.5478C42.2011 18.5478 41.6724 18.8955 41.4363 19.4299L42.351 19.834C42.4285 19.6587 42.6005 19.5478 42.7862 19.5478V18.5478ZM41.4363 19.43C41.0278 20.355 40.1191 20.9489 39.1253 20.9489V21.9489C40.5204 21.9489 41.7847 21.1164 42.3511 19.8339L41.4363 19.43ZM39.1253 20.9489H38.743V21.9489H39.1253V20.9489ZM39.1773 21.201C38.8368 20.6046 38.1961 20.1966 37.4581 20.1966V21.1966C37.8175 21.1966 38.1364 21.3947 38.3088 21.6968L39.1773 21.201ZM37.4581 20.1966H34.7553V21.1966H37.4581V20.1966ZM34.7553 20.1966C34.0176 20.1966 33.3765 20.6045 33.0363 21.2012L33.9049 21.6966C34.0771 21.3948 34.3961 21.1966 34.7553 21.1966V20.1966ZM33.4706 20.9489H33.0883V21.9489H33.4706V20.9489ZM33.0883 20.9489C32.0945 20.9489 31.1856 20.355 30.7774 19.4301L29.8625 19.8339C30.4287 21.1164 31.6933 21.9489 33.0883 21.9489V20.9489ZM30.7773 19.4299C30.5412 18.8955 30.0125 18.5478 29.4272 18.5478V19.5478C29.6132 19.5478 29.7852 19.6588 29.8626 19.834L30.7773 19.4299ZM29.4272 18.5478H28.854V19.5478H29.4272V18.5478ZM29.354 19.0478V17.011H28.354V19.0478H29.354ZM28.854 17.511H29.4272V16.511H28.854V17.511ZM29.4272 17.511C30.0124 17.511 30.541 17.1633 30.7771 16.6288L29.8624 16.2248C29.7849 16.4001 29.6129 16.511 29.4272 16.511V17.511ZM30.7771 16.6288C31.1856 15.7038 32.0943 15.1099 33.0881 15.1099V14.1099C31.693 14.1099 30.4287 14.9424 29.8624 16.2248L30.7771 16.6288ZM33.0881 15.1099H33.4704V14.1099H33.0881V15.1099ZM33.0361 14.8578C33.3767 15.4544 34.0174 15.862 34.7553 15.862V14.862C34.3958 14.862 34.0769 14.664 33.9046 14.3621L33.0361 14.8578ZM34.7553 15.862H37.4581V14.862H34.7553V15.862ZM37.4581 15.862C38.1957 15.862 38.8368 15.4544 39.1772 14.8576L38.3085 14.3622C38.1364 14.6639 37.8175 14.862 37.4581 14.862V15.862ZM38.7428 15.1099H39.1251V14.1099H38.7428V15.1099ZM39.1251 15.1099C40.1191 15.1099 41.0278 15.7038 41.436 16.6287L42.3509 16.2249C41.7848 14.9423 40.5204 14.1099 39.1251 14.1099V15.1099ZM41.4361 16.6288C41.6722 17.1634 42.2009 17.511 42.7862 17.511V16.511C42.6002 16.511 42.4283 16.4001 42.3508 16.2248L41.4361 16.6288ZM42.7862 17.511H43.3594V16.511H42.7862V17.511ZM42.8594 17.011V19.0478H43.8594V17.011H42.8594ZM43.3594 15.695H42.7863V16.695H43.3594V15.695ZM42.7863 15.695C42.9156 15.695 43.0343 15.771 43.0877 15.8915L42.1734 16.2966C42.2811 16.5396 42.522 16.695 42.7863 16.695V15.695ZM43.088 15.8922C42.3921 14.3159 40.8383 13.294 39.1254 13.294V14.294C40.4372 14.294 41.6352 15.0775 42.1731 16.296L43.088 15.8922ZM39.1254 13.294H38.9402V14.294H39.1254V13.294ZM39.4402 13.794V8.90517H38.4402V13.794H39.4402ZM38.9402 9.40517H41.4008V8.40517H38.9402V9.40517ZM41.4008 9.40517C42.1996 9.40517 42.8594 10.0644 42.8594 10.8852H43.8594C43.8594 9.52245 42.7622 8.40517 41.4008 8.40517V9.40517ZM42.8594 10.8852V16.195H43.8594V10.8852H42.8594Z" fill="#E62771"/>
<path fill-rule="evenodd" clip-rule="evenodd" d="M67.2 64.7446C67.196 60.7397 63.975 57.4933 60 57.4892C59.8647 57.4892 59.7276 57.4892 59.5934 57.5016C58.5575 54.5381 55.7472 52.5838 52.6306 52.6588C49.5141 52.7332 46.7994 54.8209 45.9047 57.8306C44.792 57.305 43.4901 57.3905 42.4547 58.0577C41.7585 58.5058 41.2483 59.1741 40.9902 59.9401C40.7787 60.5676 41.3353 61.1169 41.9975 61.1169C42.6616 61.1169 43.1921 60.4649 43.7481 60.1016C43.9358 59.9789 44.1596 59.9077 44.4 59.9077C45.0627 59.9077 45.6 60.4491 45.6 61.1169C45.5982 61.1866 45.593 61.2563 45.5831 61.3248C45.5339 61.7811 45.7454 62.2264 46.1291 62.4737C46.5123 62.7217 47.0022 62.7288 47.393 62.4932C47.5764 62.3829 47.7861 62.325 48 62.3262C48.6627 62.3262 49.2 62.8676 49.2 63.5354C49.2 63.7737 49.1316 63.9959 49.0135 64.1832C48.6571 64.748 48 65.286 48 65.9539C48 66.6217 48.5567 67.183 49.1866 66.961C50.5877 66.4671 51.593 65.1233 51.593 63.543C51.593 61.5432 49.9841 59.9224 48 59.9224V59.9077C48.0071 57.4078 49.9032 55.3252 52.374 55.1033C54.845 54.8818 57.0768 56.5935 57.522 59.0526C57.5795 59.3793 57.767 59.6674 58.0412 59.8504C58.3155 60.0335 58.6524 60.0948 58.9728 60.0205C59.3097 59.9437 59.6543 59.9065 60 59.9077C62.6508 59.9077 64.8 62.0734 64.8 64.7446C64.8 67.4163 62.6508 69.5816 60 69.5816H12C9.3492 69.5816 7.2 67.4163 7.2 64.7446C7.2 62.0734 9.3492 59.9077 12 59.9077C12.3458 59.9071 12.6903 59.9455 13.0272 60.0227C13.3476 60.0973 13.6845 60.0357 13.9589 59.8527C14.2331 59.6696 14.4206 59.3815 14.478 59.0551C14.9232 56.5964 17.1545 54.8847 19.6248 55.1056C22.0958 55.327 23.9918 57.4084 24 59.9077V59.9224C22.016 59.9224 20.4071 61.5432 20.4071 63.543C20.4071 65.1233 21.4123 66.4671 22.8134 66.961C23.4433 67.183 24 66.6217 24 65.9539C24 65.286 23.3429 64.748 22.9865 64.1832C22.8684 63.9959 22.8 63.7737 22.8 63.5354C22.8 62.8676 23.3373 62.3262 24 62.3262C24.2139 62.325 24.4236 62.3829 24.6071 62.4932C24.9978 62.7288 25.4877 62.7217 25.871 62.4737C26.2547 62.2264 26.4662 61.7811 26.417 61.3248C26.4071 61.2563 26.4018 61.1866 26.4 61.1169C26.4 60.4491 26.9373 59.9077 27.6 59.9077C27.8404 59.9077 28.0642 59.9789 28.252 60.1016C28.8079 60.4649 29.3384 61.1169 30.0025 61.1169C30.6647 61.1169 31.2213 60.5676 31.0098 59.9401C30.7517 59.1741 30.2415 58.5058 29.5454 58.0577C28.5099 57.3905 27.2081 57.305 26.0954 57.8306C25.2006 54.8209 22.4859 52.7332 19.3694 52.6588C16.2528 52.5838 13.4426 54.5381 12.4067 57.5016C12.2724 57.4892 12.1353 57.4892 12 57.4892C9.15825 57.4844 6.58065 59.1672 5.4228 61.7823C4.2657 64.3974 4.74555 67.4541 6.648 69.5816H1.20923C0.541393 69.5816 0 70.123 0 70.7908C0 71.4586 0.541392 72 1.20923 72H70.7908C71.4586 72 72 71.4586 72 70.7908C72 70.123 71.4586 69.5816 70.7908 69.5816H65.352C66.5408 68.2553 67.1994 66.5319 67.2 64.7446Z" fill="#381451"/>
<path fill-rule="evenodd" clip-rule="evenodd" d="M31.1482 48.0663L31.1486 42.7247C31.1487 41.9872 30.5509 41.3892 29.8134 41.3889C29.0759 41.3887 28.4782 41.9864 28.478 42.7239L28.4776 48.0656C28.4775 48.803 29.0754 49.4011 29.8128 49.4013C30.55 49.4015 31.1481 48.8041 31.1482 48.0663Z" fill="#381451"/>
<path fill-rule="evenodd" clip-rule="evenodd" d="M41.8945 48.0663L41.8949 42.7247C41.895 41.9872 41.2971 41.3892 40.5597 41.3889C39.8222 41.3887 39.2245 41.9864 39.2243 42.7239L39.2239 48.0656C39.2238 48.803 39.8216 49.4011 40.5591 49.4013C41.2963 49.4015 41.8944 48.8041 41.8945 48.0663Z" fill="#381451"/>
<path fill-rule="evenodd" clip-rule="evenodd" d="M36.4794 57.0211L36.4792 44.1148C36.4791 43.3706 35.876 42.7675 35.1318 42.7675C34.3879 42.7676 33.7845 43.371 33.7844 44.115L33.7846 57.0214C33.7847 57.7655 34.3878 58.3687 35.1321 58.3686C35.8761 58.3686 36.4794 57.7653 36.4794 57.0211Z" fill="#381451"/>
</svg>
