<svg width="23" height="13" viewBox="0 0 23 13" fill="none" xmlns="http://www.w3.org/2000/svg">
<path fill-rule="evenodd" clip-rule="evenodd" d="M22.5 0.788933C22.5 0.683742 22.4821 0.582308 22.4462 0.48463C22.4104 0.386952 22.3566 0.300546 22.2849 0.225409C22.1416 0.0751349 21.9695 -9.38463e-07 21.7688 -9.2969e-07C21.5681 -9.20916e-07 21.3961 0.0751349 21.2527 0.225409L11.4247 10.5266L1.76882 0.383197C1.62545 0.232923 1.44982 0.157787 1.24194 0.157787C1.03405 0.157787 0.858424 0.232923 0.715054 0.383197C0.571684 0.533471 0.5 0.717554 0.5 0.935451C0.5 1.15335 0.571684 1.33743 0.715054 1.4877L10.9086 12.1496C11.052 12.2999 11.224 12.375 11.4247 12.375C11.6254 12.375 11.7975 12.2999 11.9409 12.1496L22.2849 1.32992C22.3566 1.25478 22.4104 1.16837 22.4462 1.0707C22.4821 0.973018 22.5 0.879098 22.5 0.788933Z" fill="#B3A6BA"/>
</svg>
