<svg width="32" height="32" viewBox="0 0 32 32" fill="none" xmlns="http://www.w3.org/2000/svg">
<path d="M15.8468 8.09766C11.0907 8.09766 7.2218 11.9666 7.2218 16.7227C7.2218 19.0761 8.15181 21.2745 9.84202 22.9142C10.0062 23.0735 10.0968 23.2665 10.0968 23.4575V27.5039C10.0968 27.9012 10.4183 28.2227 10.8156 28.2227H11.5343V30.3789C11.5343 30.7762 11.8558 31.0977 12.2531 31.0977H19.4405C19.8378 31.0977 20.1593 30.7762 20.1593 30.3789V28.2227H20.878C21.2753 28.2227 21.5968 27.9012 21.5968 27.5039V23.4575C21.5968 23.2665 21.6873 23.0735 21.8523 22.9135C23.5418 21.2745 24.4718 19.0762 24.4718 16.7227C24.4718 11.9666 20.6029 8.09766 15.8468 8.09766ZM18.7218 29.6601H12.9718V28.2226H18.7218V29.6601ZM20.852 21.881C20.4049 22.314 20.1593 22.8735 20.1593 23.4574V26.7852H11.5343V23.4574C11.5343 22.8734 11.2886 22.314 10.8422 21.8817C9.43415 20.5157 8.65929 18.6838 8.65929 16.7227C8.65929 12.7597 11.8838 9.53519 15.8468 9.53519C19.8097 9.53519 23.0342 12.7597 23.0342 16.7227C23.0343 18.6838 22.2594 20.5157 20.852 21.881Z" fill="#E92070"/>
<path d="M27.0817 16.5011C27.0817 16.9769 27.4673 17.3542 27.9349 17.3542L30.8798 17.3542C31.3556 17.3542 31.7329 16.9687 31.7329 16.5011C31.7329 16.0335 31.3474 15.6479 30.8798 15.6479L27.9349 15.6479C27.4591 15.6479 27.0817 16.0253 27.0817 16.5011Z" fill="#E92070"/>
<path d="M-4.86747e-05 16.5011C-4.86955e-05 16.9769 0.385498 17.3542 0.853076 17.3542L3.798 17.3542C4.27378 17.3542 4.65112 16.9687 4.65112 16.5011C4.65112 16.0335 4.26558 15.6479 3.798 15.6479L0.853076 15.6479C0.377295 15.6479 -4.86539e-05 16.0253 -4.86747e-05 16.5011Z" fill="#E92070"/>
<path d="M27.0999 4.65935C26.7636 4.32302 26.2222 4.32302 25.8941 4.65935L23.8105 6.74294C23.4741 7.07927 23.4741 7.62068 23.8105 7.9488C24.1468 8.27693 24.6882 8.28513 25.0163 7.9488L27.0999 5.86521C27.4363 5.53708 27.4363 4.99568 27.0999 4.65935Z" fill="#E92070"/>
<path d="M16.3414 4.65117C16.8172 4.65117 17.1945 4.26562 17.1945 3.79805V0.853125C17.1945 0.377344 16.809 0 16.3414 0C15.8738 0 15.4883 0.385547 15.4883 0.853125V3.79805C15.4883 4.27383 15.8656 4.65117 16.3414 4.65117Z" fill="#E92070"/>
<path d="M7.88006 7.95698C8.21639 7.62066 8.21639 7.07925 7.88006 6.75112L5.79647 4.66753C5.46014 4.3312 4.91873 4.3312 4.59061 4.66753C4.26249 5.00386 4.25428 5.54526 4.59061 5.87339L6.6742 7.95698C7.01053 8.28511 7.55193 8.28511 7.88006 7.95698Z" fill="#E92070"/>
</svg>
