<svg width="19" height="19" viewBox="0 0 19 19" fill="none" xmlns="http://www.w3.org/2000/svg">
<path fill-rule="evenodd" clip-rule="evenodd" d="M5.54167 9.5C5.54167 6.8611 6.8611 5.54167 9.5 5.54167C12.1389 5.54167 13.4583 6.8611 13.4583 9.5C13.4583 12.1389 12.1389 13.4583 9.5 13.4583C6.8611 13.4583 5.54167 12.1389 5.54167 9.5ZM5.59115 5.59115C4.89843 6.28386 4.43663 7.05902 4.20573 7.91667H0V2.375C0 1.68229 0.2309 1.12153 0.692708 0.692708C1.22049 0.2309 1.79774 0 2.42448 0H16.6745C17.3012 0 17.8455 0.2309 18.3073 0.692708C18.7691 1.15452 19 1.71527 19 2.375V7.91667H14.8438C14.6128 7.05902 14.151 6.28386 13.4583 5.59115C12.3698 4.5026 11.0504 3.95833 9.5 3.95833C7.98263 3.95833 6.67969 4.5026 5.59115 5.59115ZM17.4167 4.15625V2.22656C17.4167 2.06163 17.3507 1.9132 17.2188 1.78125C17.0868 1.6493 16.9384 1.58333 16.7734 1.58333H14.8932C14.7283 1.58333 14.5799 1.6493 14.4479 1.78125C14.316 1.9132 14.25 2.06163 14.25 2.22656V4.15625C14.25 4.32118 14.316 4.46962 14.4479 4.60156C14.5469 4.70052 14.6953 4.75 14.8932 4.75H16.7734C16.9714 4.75 17.1198 4.70052 17.2188 4.60156C17.3507 4.46962 17.4167 4.32118 17.4167 4.15625ZM13.4583 13.4089C14.5139 12.3533 15.0417 11.0504 15.0417 9.5H19V16.625C19 17.2188 18.7691 17.7795 18.3073 18.3073C17.8785 18.7691 17.3342 19 16.6745 19H2.42448C1.76475 19 1.204 18.7691 0.742188 18.3073C0.247393 17.8125 0 17.2517 0 16.625V9.5H4.00781C4.00781 11.0504 4.53559 12.3533 5.59115 13.4089C6.67969 14.4974 7.98263 15.0417 9.5 15.0417C11.0504 15.0417 12.3698 14.4974 13.4583 13.4089Z" fill="white"/>
</svg>
