<svg width="16" height="15" viewBox="0 0 16 15" fill="none" xmlns="http://www.w3.org/2000/svg">
<path fill-rule="evenodd" clip-rule="evenodd" d="M15.787 11.9673L9.36074 0.789039C9.07674 0.295016 8.56805 0 7.99998 0C7.43191 0 6.92322 0.294951 6.63921 0.789039L0.21305 11.9673C-0.0710167 12.4613 -0.0710167 13.0512 0.21305 13.5453C0.497117 14.0394 1.00574 14.3343 1.57381 14.3343H14.4263C14.9943 14.3343 15.503 14.0394 15.787 13.5453C16.071 13.0512 16.071 12.4613 15.787 11.9673ZM8 12.5144C7.43603 12.5144 6.97722 12.0537 6.97722 11.4873C6.97722 10.9209 7.43603 10.4602 8 10.4602C8.56397 10.4602 9.02278 10.9209 9.02278 11.4873C9.02272 12.0537 8.56391 12.5144 8 12.5144ZM8.00005 9.15819C8.56779 9.15819 9.02972 8.69428 9.02972 8.1241H9.02979V3.37805C9.02979 3.10752 8.81147 2.8882 8.54204 2.8882H7.45812C7.18875 2.8882 6.97037 3.10752 6.97037 3.37805V8.1241C6.97037 8.69428 7.4323 9.15819 8.00005 9.15819Z" fill="#E9AC20"/>
</svg>
