<svg width="21" height="14" viewBox="0 0 21 14" fill="none" xmlns="http://www.w3.org/2000/svg">
<path fill-rule="evenodd" clip-rule="evenodd" d="M17.5842 0.109922C18.8374 0.174442 19.4529 0.344104 20.0201 1.26649C20.6107 2.18769 20.9087 3.77439 20.9087 6.56904V6.57262V6.5786C20.9087 9.3601 20.6107 10.9588 20.0214 11.8704C19.4542 12.7928 18.8387 12.9601 17.5855 13.0377C16.3323 13.1034 13.1842 13.1429 10.457 13.1429C7.72445 13.1429 4.57508 13.1034 3.32317 13.0365C2.07257 12.9589 1.45707 12.7916 0.884698 11.8692C0.300562 10.9576 0 9.35891 0 6.5774V6.57501V6.57143V6.56784C0 3.77439 0.300562 2.18769 0.884698 1.26649C1.45707 0.342909 2.07388 0.174442 3.32448 0.108727C4.57508 0.0322597 7.72445 0 10.457 0C13.1842 0 16.3323 0.0322597 17.5842 0.109922ZM14.3747 6.57143L7.84075 2.98701V10.1558L14.3747 6.57143Z" fill="white"/>
</svg>
