<svg width="87" height="90" viewBox="0 0 87 90" fill="none" xmlns="http://www.w3.org/2000/svg">
<g id="Icon-Chat-Big">
<g id="Group 12">
<path id="Combined Shape" fill-rule="evenodd" clip-rule="evenodd" d="M69.5982 14.1972C69.5982 14.6324 69.9527 14.986 70.389 14.986C70.8254 14.986 71.1799 14.6324 71.1799 14.1972V11.831H73.5525C73.9889 11.831 74.3434 11.4775 74.3434 11.0423C74.3434 10.6071 73.9889 10.2536 73.5525 10.2536H71.1799V7.88736C71.1799 7.45218 70.8254 7.09863 70.389 7.09863C69.9527 7.09863 69.5982 7.45218 69.5982 7.88736V10.2536H67.2256C66.7892 10.2536 66.4347 10.6071 66.4347 11.0423C66.4347 11.4775 66.7892 11.831 67.2256 11.831H69.5982V14.1972Z" fill="#381451"/>
<path id="Combined Shape_2" fill-rule="evenodd" clip-rule="evenodd" d="M78.2978 7.09859C78.2978 7.53378 78.6523 7.88732 79.0886 7.88732C79.525 7.88732 79.8795 7.53378 79.8795 7.09859V4.73239H82.2521C82.6885 4.73239 83.043 4.37885 83.043 3.94366C83.043 3.50847 82.6885 3.15493 82.2521 3.15493H79.8795V0.788732C79.8795 0.353543 79.525 0 79.0886 0C78.6523 0 78.2978 0.353543 78.2978 0.788732V3.15493H75.9251C75.4888 3.15493 75.1343 3.50847 75.1343 3.94366C75.1343 4.37885 75.4888 4.73239 75.9251 4.73239H78.2978V7.09859Z" fill="#381451"/>
<path id="Path" fill-rule="evenodd" clip-rule="evenodd" d="M86.2065 47.1853V70.8473C86.2065 75.2023 82.6653 78.7346 78.2978 78.7346H73.5525C72.6798 78.7346 71.9708 79.4409 71.9708 80.3121V87.5462C71.9708 88.9519 70.267 89.6552 69.2707 88.6616L61.6339 81.0454C60.1502 79.5657 58.1398 78.7362 56.0414 78.7362H43.4994C39.1327 78.7362 35.5907 75.2038 35.5907 70.8488V47.1869C35.5907 42.8311 39.1327 39.2996 43.4994 39.2996H78.2978C82.6653 39.298 86.2065 42.8296 86.2065 47.1853Z" fill="white"/>
<path id="Shape" fill-rule="evenodd" clip-rule="evenodd" d="M68.7123 89.2199C69.1711 89.6774 69.7642 89.9185 70.3752 89.9185C70.6818 89.9185 70.9946 89.8569 71.2973 89.7337C72.2002 89.3601 72.7617 88.5228 72.7617 87.5477V80.3135C72.7617 79.8784 73.1162 79.5248 73.5525 79.5248H78.2978C83.0955 79.5248 86.9974 75.6328 86.9974 70.8488V47.1868C86.9974 42.402 83.0955 38.5107 78.2978 38.5107H43.4994C38.7017 38.5107 34.7999 42.402 34.7999 47.1868V70.8488C34.7999 75.6328 38.7017 79.5248 43.4994 79.5248H56.0414C57.9421 79.5248 59.7301 80.2627 61.0739 81.6037L68.7123 89.2199ZM36.3816 47.1853C36.3816 43.2716 39.5752 40.0867 43.4994 40.0867V40.0851H78.2993C82.2236 40.0851 85.4172 43.2701 85.4172 47.1837V70.8457C85.4172 74.7593 82.2236 77.9443 78.2993 77.9443H73.5541C72.2458 77.9443 71.1815 79.0057 71.1815 80.3105V87.5446C71.1815 88.0337 70.8069 88.2263 70.6926 88.2733C70.5775 88.3226 70.1759 88.4481 69.8307 88.103L62.1923 80.4868C60.5503 78.8478 58.3646 77.9458 56.0414 77.9458H43.4994C39.5752 77.9458 36.3816 74.7608 36.3816 70.8472V47.1853Z" fill="#381451"/>
<path id="Path_2" fill-rule="evenodd" clip-rule="evenodd" d="M32.4272 47.1853C32.4272 41.0957 37.3957 36.1431 43.4994 36.1431H51.4081V17.2135C51.4081 12.8578 47.867 9.32617 43.4994 9.32617H8.7011C4.33432 9.32617 0.792389 12.8578 0.792389 17.2135V40.8755C0.792389 45.2304 4.33432 48.7628 8.7011 48.7628H13.4463C14.3198 48.7628 15.0281 49.4691 15.0281 50.3402V57.5744C15.0281 58.9801 16.7318 59.6833 17.7282 58.6897L25.365 51.0735C26.8487 49.5939 28.859 48.7643 30.9575 48.7643H32.4272V47.1853Z" fill="white"/>
<path id="Path_3" fill-rule="evenodd" clip-rule="evenodd" d="M16.6237 59.9467C16.3171 59.9467 16.0043 59.885 15.7016 59.7603C14.7987 59.3882 14.2372 58.5494 14.2372 57.5743V50.3402C14.2372 49.905 13.8827 49.5514 13.4463 49.5514H8.70111C3.90336 49.5514 0.00152588 45.6594 0.00152588 40.8754V17.2134C0.00152588 12.4286 3.90336 8.53735 8.70111 8.53735H43.4994C48.2972 8.53735 52.199 12.4286 52.199 17.2134V36.143C52.199 36.5782 51.8445 36.9317 51.4081 36.9317C50.9718 36.9317 50.6173 36.5782 50.6173 36.143V17.2134C50.6173 13.2998 47.4237 10.1148 43.4994 10.1148H8.70111C4.77687 10.1148 1.58327 13.2998 1.58327 17.2134V40.8754C1.58327 44.789 4.77687 47.974 8.70111 47.974H13.4463C14.7547 47.974 15.8189 49.0354 15.8189 50.3402V57.5743C15.8189 58.0634 16.192 58.256 16.3078 58.303C16.4229 58.3523 16.8253 58.4763 17.1698 58.1327L24.8082 50.5165C26.4517 48.8775 28.6343 47.9755 30.9598 47.9755H32.4272C32.8636 47.9755 33.2181 48.329 33.2181 48.7642C33.2181 49.1994 32.8636 49.553 32.4272 49.553H30.9575C29.0568 49.553 27.2696 50.2909 25.9249 51.6319L18.2866 59.2481C17.8278 59.7056 17.2362 59.9467 16.6237 59.9467Z" fill="#381451"/>
<path id="Path_4" fill-rule="evenodd" clip-rule="evenodd" d="M18.1916 29.0445C18.1916 30.7868 16.7751 32.1994 15.0281 32.1994C13.2811 32.1994 11.8646 30.7868 11.8646 29.0445C11.8646 27.3022 13.2811 25.8895 15.0281 25.8895C16.7751 25.8895 18.1916 27.3022 18.1916 29.0445Z" fill="white"/>
<path id="Shape_2" fill-rule="evenodd" clip-rule="evenodd" d="M11.0737 29.0445C11.0737 31.2181 12.8486 32.9882 15.0281 32.9882C17.2076 32.9882 18.9824 31.2181 18.9824 29.0445C18.9824 26.8709 17.2076 25.1008 15.0281 25.1008C12.8486 25.1008 11.0737 26.8709 11.0737 29.0445ZM12.6555 29.0445C12.6555 27.7397 13.7198 26.6783 15.0281 26.6783C16.3364 26.6783 17.4007 27.7397 17.4007 29.0445C17.4007 30.3485 16.3364 31.4107 15.0281 31.4107C13.7198 31.4107 12.6555 30.3485 12.6555 29.0445Z" fill="#381451"/>
<path id="Path_5" fill-rule="evenodd" clip-rule="evenodd" d="M29.2638 29.0445C29.2638 30.7868 27.8473 32.1994 26.1003 32.1994C24.3533 32.1994 22.9368 30.7868 22.9368 29.0445C22.9368 27.3022 24.3533 25.8895 26.1003 25.8895C27.8473 25.8895 29.2638 27.3022 29.2638 29.0445Z" fill="white"/>
<path id="Shape_3" fill-rule="evenodd" clip-rule="evenodd" d="M22.1459 29.0445C22.1459 31.2181 23.9207 32.9882 26.1003 32.9882C28.2798 32.9882 30.0546 31.2181 30.0546 29.0445C30.0546 26.8709 28.2798 25.1008 26.1003 25.1008C23.9207 25.1008 22.1459 26.8709 22.1459 29.0445ZM23.7276 29.0445C23.7276 27.7397 24.7919 26.6783 26.1003 26.6783C27.4086 26.6783 28.4729 27.7397 28.4729 29.0445C28.4729 30.3485 27.4086 31.4107 26.1003 31.4107C24.7919 31.4107 23.7276 30.3485 23.7276 29.0445Z" fill="#381451"/>
<path id="Path_6" fill-rule="evenodd" clip-rule="evenodd" d="M40.3359 29.0445C40.3359 30.7868 38.9195 32.1994 37.1725 32.1994C35.4254 32.1994 34.009 30.7868 34.009 29.0445C34.009 27.3022 35.4254 25.8895 37.1725 25.8895C38.9195 25.8895 40.3359 27.3022 40.3359 29.0445Z" fill="white"/>
<path id="Shape_4" fill-rule="evenodd" clip-rule="evenodd" d="M33.2181 29.0445C33.2181 31.2181 34.9929 32.9882 37.1725 32.9882C39.352 32.9882 41.1268 31.2181 41.1268 29.0445C41.1268 26.8709 39.352 25.1008 37.1725 25.1008C34.9929 25.1008 33.2181 26.8709 33.2181 29.0445ZM34.7999 29.0445C34.7999 27.7397 35.8641 26.6783 37.1725 26.6783C38.4808 26.6783 39.5451 27.7397 39.5451 29.0445C39.5451 30.3485 38.4808 31.4107 37.1725 31.4107C35.8641 31.4107 34.7999 30.3485 34.7999 29.0445Z" fill="#381451"/>
<path id="Path_7" fill-rule="evenodd" clip-rule="evenodd" d="M52.9899 59.0163C52.9899 60.7586 51.5734 62.1712 49.8264 62.1712C48.0794 62.1712 46.6629 60.7586 46.6629 59.0163C46.6629 57.274 48.0794 55.8613 49.8264 55.8613C51.5734 55.8613 52.9899 57.274 52.9899 59.0163Z" fill="white"/>
<path id="Path_8" d="M49.8264 62.96C47.6469 62.96 45.872 61.1899 45.872 59.0163C45.872 56.8427 47.6469 55.0726 49.8264 55.0726C52.0059 55.0726 53.7807 56.8427 53.7807 59.0163C53.7807 61.1899 52.0059 62.96 49.8264 62.96Z" fill="#E92070"/>
<path id="Path_9" fill-rule="evenodd" clip-rule="evenodd" d="M64.0621 59.0163C64.0621 60.7586 62.6456 62.1712 60.8986 62.1712C59.1516 62.1712 57.7351 60.7586 57.7351 59.0163C57.7351 57.274 59.1516 55.8613 60.8986 55.8613C62.6456 55.8613 64.0621 57.274 64.0621 59.0163Z" fill="white"/>
<path id="Path_10" d="M60.8986 62.96C58.7191 62.96 56.9442 61.1899 56.9442 59.0163C56.9442 56.8427 58.7191 55.0726 60.8986 55.0726C63.0781 55.0726 64.853 56.8427 64.853 59.0163C64.853 61.1899 63.0781 62.96 60.8986 62.96Z" fill="#E92070"/>
<path id="Path_11" fill-rule="evenodd" clip-rule="evenodd" d="M75.1343 59.0163C75.1343 60.7586 73.7178 62.1712 71.9708 62.1712C70.2238 62.1712 68.8073 60.7586 68.8073 59.0163C68.8073 57.274 70.2238 55.8613 71.9708 55.8613C73.7178 55.8613 75.1343 57.274 75.1343 59.0163Z" fill="white"/>
<g id="Group">
<path id="Path_12" d="M71.9708 62.96C69.7913 62.96 68.0164 61.1899 68.0164 59.0163C68.0164 56.8427 69.7913 55.0726 71.9708 55.0726C74.1503 55.0726 75.9252 56.8427 75.9252 59.0163C75.9252 61.1899 74.1503 62.96 71.9708 62.96Z" fill="#E92070"/>
<path id="Path_13" fill-rule="evenodd" clip-rule="evenodd" d="M77.5069 32.338H60.1077C59.6714 32.338 59.3169 31.9844 59.3169 31.5492C59.3169 31.114 59.6714 30.7605 60.1077 30.7605H77.5069C77.9433 30.7605 78.2978 31.114 78.2978 31.5492C78.2978 31.9844 77.9433 32.338 77.5069 32.338Z" fill="#381451"/>
<path id="Path_14" fill-rule="evenodd" clip-rule="evenodd" d="M83.8339 32.338H80.6704C80.234 32.338 79.8795 31.9844 79.8795 31.5492C79.8795 31.114 80.234 30.7605 80.6704 30.7605H83.8339C84.2702 30.7605 84.6247 31.114 84.6247 31.5492C84.6247 31.9844 84.2702 32.338 83.8339 32.338Z" fill="#381451"/>
<path id="Path_15" fill-rule="evenodd" clip-rule="evenodd" d="M30.0546 79.5233H12.6555C12.2191 79.5233 11.8646 79.1697 11.8646 78.7345C11.8646 78.2993 12.2191 77.9458 12.6555 77.9458H30.0546C30.491 77.9458 30.8455 78.2993 30.8455 78.7345C30.8455 79.1697 30.491 79.5233 30.0546 79.5233Z" fill="#381451"/>
<path id="Path_16" fill-rule="evenodd" clip-rule="evenodd" d="M9.49198 79.5233H6.3285C5.89213 79.5233 5.53763 79.1697 5.53763 78.7345C5.53763 78.2993 5.89213 77.9458 6.3285 77.9458H9.49198C9.92835 77.9458 10.2829 78.2993 10.2829 78.7345C10.2829 79.1697 9.92835 79.5233 9.49198 79.5233Z" fill="#381451"/>
<path id="Path_17" fill-rule="evenodd" clip-rule="evenodd" d="M46.6629 22.7346C46.2266 22.7346 45.8721 22.381 45.8721 21.9458V18.0022C45.8721 16.2622 44.4533 14.8472 42.7086 14.8472H38.7542C38.3179 14.8472 37.9633 14.4937 37.9633 14.0585C37.9633 13.6233 38.3179 13.2698 38.7542 13.2698H42.7086C45.3245 13.2698 47.4538 15.3926 47.4538 18.0022V21.9458C47.4538 22.381 47.0993 22.7346 46.6629 22.7346Z" fill="#381451"/>
<path id="Path_18" fill-rule="evenodd" clip-rule="evenodd" d="M81.4612 52.7064C81.0249 52.7064 80.6704 52.3528 80.6704 51.9176V47.974C80.6704 46.234 79.2516 44.819 77.5069 44.819H73.5525C73.1162 44.819 72.7617 44.4655 72.7617 44.0303C72.7617 43.5951 73.1162 43.2416 73.5525 43.2416H77.5069C80.1228 43.2416 82.2521 45.3644 82.2521 47.974V51.9176C82.2521 52.3528 81.8976 52.7064 81.4612 52.7064Z" fill="#E92070"/>
</g>
</g>
</g>
</svg>
