<svg width="21" height="17" viewBox="0 0 21 17" fill="none" xmlns="http://www.w3.org/2000/svg">
<path d="M20.9087 1.94489C20.1311 2.27473 19.3026 2.49335 18.4388 2.59951C19.3275 2.08643 20.0057 1.28016 20.3245 0.308352C19.496 0.786044 18.5813 1.12346 17.6064 1.31176C16.8197 0.501703 15.6985 0 14.4753 0C12.1022 0 10.1917 1.86275 10.1917 4.14632C10.1917 4.47489 10.2204 4.79082 10.291 5.09159C6.72737 4.92352 3.57408 3.27181 1.45577 0.755714C1.08594 1.37621 0.869017 2.08643 0.869017 2.85099C0.869017 4.28659 1.63349 5.55918 2.77301 6.29593C2.08433 6.2833 1.40872 6.08995 0.836347 5.78538C0.836347 5.79802 0.836347 5.81445 0.836347 5.83088C0.836347 7.84527 2.32217 9.51846 4.2706 9.9039C3.92168 9.99615 3.54141 10.0404 3.14676 10.0404C2.87233 10.0404 2.59529 10.0252 2.33524 9.96961C2.89062 11.6112 4.46662 12.8181 6.34056 12.8573C4.88218 13.9605 3.03045 14.6252 1.02583 14.6252C0.674305 14.6252 0.337152 14.6101 0 14.5684C1.89877 15.7525 4.14907 16.4286 6.57578 16.4286C14.4636 16.4286 18.776 10.1099 18.776 4.63286C18.776 4.44962 18.7695 4.27269 18.7603 4.09703C19.611 3.51319 20.3258 2.78401 20.9087 1.94489Z" fill="white"/>
</svg>
