<svg width="32" height="32" viewBox="0 0 32 32" fill="none" xmlns="http://www.w3.org/2000/svg">
<path d="M9.00261 0.533447C8.56922 0.533447 8.15749 0.723554 7.87562 1.05381L2.48994 7.36408C2.25979 7.63374 2.1333 7.97705 2.1333 8.33206V28.0834C2.1333 29.6575 3.40381 30.9334 4.97112 30.9334H19.0761C18.7068 30.3516 18.4187 29.7129 18.2275 29.0334H4.97099C4.44854 29.0334 4.02505 28.6081 4.02505 28.0834V26.7218C4.02505 25.8998 4.6893 25.2334 5.50869 25.2334H6.86181C7.38482 25.2334 7.80881 24.8081 7.80881 24.2834C7.80881 23.7588 7.38482 23.3334 6.86181 23.3334H5.50869C4.6893 23.3334 4.02505 22.6671 4.02505 21.8451V9.03506C4.02505 8.68005 4.15154 8.33674 4.3817 8.06708L8.74576 2.95381C9.02763 2.62355 9.43935 2.43345 9.87275 2.43345H23.8898C24.4122 2.43345 24.8357 2.85875 24.8357 3.38345V19.8879C24.9332 19.8839 25.0312 19.8819 25.1297 19.8819C25.679 19.8819 26.2138 19.9439 26.7277 20.0612V3.38345C26.7277 1.80942 25.4572 0.533447 23.8899 0.533447H9.00261Z" fill="#7C6C8A"/>
<path fill-rule="evenodd" clip-rule="evenodd" d="M22.2314 20.4937V9.45914C22.2314 8.06056 21.1092 6.91839 19.7236 6.91839H11.0691C9.68354 6.91839 8.56132 8.06056 8.56132 9.45914V21.175C8.56132 22.5737 9.68371 23.716 11.0691 23.716H18.7872C19.0056 23.3019 19.2631 22.9118 19.5548 22.5506H17.9594V21.4534C17.9594 21.1341 17.7037 20.8708 17.3823 20.8708C17.0612 20.8708 16.8052 21.134 16.8052 21.4534V22.5506H13.9871V18.7328C13.9871 18.7034 13.9911 18.6749 13.9986 18.6479C14.0013 18.64 14.0039 18.6321 14.0063 18.6242C14.0502 18.504 14.1633 18.4213 14.2916 18.4213H16.5007C16.6289 18.4213 16.742 18.5039 16.786 18.6239C16.7881 18.6307 16.7908 18.6393 16.7941 18.6487C16.8013 18.6752 16.8052 18.7034 16.8052 18.7328V19.8911C16.8052 20.2102 17.0611 20.4737 17.3823 20.4737C17.7038 20.4737 17.9594 20.2101 17.9594 19.8911V19.0367C19.2332 19.0001 20.3821 18.2373 20.9253 17.0693H21.077V21.1401C21.4392 20.8907 21.8254 20.6739 22.2314 20.4937ZM11.0689 8.08344C10.3252 8.08344 9.71529 8.69815 9.71529 9.45898V13.5648H9.86702C10.4101 12.3968 11.5591 11.634 12.8329 11.5974V10.6229C12.8329 10.3039 13.0885 10.0403 13.41 10.0403C13.7312 10.0403 13.9871 10.3038 13.9871 10.6229V11.901C13.9871 11.9312 13.9912 11.9596 13.9985 11.986C14.0015 11.9947 14.0041 12.0027 14.0062 12.0099C14.0503 12.13 14.1632 12.2126 14.2916 12.2126H16.5007C16.6286 12.2126 16.7414 12.1304 16.7857 12.0109C16.7884 12.0019 16.7911 11.9936 16.7937 11.9861C16.8012 11.9592 16.8052 11.9307 16.8052 11.901V8.08344H13.9871V9.06064C13.9871 9.37976 13.7312 9.64325 13.41 9.64325C13.0885 9.64325 12.8329 9.37967 12.8329 9.06064V8.08344H11.0689ZM17.9595 8.08344V11.5974C19.2332 11.6339 20.3822 12.3966 20.9253 13.5648H21.0771V9.45898C21.0771 8.69815 20.4672 8.08344 19.7234 8.08344H17.9595ZM12.9288 12.7612C12.0518 12.7612 11.2516 13.2867 10.8922 14.1031C10.7249 14.4832 10.3503 14.73 9.93651 14.73H9.71529V15.904H9.93651C10.3505 15.904 10.725 16.1507 10.8924 16.5308C11.2516 17.3471 12.0519 17.8728 12.929 17.8728H13.1064C13.3705 17.5006 13.8026 17.2559 14.2916 17.2559H16.5007C16.9899 17.2559 17.4219 17.5007 17.6861 17.8728H17.8635C18.7405 17.8728 19.5407 17.3472 19.9001 16.5308C20.0674 16.1508 20.442 15.904 20.8558 15.904H21.077V14.73H20.8558C20.4418 14.73 20.0673 14.4832 19.8999 14.1031C19.5407 13.2868 18.7405 12.7612 17.8633 12.7612H17.6859C17.4218 13.1333 16.9897 13.3778 16.5007 13.3778H14.2916C13.8024 13.3778 13.3705 13.1333 13.1063 12.7612H12.9288ZM9.71529 17.0693V21.1749C9.71529 21.9359 10.3254 22.5506 11.0689 22.5506H12.8329V19.0367C11.559 19.0001 10.4103 18.2373 9.86705 17.0693H9.71529Z" fill="#7C6C8A"/>
<path d="M25.0329 23.5529C25.0329 23.2648 24.7762 23.0312 24.4595 23.0312C24.1428 23.0312 23.8861 23.2648 23.8861 23.5529V25.2484H22.166C21.8493 25.2484 21.5926 25.482 21.5926 25.7701C21.5926 26.0582 21.8493 26.2918 22.166 26.2918H23.8861V28.1177C23.8861 28.4059 24.1428 28.6394 24.4595 28.6394C24.7762 28.6394 25.0329 28.4059 25.0329 28.1177V26.2918H26.6097C26.9264 26.2918 27.1831 26.0582 27.1831 25.7701C27.1831 25.482 26.9264 25.2484 26.6097 25.2484H25.0329V23.5529Z" fill="#7C6C8A"/>
<path fill-rule="evenodd" clip-rule="evenodd" d="M29.3333 25.8353C29.3333 28.5753 27.1191 30.7965 24.3878 30.7965C21.6565 30.7965 19.4424 28.5753 19.4424 25.8353C19.4424 23.0953 21.6565 20.8742 24.3878 20.8742C27.1191 20.8742 29.3333 23.0953 29.3333 25.8353ZM28.4732 25.8353C28.4732 28.0988 26.6441 29.9337 24.3878 29.9337C22.1316 29.9337 20.3025 28.0988 20.3025 25.8353C20.3025 23.5719 22.1316 21.737 24.3878 21.737C26.6441 21.737 28.4732 23.5719 28.4732 25.8353Z" fill="#7C6C8A"/>
</svg>
