<svg width="12" height="14" viewBox="0 0 12 14" fill="none" xmlns="http://www.w3.org/2000/svg">
<path fill-rule="evenodd" clip-rule="evenodd" d="M8.91792 0.804637C9.17827 0.544288 9.60038 0.544288 9.86073 0.804637L11.7463 2.69026C12.0067 2.9506 12.0067 3.37271 11.7463 3.63306L3.92773 11.4517C3.80271 11.5767 3.63314 11.6469 3.45633 11.6469H1.57071C1.20252 11.6469 0.904042 11.3485 0.904042 10.9803L0.904043 9.09466C0.904042 8.91785 0.97428 8.74828 1.0993 8.62325L8.91792 0.804637ZM11.2749 3.16166L10.3321 4.10447L8.44651 2.21885L9.38932 1.27604L11.2749 3.16166ZM0.666016 13.3332C0.666016 13.1491 0.815254 12.9999 0.999349 12.9999H10.9993C11.1834 12.9999 11.3327 13.1491 11.3327 13.3332C11.3327 13.5173 11.1834 13.6666 10.9993 13.6666H0.999349C0.815255 13.6666 0.666016 13.5173 0.666016 13.3332ZM2.41085 9.40444L3.34284 10.5227C3.61426 10.8483 3.38269 11.3428 2.95875 11.3428L2.02676 11.3428C1.75062 11.3428 1.52676 11.1189 1.52676 10.8428L1.52676 9.72456C1.52676 9.25694 2.11145 9.04522 2.41085 9.40444Z" fill="#E92070"/>
</svg>
