<svg width="18" height="20" viewBox="0 0 18 20" fill="none" xmlns="http://www.w3.org/2000/svg">
<path fill-rule="evenodd" clip-rule="evenodd" d="M12.8337 0.706956C13.2242 0.316432 13.8574 0.316431 14.2479 0.706956L17.0763 3.53538C17.4668 3.92591 17.4668 4.55907 17.0763 4.9496L5.34838 16.6775C5.16085 16.8651 4.90649 16.9704 4.64128 16.9704H1.81285C1.26057 16.9704 0.81285 16.5227 0.812851 15.9704L0.812851 13.142C0.812851 12.8768 0.918207 12.6224 1.10574 12.4349L12.8337 0.706956ZM13.5408 1.41406L16.3692 4.24249L14.955 5.6567L12.1266 2.82828L13.5408 1.41406ZM11.4195 3.53538L1.81285 13.142L1.81285 14.7746L3.00871 15.9704H4.64128L14.2479 6.36381L11.4195 3.53538Z" fill="#E92070" />
<path d="M0.455811 19.4998C0.455811 19.2237 0.679668 18.9998 0.955811 18.9998H15.9558C16.232 18.9998 16.4558 19.2237 16.4558 19.4998C16.4558 19.776 16.232 19.9998 15.9558 19.9998H0.955811C0.679669 19.9998 0.455812 19.776 0.455811 19.4998Z" fill="#E92070"/>
</svg>
