<svg width="35" height="32" viewBox="0 0 35 32" fill="none" xmlns="http://www.w3.org/2000/svg">
<path d="M29.2743 2.66675H18.7164C18.08 2.66675 17.4697 2.90087 17.0197 3.31762C16.5697 3.73437 16.3169 4.2996 16.3169 4.88897V12.4445C16.3169 12.5624 16.3675 12.6754 16.4575 12.7588C16.5475 12.8421 16.6695 12.889 16.7968 12.889C16.9241 12.889 17.0461 12.8421 17.1361 12.7588C17.2261 12.6754 17.2767 12.5624 17.2767 12.4445V4.88897C17.2767 4.53535 17.4284 4.19621 17.6984 3.94616C17.9684 3.69611 18.3346 3.55564 18.7164 3.55564H20.1561V4.00008C20.1561 4.11796 20.2067 4.231 20.2967 4.31435C20.3867 4.3977 20.5088 4.44453 20.636 4.44453H27.3547C27.482 4.44453 27.6041 4.3977 27.6941 4.31435C27.7841 4.231 27.8346 4.11796 27.8346 4.00008V3.55564H29.2743C29.6562 3.55564 30.0224 3.69611 30.2924 3.94616C30.5624 4.19621 30.7141 4.53535 30.7141 4.88897V27.1112C30.7141 27.4648 30.5624 27.804 30.2924 28.054C30.0224 28.3041 29.6562 28.4445 29.2743 28.4445H18.7164C18.3346 28.4445 17.9684 28.3041 17.6984 28.054C17.4284 27.804 17.2767 27.4648 17.2767 27.1112V19.5556C17.2767 19.4378 17.2261 19.3247 17.1361 19.2414C17.0461 19.158 16.9241 19.1112 16.7968 19.1112C16.6695 19.1112 16.5475 19.158 16.4575 19.2414C16.3675 19.3247 16.3169 19.4378 16.3169 19.5556V27.1112C16.3169 27.7006 16.5697 28.2658 17.0197 28.6825C17.4697 29.0993 18.08 29.3334 18.7164 29.3334H29.2743C29.9107 29.3334 30.5211 29.0993 30.9711 28.6825C31.4211 28.2658 31.6739 27.7006 31.6739 27.1112V4.88897C31.6739 4.2996 31.4211 3.73437 30.9711 3.31762C30.5211 2.90087 29.9107 2.66675 29.2743 2.66675Z" fill="#381451" stroke="#381451" stroke-width="0.7375"/>
<path d="M15.8368 28.4445H5.27892C4.89709 28.4445 4.53089 28.3041 4.26089 28.054C3.99089 27.804 3.83921 27.4648 3.83921 27.1112V24.889H14.877C15.0043 24.889 15.1264 24.8421 15.2164 24.7588C15.3064 24.6754 15.3569 24.5624 15.3569 24.4445C15.3569 24.3267 15.3064 24.2136 15.2164 24.1303C15.1264 24.0469 15.0043 24.0001 14.877 24.0001H3.83921V4.88897C3.83921 4.53535 3.99089 4.19621 4.26089 3.94616C4.53089 3.69611 4.89709 3.55564 5.27892 3.55564H15.8368C15.9641 3.55564 16.0862 3.50881 16.1762 3.42546C16.2662 3.34211 16.3167 3.22907 16.3167 3.11119C16.3167 2.99332 16.2662 2.88027 16.1762 2.79692C16.0862 2.71357 15.9641 2.66675 15.8368 2.66675H5.27892C4.64253 2.66675 4.0322 2.90087 3.5822 3.31762C3.1322 3.73437 2.87939 4.2996 2.87939 4.88897V27.1112C2.87939 27.7006 3.1322 28.2658 3.5822 28.6825C4.0322 29.0993 4.64253 29.3334 5.27892 29.3334H15.8368C15.9641 29.3334 16.0862 29.2866 16.1762 29.2032C16.2662 29.1199 16.3167 29.0068 16.3167 28.889C16.3167 28.7711 16.2662 28.6581 16.1762 28.5747C16.0862 28.4914 15.9641 28.4445 15.8368 28.4445Z" fill="#381451" stroke="#381451" stroke-width="0.7375"/>
<path d="M10.0781 26.6667C10.0781 26.8425 10.1344 27.0144 10.2399 27.1606C10.3453 27.3067 10.4952 27.4207 10.6706 27.4879C10.846 27.5552 11.039 27.5728 11.2252 27.5385C11.4114 27.5042 11.5824 27.4196 11.7166 27.2953C11.8509 27.1709 11.9423 27.0126 11.9793 26.8401C12.0163 26.6677 11.9973 26.489 11.9247 26.3266C11.852 26.1641 11.729 26.0253 11.5712 25.9276C11.4133 25.83 11.2278 25.7778 11.0379 25.7778C10.7834 25.7778 10.5392 25.8715 10.3592 26.0382C10.1792 26.2049 10.0781 26.431 10.0781 26.6667Z" fill="#381451" stroke="#381451" stroke-width="0.7375"/>
<path d="M22.0757 27.1112C22.0757 27.2291 22.1262 27.3421 22.2162 27.4255C22.3062 27.5088 22.4283 27.5556 22.5556 27.5556H25.435C25.5623 27.5556 25.6844 27.5088 25.7744 27.4255C25.8644 27.3421 25.9149 27.2291 25.9149 27.1112C25.9149 26.9933 25.8644 26.8803 25.7744 26.7969C25.6844 26.7136 25.5623 26.6667 25.435 26.6667H22.5556C22.4283 26.6667 22.3062 26.7136 22.2162 26.7969C22.1262 26.8803 22.0757 26.9933 22.0757 27.1112Z" fill="#381451" stroke="#381451" stroke-width="0.7375"/>
<path d="M12.4774 4.88902C12.4774 4.77115 12.4269 4.6581 12.3369 4.57475C12.2469 4.49141 12.1248 4.44458 11.9975 4.44458H9.11809C8.99081 4.44458 8.86874 4.49141 8.77874 4.57475C8.68875 4.6581 8.63818 4.77115 8.63818 4.88902C8.63818 5.0069 8.68875 5.11994 8.77874 5.20329C8.86874 5.28664 8.99081 5.33347 9.11809 5.33347H11.9975C12.1248 5.33347 12.2469 5.28664 12.3369 5.20329C12.4269 5.11994 12.4774 5.0069 12.4774 4.88902Z" fill="#381451" stroke="#381451" stroke-width="0.7375"/>
<path d="M21.231 16.4445H12.3623V15.5557H21.231L19.9736 14.3912C19.9289 14.3498 19.8934 14.3006 19.8691 14.2464C19.8449 14.1923 19.8325 14.1343 19.8325 14.0757C19.8325 14.0171 19.8449 13.959 19.8691 13.9049C19.8934 13.8507 19.9289 13.8015 19.9736 13.7601C20.0184 13.7187 20.0715 13.6858 20.1299 13.6634C20.1884 13.6409 20.2511 13.6294 20.3143 13.6294C20.3776 13.6294 20.4403 13.6409 20.4987 13.6634C20.5572 13.6858 20.6103 13.7187 20.6551 13.7601L22.7283 15.689C22.7742 15.7289 22.8108 15.7771 22.8358 15.8306C22.8608 15.8841 22.8737 15.9418 22.8737 16.0001C22.8737 16.0584 22.8608 16.1161 22.8358 16.1696C22.8108 16.2231 22.7742 16.2713 22.7283 16.3112L20.6551 18.2401C20.6093 18.281 20.5551 18.3131 20.4958 18.3345C20.4365 18.3558 20.3732 18.3661 20.3095 18.3645C20.2474 18.3654 20.1858 18.3548 20.1281 18.3334C20.0705 18.3121 20.018 18.2804 19.9736 18.2401C19.8851 18.1555 19.8355 18.0423 19.8355 17.9245C19.8355 17.8067 19.8851 17.6936 19.9736 17.609L21.231 16.4445Z" fill="#381451" stroke="#381451" stroke-width="0.7375"/>
</svg>
