<svg width="12" height="17" viewBox="0 0 12 17" fill="none" xmlns="http://www.w3.org/2000/svg">
<path fill-rule="evenodd" clip-rule="evenodd" d="M6.2042 7.46214C7.4787 7.46214 8.51189 6.42895 8.51189 5.15445C8.51189 3.87994 7.4787 2.84675 6.2042 2.84675C4.92969 2.84675 3.8965 3.87994 3.8965 5.15445C3.8965 6.42895 4.92969 7.46214 6.2042 7.46214ZM6.2042 6.69291C7.05386 6.69291 7.74266 6.00412 7.74266 5.15445C7.74266 4.30478 7.05386 3.61599 6.2042 3.61599C5.35453 3.61599 4.66573 4.30478 4.66573 5.15445C4.66573 6.00412 5.35453 6.69291 6.2042 6.69291Z" fill="#7C6C8A"/>
<path fill-rule="evenodd" clip-rule="evenodd" d="M7.5366 13.6634C9.17378 10.7262 10.8196 7.1474 10.8196 5.15445C10.8196 2.60544 8.7532 0.539062 6.2042 0.539062C3.65519 0.539062 1.58881 2.60544 1.58881 5.15445C1.58881 7.1474 3.23461 10.7262 4.87179 13.6634C2.5424 13.8328 0.81958 14.4361 0.81958 15.1544C0.81958 16.0041 3.23035 16.6929 6.2042 16.6929C9.17804 16.6929 11.5888 16.0041 11.5888 15.1544C11.5888 14.4361 9.866 13.8328 7.5366 13.6634ZM9.63576 7.24682C9.90913 6.38667 10.0503 5.67519 10.0503 5.15445C10.0503 3.03027 8.32837 1.30829 6.2042 1.30829C4.08002 1.30829 2.35804 3.03027 2.35804 5.15445C2.35804 5.67519 2.49926 6.38667 2.77263 7.24682C3.04251 8.09599 3.42584 9.04334 3.87439 10.0201C4.81152 12.0607 7.59687 12.0607 8.534 10.0201C8.98255 9.04334 9.36588 8.09599 9.63576 7.24682ZM7.26197 14.1504C7.05663 14.5102 6.8529 14.8579 6.65408 15.189C6.44925 15.5301 5.95914 15.5301 5.75431 15.189C5.55549 14.8579 5.35176 14.5102 5.14642 14.1504C5.12424 14.1582 5.10041 14.1633 5.07521 14.1649C4.13766 14.2261 3.31932 14.3609 2.69971 14.5379C2.26951 14.6608 1.9705 14.794 1.79023 14.9158C1.61321 15.0354 1.58881 15.1154 1.58881 15.1544C1.58881 15.1934 1.61321 15.2735 1.79023 15.393C1.9705 15.5148 2.26951 15.648 2.69971 15.7709C3.55739 16.016 4.79588 16.1801 6.2042 16.1801C7.61251 16.1801 8.851 16.016 9.70868 15.7709C10.1389 15.648 10.4379 15.5148 10.6182 15.393C10.7952 15.2735 10.8196 15.1934 10.8196 15.1544C10.8196 15.1154 10.7952 15.0354 10.6182 14.9158C10.4379 14.794 10.1389 14.6608 9.70868 14.5379C9.08908 14.3609 8.27073 14.2261 7.33318 14.1649C7.30798 14.1633 7.28415 14.1582 7.26197 14.1504Z" fill="#7C6C8A"/>
</svg>
