<?xml version="1.0" encoding="utf-8"?>
<!-- Generator: Adobe Illustrator 21.0.2, SVG Export Plug-In . SVG Version: 6.00 Build 0)  -->
<svg version="1.1" id="Layer_1" xmlns="http://www.w3.org/2000/svg" xmlns:xlink="http://www.w3.org/1999/xlink" x="0px" y="0px"
	 viewBox="0 0 20 18.3" style="enable-background:new 0 0 20 18.3;" xml:space="preserve">
<style type="text/css">
	.st0{fill:#E92070;}
</style>
<path class="st0" d="M19.4,8.7c0.3,0,0.6,0.3,0.6,0.6v5.3c0,2.1-1.7,3.7-3.7,3.7H3.7c-2.1,0-3.7-1.7-3.7-3.7V9.3
	C0,9,0.3,8.7,0.6,8.7c0.3,0,0.6,0.3,0.6,0.6v5.3c0,1.4,1.2,2.6,2.6,2.6h12.6c1.4,0,2.6-1.2,2.6-2.6V9.2C18.9,8.9,19.1,8.7,19.4,8.7z
	"/>
<path class="st0" d="M6.2,9.7l3.6,3.4c0.2,0.2,0.6,0.2,0.8,0l3.6-3.4c0.1-0.1,0.2-0.2,0.2-0.4c0-0.1-0.1-0.3-0.2-0.4
	c-0.2-0.2-0.6-0.2-0.8,0l-2.6,2.5v-11c0-0.3-0.3-0.5-0.6-0.5C9.9,0,9.6,0.2,9.6,0.5v11L7,9C6.7,8.8,6.4,8.8,6.2,9
	C5.9,9.2,5.9,9.5,6.2,9.7z"/>
</svg>
