<svg width="16" height="16" viewBox="0 0 16 16" fill="none" xmlns="http://www.w3.org/2000/svg">
<path fill-rule="evenodd" clip-rule="evenodd" d="M8 16C12.4183 16 16 12.4183 16 8C16 3.58172 12.4183 0 8 0C3.58172 0 0 3.58172 0 8C0 12.4183 3.58172 16 8 16Z" fill="#78B722"/>
<path fill-rule="evenodd" clip-rule="evenodd" d="M13 5.96465C13 6.133 12.9428 6.27609 12.8284 6.39394L7.55742 11.8232C7.44301 11.9411 7.30409 12 7.14065 12C6.9772 12 6.83828 11.9411 6.72387 11.8232L3.67161 8.67929C3.5572 8.56145 3.5 8.41835 3.5 8.25C3.5 8.08165 3.5572 7.93855 3.67161 7.82071L4.50516 6.96212C4.61957 6.84428 4.75849 6.78535 4.92194 6.78535C5.08538 6.78535 5.2243 6.84428 5.33871 6.96212L7.14065 8.82449L11.1613 4.67677C11.2757 4.55892 11.4146 4.5 11.5781 4.5C11.7415 4.5 11.8804 4.55892 11.9948 4.67677L12.8284 5.53535C12.9428 5.6532 13 5.7963 13 5.96465Z" fill="white"/>
</svg>
