<svg width="20" height="20" viewBox="0 0 20 20" fill="none" xmlns="http://www.w3.org/2000/svg">
<path d="M10.0002 19.6667C4.66683 19.6667 0.333496 15.3334 0.333496 10C0.333496 4.66671 4.66683 0.333374 10.0002 0.333374C15.3335 0.333374 19.6668 4.66671 19.6668 10C19.6668 15.3334 15.3335 19.6667 10.0002 19.6667ZM10.0002 1.16671C5.0835 1.16671 1.16683 5.08337 1.16683 10C1.16683 14.9167 5.0835 18.8334 10.0002 18.8334C14.9168 18.8334 18.8335 14.8334 18.8335 10C18.8335 5.16671 14.9168 1.16671 10.0002 1.16671Z" fill="#E92070"/>
<path d="M10.417 8.83337H8.66699V9.66671H10.417V8.83337Z" fill="#E92070"/>
<path d="M11.2503 13.4167H8.66699V14.2501H11.2503V13.4167Z" fill="#E92070"/>
<path d="M10.4168 8.83337H9.5835V14.25H10.4168V8.83337Z" fill="#E92070"/>
<path d="M10.0005 7.16675C9.58382 7.16675 9.25049 6.83341 9.25049 6.41675C9.25049 6.00008 9.58382 5.66675 10.0005 5.66675C10.4172 5.66675 10.7505 6.00008 10.7505 6.41675C10.7505 6.83341 10.4172 7.16675 10.0005 7.16675Z" fill="#E92070"/>
</svg>
