<svg width="16" height="12" viewBox="0 0 16 12" fill="none" xmlns="http://www.w3.org/2000/svg">
<path fill-rule="evenodd" clip-rule="evenodd" d="M14.875 0H1.125C0.504 0 0 0.505238 0 1.12776V10.6354C0 11.2566 0.504 11.7618 1.125 11.7618H14.875C15.496 11.7618 16 11.2566 16 10.6354V1.12776C16 0.505238 15.496 0 14.875 0ZM6.43133 8.69451C6.266 8.79643 5.589 8.93744 4.299 8.93744C3.00833 8.93744 2.33133 8.79643 2.166 8.69451V8.40079C2.166 8.17758 2.287 7.97274 2.473 7.87082L3.50033 7.36325C3.662 7.28472 3.76467 7.11764 3.76467 6.93887V6.45602L3.60333 6.38685C3.19967 6.21176 2.93667 5.87894 2.8 5.36736L2.76233 5.22534L2.62167 5.18056C2.50967 5.14648 2.43133 5.04222 2.43133 4.92761V4.65962C2.43133 4.56305 2.48733 4.4735 2.57633 4.42638L2.70133 4.35955L2.71667 4.21754C2.743 3.96692 2.799 3.73602 2.88233 3.53085C2.917 3.44498 2.947 3.37915 2.972 3.32602C3.06333 3.13154 3.09567 3.03063 3.072 2.82479C3.386 3.0049 3.76367 3.08042 4.17233 3.04901C4.21267 3.04667 4.25567 3.04366 4.299 3.04366C5.29733 3.04366 5.78433 3.40655 5.87933 4.21988L5.89667 4.35955L6.02 4.42505C6.11 4.4735 6.166 4.56305 6.166 4.65962V4.92761C6.166 5.04222 6.08767 5.14648 5.97567 5.18056L5.835 5.22534L5.79733 5.36736C5.66067 5.87894 5.39767 6.21176 4.993 6.38685L4.83267 6.45602V6.94021C4.83267 7.11898 4.93033 7.28105 5.089 7.36191L6.09567 7.87751C6.30267 7.98043 6.43133 8.19061 6.43133 8.42318V8.69451ZM13.526 4.7447H7.65837C7.5117 4.7447 7.3917 4.86499 7.3917 5.01235C7.3917 5.15971 7.5117 5.28001 7.65837 5.28001H13.526C13.6727 5.28001 13.7914 5.15971 13.7914 5.01235C13.7914 4.86499 13.6727 4.7447 13.526 4.7447ZM13.526 6.34889H7.65837C7.5117 6.34889 7.3917 6.46885 7.3917 6.61655C7.3917 6.76391 7.5117 6.88421 7.65837 6.88421H13.526C13.6727 6.88421 13.7914 6.76391 13.7914 6.61655C13.7914 6.46885 13.6727 6.34889 13.526 6.34889Z" fill="#B3A6BA"/>
</svg>
