<svg width="16" height="12" viewBox="0 0 16 12" fill="none" xmlns="http://www.w3.org/2000/svg">
<path fill-rule="evenodd" clip-rule="evenodd" d="M3.36602 4.7186C2.34818 4.07202 1.73808 3.68317 1.53568 3.55224C1.1667 3.32309 0.818379 3.00795 0.491077 2.60688C0.163745 2.20584 0 1.83333 0 1.48957C0 1.06399 0.123496 0.709307 0.370489 0.42555C0.617514 0.14185 0.970209 0 1.42851 0H14.5714C14.9582 0 15.293 0.128175 15.5758 0.384669C15.8586 0.641105 16 0.949431 16 1.30962C16 1.74064 15.8542 2.15263 15.5624 2.54536C15.2708 2.93825 14.9078 3.2739 14.4733 3.55207C12.2353 4.9763 10.8423 5.86303 10.2947 6.21218C10.2352 6.25045 10.1086 6.33353 9.91524 6.46188C9.72173 6.5902 9.56111 6.69389 9.43311 6.77299C9.30511 6.85202 9.15037 6.94064 8.96886 7.03894C8.78745 7.13696 8.61614 7.21084 8.45549 7.25969C8.29475 7.30891 8.14589 7.33333 8.00901 7.33333H8H7.99102C7.85414 7.33333 7.70535 7.30894 7.54461 7.25969C7.38389 7.21084 7.21274 7.13704 7.03117 7.03894C6.84953 6.94075 6.6948 6.85205 6.5668 6.77299C6.43889 6.69389 6.27815 6.5902 6.08469 6.46188C5.89127 6.33365 5.76484 6.25045 5.70532 6.21218C5.16365 5.86303 4.38389 5.36518 3.36602 4.7186ZM10.6607 7.62266C11.6725 6.93495 13.1548 5.97051 15.107 4.72953C15.4465 4.51156 15.744 4.26822 16 4V10.6581C16 11.0273 15.8602 11.3429 15.5804 11.6058C15.3006 11.8686 14.9643 12 14.5715 12H1.4286C1.03572 12 0.699353 11.8686 0.419618 11.6058C0.139821 11.343 0 11.0273 0 10.6581V4C0.26191 4.27389 0.562504 4.51723 0.901876 4.72953C3.0566 6.10474 4.53574 7.06924 5.33936 7.62266C5.67861 7.85737 5.95393 8.04059 6.16518 8.17188C6.37649 8.30326 6.65779 8.43743 7.00892 8.57433C7.36005 8.71144 7.68748 8.77978 7.99104 8.77978H8.00002H8.00912C8.31274 8.77978 8.63998 8.71144 8.99111 8.57433C9.34237 8.43743 9.62348 8.30326 9.83485 8.17188C10.0462 8.04059 10.3215 7.85737 10.6607 7.62266Z" fill="#B3A6BA"/>
</svg>
