<svg width="15" height="16" viewBox="0 0 15 16" fill="none" xmlns="http://www.w3.org/2000/svg">
<path fill-rule="evenodd" clip-rule="evenodd" d="M9.9474 6.46869C9.19909 7.20876 8.29606 7.57895 7.23806 7.57895C6.1803 7.57895 5.27734 7.20876 4.52882 6.46869C3.78038 5.72862 3.40616 4.83557 3.40616 3.78939C3.40616 2.74335 3.78038 1.8503 4.52882 1.11005C5.27713 0.370018 6.18033 0 7.23806 0C8.29578 0 9.19885 0.370018 9.9474 1.11005C10.6958 1.8503 11.07 2.74338 11.07 3.78939C11.07 4.83557 10.6958 5.72862 9.9474 6.46869ZM14.296 11.2277C14.3678 11.6225 14.4158 11.9904 14.4399 12.331C14.4642 12.6719 14.4761 13.0211 14.4762 13.3787C14.4762 14.1884 14.2261 14.8278 13.7256 15.2968C13.2251 15.7656 12.5603 16 11.731 16H2.74516C1.91584 16 1.25094 15.7656 0.750533 15.2968C0.250238 14.8278 0 14.1883 0 13.3787C0 13.0211 0.0119555 12.6719 0.0359386 12.331C0.0599577 11.9901 0.107924 11.6225 0.179945 11.2277C0.251894 10.8329 0.342749 10.467 0.452401 10.1295C0.56209 9.79236 0.709445 9.46323 0.894432 9.14267C1.07942 8.82216 1.29192 8.54893 1.53178 8.32279C1.77172 8.09685 2.06471 7.91633 2.41088 7.7814C2.75697 7.64651 3.13912 7.57894 3.5572 7.57894C3.61889 7.57894 3.76275 7.65147 3.989 7.79658C4.21515 7.94172 4.47043 8.10366 4.75484 8.28255C5.03929 8.46112 5.40952 8.6232 5.86523 8.76806C6.32098 8.91316 6.77846 8.98573 7.23767 8.98573C7.69705 8.98573 8.1545 8.91316 8.61032 8.76806C9.06593 8.6232 9.43626 8.46112 9.72067 8.28255C10.0051 8.10366 10.2605 7.94168 10.4865 7.79658C10.7127 7.65147 10.8567 7.57894 10.9183 7.57894C11.3364 7.57894 11.7185 7.64651 12.0649 7.7814C12.4107 7.91633 12.7037 8.09671 12.9437 8.32279C13.1838 8.54893 13.3962 8.82216 13.5812 9.14267C13.7663 9.46323 13.9137 9.79222 14.0234 10.1295C14.1331 10.467 14.224 10.8329 14.296 11.2277Z" fill="#B3A6BA"/>
</svg>
