<svg width="16" height="16" viewBox="0 0 16 16" fill="none" xmlns="http://www.w3.org/2000/svg">
<path fill-rule="evenodd" clip-rule="evenodd" d="M16 12.6364C16 13.0455 15.8182 13.8409 15.6477 14.2159C15.4091 14.7727 14.7727 15.1364 14.2614 15.4205C13.5909 15.7841 12.9091 16 12.1477 16C11.0909 16 10.1364 15.5682 9.17045 15.2159C8.47727 14.9659 7.80682 14.6591 7.18182 14.2727C5.25 13.0795 2.92045 10.75 1.72727 8.81818C1.34091 8.19318 1.03409 7.52273 0.784091 6.82955C0.431818 5.86364 0 4.90909 0 3.85227C0 3.09091 0.215909 2.40909 0.579545 1.73864C0.863636 1.22727 1.22727 0.590909 1.78409 0.352273C2.15909 0.181818 2.95455 0 3.36364 0C3.44318 0 3.52273 0 3.60227 0.0340909C3.84091 0.113636 4.09091 0.670455 4.20455 0.897727C4.56818 1.54545 4.92045 2.20455 5.29545 2.84091C5.47727 3.13636 5.81818 3.5 5.81818 3.85227C5.81818 4.54545 3.76136 5.55682 3.76136 6.17045C3.76136 6.47727 4.04545 6.875 4.20455 7.14773C5.35227 9.21591 6.78409 10.6477 8.85227 11.7955C9.125 11.9545 9.52273 12.2386 9.82955 12.2386C10.4432 12.2386 11.4545 10.1818 12.1477 10.1818C12.5 10.1818 12.8636 10.5227 13.1591 10.7045C13.7955 11.0795 14.4545 11.4318 15.1023 11.7955C15.3295 11.9091 15.8864 12.1591 15.9659 12.3977C16 12.4773 16 12.5568 16 12.6364Z" fill="#B3A6BA"/>
</svg>
